<svg width="17" height="16" viewBox="0 0 17 16" fill="none" xmlns="http://www.w3.org/2000/svg">
<path fill-rule="evenodd" clip-rule="evenodd" d="M8.49961 2.8801C7.1417 2.8801 5.83941 3.41952 4.87922 4.37971C3.91904 5.3399 3.37961 6.64219 3.37961 8.0001C3.37961 8.67247 3.51204 9.33825 3.76935 9.95944C4.02665 10.5806 4.40379 11.145 4.87922 11.6205C5.35466 12.0959 5.91908 12.4731 6.54027 12.7304C7.16146 12.9877 7.82724 13.1201 8.49961 13.1201C9.17198 13.1201 9.83776 12.9877 10.4589 12.7304C11.0801 12.4731 11.6446 12.0959 12.12 11.6205C12.5954 11.145 12.9726 10.5806 13.2299 9.95944C13.4872 9.33825 13.6196 8.67247 13.6196 8.0001C13.6196 6.64219 13.0802 5.3399 12.12 4.37971C11.1598 3.41952 9.85752 2.8801 8.49961 2.8801ZM3.97413 3.47461C5.17436 2.27438 6.80222 1.6001 8.49961 1.6001C10.197 1.6001 11.8249 2.27438 13.0251 3.47461C14.2253 4.67485 14.8996 6.30271 14.8996 8.0001C14.8996 8.84056 14.7341 9.67279 14.4124 10.4493C14.0908 11.2258 13.6194 11.9313 13.0251 12.5256C12.4308 13.1199 11.7253 13.5913 10.9488 13.9129C10.1723 14.2346 9.34007 14.4001 8.49961 14.4001C7.65915 14.4001 6.82692 14.2346 6.05044 13.9129C5.27395 13.5913 4.56842 13.1199 3.97413 12.5256C3.37983 11.9313 2.90841 11.2258 2.58678 10.4493C2.26515 9.67279 2.09961 8.84056 2.09961 8.0001C2.09961 6.30271 2.77389 4.67485 3.97413 3.47461ZM10.8722 6.26755C11.1221 6.51749 11.1221 6.92271 10.8722 7.17265L8.31216 9.73265C8.06222 9.98258 7.657 9.98258 7.40706 9.73265L6.12706 8.45265C5.87713 8.20271 5.87713 7.79749 6.12706 7.54755C6.377 7.29761 6.78222 7.29761 7.03216 7.54755L7.85961 8.375L9.96706 6.26755C10.217 6.01761 10.6222 6.01761 10.8722 6.26755Z" fill="#0A84FF"/>
</svg>
