<svg width="16" height="16" viewBox="0 0 16 16" fill="none" xmlns="http://www.w3.org/2000/svg">
<path fill-rule="evenodd" clip-rule="evenodd" d="M7.99961 2.8801C6.6417 2.8801 5.33941 3.41952 4.37922 4.37971C3.41904 5.3399 2.87961 6.64219 2.87961 8.0001C2.87961 8.67247 3.01204 9.33825 3.26935 9.95944C3.52665 10.5806 3.90379 11.145 4.37922 11.6205C4.85466 12.0959 5.41908 12.4731 6.04027 12.7304C6.66146 12.9877 7.32724 13.1201 7.99961 13.1201C8.67198 13.1201 9.33776 12.9877 9.95895 12.7304C10.5801 12.4731 11.1446 12.0959 11.62 11.6205C12.0954 11.145 12.4726 10.5806 12.7299 9.95944C12.9872 9.33825 13.1196 8.67247 13.1196 8.0001C13.1196 6.64219 12.5802 5.3399 11.62 4.37971C10.6598 3.41952 9.35752 2.8801 7.99961 2.8801ZM3.47413 3.47461C4.67436 2.27438 6.30222 1.6001 7.99961 1.6001C9.697 1.6001 11.3249 2.27438 12.5251 3.47461C13.7253 4.67485 14.3996 6.30271 14.3996 8.0001C14.3996 8.84056 14.2341 9.67279 13.9124 10.4493C13.5908 11.2258 13.1194 11.9313 12.5251 12.5256C11.9308 13.1199 11.2253 13.5913 10.4488 13.9129C9.6723 14.2346 8.84007 14.4001 7.99961 14.4001C7.15915 14.4001 6.32692 14.2346 5.55044 13.9129C4.77395 13.5913 4.06842 13.1199 3.47413 12.5256C2.87983 11.9313 2.40841 11.2258 2.08678 10.4493C1.76515 9.67279 1.59961 8.84056 1.59961 8.0001C1.59961 6.30271 2.27389 4.67485 3.47413 3.47461ZM10.3722 6.26755C10.6221 6.51749 10.6221 6.92271 10.3722 7.17265L7.81216 9.73265C7.56222 9.98258 7.157 9.98258 6.90706 9.73265L5.62706 8.45265C5.37713 8.20271 5.37713 7.79749 5.62706 7.54755C5.877 7.29761 6.28222 7.29761 6.53216 7.54755L7.35961 8.375L9.46706 6.26755C9.717 6.01761 10.1222 6.01761 10.3722 6.26755Z" fill="#FFD643"/>
</svg>
