<svg width="25" height="24" viewBox="0 0 25 24" fill="none" xmlns="http://www.w3.org/2000/svg">
<path d="M15.0998 19.1999C15.0998 20.4999 13.9998 21.5999 12.6998 21.5999C11.3998 21.5999 10.2998 20.4999 10.2998 19.1999C10.2998 17.8999 11.3998 16.7999 12.6998 16.7999C13.9998 16.7999 15.0998 17.8999 15.0998 19.1999ZM12.6998 9.5999C11.3998 9.5999 10.2998 10.6999 10.2998 11.9999C10.2998 13.2999 11.3998 14.3999 12.6998 14.3999C13.9998 14.3999 15.0998 13.2999 15.0998 11.9999C15.0998 10.6999 13.9998 9.5999 12.6998 9.5999ZM12.6998 2.3999C11.3998 2.3999 10.2998 3.4999 10.2998 4.7999C10.2998 6.0999 11.3998 7.1999 12.6998 7.1999C13.9998 7.1999 15.0998 6.0999 15.0998 4.7999C15.0998 3.4999 13.9998 2.3999 12.6998 2.3999Z" fill="#97999D"/>
</svg>
