<svg width="16" height="16" viewBox="0 0 16 16" fill="none" xmlns="http://www.w3.org/2000/svg">
<path fill-rule="evenodd" clip-rule="evenodd" d="M3.10647 8.02236C4.50741 10.3074 6.14411 11.3174 7.99961 11.3174C9.85511 11.3174 11.4918 10.3074 12.8927 8.02236C11.4918 5.73727 9.85511 4.72731 7.99961 4.72731C6.14411 4.72731 4.50741 5.73727 3.10647 8.02236ZM1.69146 7.67652C3.28802 4.88269 5.38384 3.33325 7.99961 3.33325C10.6154 3.33325 12.7112 4.88269 14.3078 7.67652C14.4302 7.89082 14.4302 8.1539 14.3078 8.3682C12.7112 11.162 10.6154 12.7115 7.99961 12.7115C5.38384 12.7115 3.28802 11.162 1.69146 8.3682C1.56899 8.1539 1.56899 7.89082 1.69146 7.67652ZM7.99961 7.5788C7.75464 7.5788 7.55605 7.77739 7.55605 8.02236C7.55605 8.26733 7.75464 8.46593 7.99961 8.46593C8.24458 8.46593 8.44317 8.26734 8.44317 8.02236C8.44317 7.77739 8.24458 7.5788 7.99961 7.5788ZM6.16199 8.02236C6.16199 7.00747 6.98472 6.18474 7.99961 6.18474C9.0145 6.18474 9.83723 7.00747 9.83723 8.02236C9.83723 9.03725 9.0145 9.85999 7.99961 9.85999C6.98472 9.85999 6.16199 9.03725 6.16199 8.02236Z" fill="#FF9F43"/>
</svg>
