<svg width="17" height="16" viewBox="0 0 17 16" fill="none" xmlns="http://www.w3.org/2000/svg">
<path fill-rule="evenodd" clip-rule="evenodd" d="M9.0836 2.99985C9.12042 2.99985 9.15027 2.97001 9.15027 2.93319C9.15027 2.89637 9.12042 2.86652 9.0836 2.86652C9.04678 2.86652 9.01694 2.89637 9.01694 2.93319C9.01694 2.97001 9.04678 2.99985 9.0836 2.99985ZM7.75027 2.93319C7.75027 2.19681 8.34722 1.59985 9.0836 1.59985C9.81998 1.59985 10.4169 2.19681 10.4169 2.93319C10.4169 3.66957 9.81998 4.26652 9.0836 4.26652C8.34722 4.26652 7.75027 3.66957 7.75027 2.93319Z" fill="#7367F0"/>
<path fill-rule="evenodd" clip-rule="evenodd" d="M7.6036 10.6065C7.91288 10.8385 7.97556 11.2772 7.7436 11.5865L5.8436 14.1199C5.61164 14.4291 5.17288 14.4918 4.8636 14.2599C4.55432 14.0279 4.49164 13.5891 4.7236 13.2799L6.6236 10.7465C6.85556 10.4372 7.29432 10.3746 7.6036 10.6065Z" fill="#7367F0"/>
<path fill-rule="evenodd" clip-rule="evenodd" d="M8.56535 4.77604C8.94669 4.8396 9.2043 5.20026 9.14075 5.5816L8.56663 9.02627L10.2119 10.6715C10.2651 10.7247 10.3094 10.7862 10.343 10.8535L11.6097 13.3868C11.7826 13.7326 11.6424 14.1531 11.2967 14.326C10.9509 14.4988 10.5304 14.3587 10.3575 14.0129L9.14164 11.5812L7.32196 9.7615C7.16211 9.60164 7.0893 9.37443 7.12646 9.15144L7.75979 5.35144C7.82335 4.9701 8.18401 4.71249 8.56535 4.77604Z" fill="#7367F0"/>
<path fill-rule="evenodd" clip-rule="evenodd" d="M8.28049 4.78742C8.51904 4.72779 8.77138 4.79768 8.94524 4.97155L10.7284 6.7547L12.4716 7.33578C12.8384 7.45803 13.0366 7.85445 12.9143 8.22121C12.7921 8.58797 12.3957 8.78619 12.0289 8.66393L10.1289 8.0306C10.0258 7.99623 9.93214 7.93834 9.85529 7.8615L8.23554 6.24175L6.34926 6.71332L5.2327 8.38814C5.01826 8.70981 4.58365 8.79674 4.26198 8.58229C3.94031 8.36784 3.85339 7.93323 4.06783 7.61156L5.3345 5.71156C5.43109 5.56667 5.57822 5.46299 5.74716 5.42075L8.28049 4.78742Z" fill="#7367F0"/>
</svg>
