<svg width="20" height="20" viewBox="0 0 20 20" fill="none" xmlns="http://www.w3.org/2000/svg">
<rect width="20" height="20" rx="10" fill="#17A2B8"/>
<path d="M13.9093 10.1628C14.3149 10.0252 14.5085 9.57362 14.3381 9.15562C14.1673 8.73362 13.6969 8.50362 13.2913 8.64162C12.8853 8.77962 12.6913 9.23082 12.8621 9.64922C13.0329 10.0672 13.5033 10.3012 13.9089 10.1632L13.9093 10.1628ZM8.73813 9.15722C8.90853 9.57522 8.71493 10.0268 8.30933 10.1648C7.90333 10.2984 7.43293 10.0688 7.26213 9.65042C7.09173 9.23242 7.28533 8.77682 7.69093 8.64282C8.09693 8.50482 8.56733 8.73482 8.73813 9.15722Z" fill="white"/>
<path d="M15.604 10.0503V9.80394H15.6052V9.00234C15.6052 8.98594 15.6072 8.97834 15.6076 8.97634C15.6144 8.96431 15.6224 8.95305 15.6316 8.94274C15.6448 8.92674 15.6604 8.91074 15.6868 8.88434L15.6944 8.87634C15.7992 8.77034 15.9968 8.57074 16 8.20954V8.19994C15.9997 7.98878 15.9158 7.78633 15.7666 7.63687C15.6174 7.4874 15.4152 7.40308 15.204 7.40234H11.596C11.552 7.40234 11.5092 7.40594 11.4668 7.41274C11.0986 7.45804 10.7575 7.62933 10.5012 7.89754C10.466 7.93114 10.4332 7.96394 10.4052 7.99194L10.4036 7.99354C10.312 8.08474 10.266 8.12794 10.2144 8.15754C10.1744 8.18034 10.1156 8.20394 10.0012 8.20394C9.8792 8.20394 9.82 8.17994 9.7824 8.15834C9.7324 8.13034 9.6876 8.08834 9.594 7.99394L9.592 7.99194C9.5612 7.96114 9.5252 7.92434 9.4852 7.88674C9.23229 7.62686 8.89887 7.46022 8.5392 7.41394C8.49455 7.40621 8.44932 7.40233 8.404 7.40234H4.796C4.352 7.40234 4 7.76634 4 8.20154V8.20234C4 8.56914 4.204 8.77194 4.3112 8.87834L4.3192 8.88634C4.3464 8.91314 4.3628 8.92954 4.3768 8.94554C4.38629 8.95622 4.39461 8.96789 4.4016 8.98034C4.40353 8.9886 4.40434 8.99707 4.404 9.00554V9.05634C4.40234 9.08898 4.40154 9.12166 4.4016 9.15434V10.0503C4.4016 11.4175 5.4296 12.5983 6.7748 12.5983H7.564C8.936 12.5983 10 11.3963 10 9.99034C10 11.3963 11.0616 12.5943 12.4348 12.5943H13.2248C14.564 12.5943 15.604 11.4251 15.604 10.0503ZM14.8012 10.0463C14.8012 11.0063 14.1072 11.8043 13.2212 11.8043H12.4308C11.5148 11.8043 10.8028 10.9823 10.8028 9.98634V9.15434C10.806 8.63034 11.1644 8.20234 11.648 8.20234H13.952C14.436 8.20234 14.8012 8.63034 14.8012 9.15434V10.0463ZM7.564 11.8039H6.7784C5.8932 11.8039 5.2012 11.0103 5.2012 10.0503V9.15434C5.2012 8.63034 5.5652 8.20234 6.048 8.20234H8.3532C8.8364 8.20234 9.2024 8.63034 9.2024 9.15434V9.99034C9.2024 10.9823 8.4824 11.8039 7.564 11.8039Z" fill="white"/>
</svg>
