<svg width="20" height="20" viewBox="0 0 20 20" fill="none" xmlns="http://www.w3.org/2000/svg">
<rect width="20" height="20" rx="10" fill="#F5B800"/>
<path fill-rule="evenodd" clip-rule="evenodd" d="M7.80385 10.0236C7.80385 9.72035 8.04966 9.47454 8.35289 9.47454H8.35838C8.6616 9.47454 8.90742 9.72035 8.90742 10.0236C8.90742 10.3268 8.6616 10.5726 8.35838 10.5726H8.35289C8.04966 10.5726 7.80385 10.3268 7.80385 10.0236ZM11.0981 10.0236C11.0981 9.72035 11.3439 9.47454 11.6471 9.47454H11.6526C11.9558 9.47454 12.2016 9.72035 12.2016 10.0236C12.2016 10.3268 11.9558 10.5726 11.6526 10.5726H11.6471C11.3439 10.5726 11.0981 10.3268 11.0981 10.0236ZM8.43113 11.9372C8.58714 11.6772 8.92439 11.5929 9.1844 11.7489C9.36314 11.8562 9.64734 11.9452 10 11.9452C10.3527 11.9452 10.6369 11.8562 10.8156 11.7489C11.0756 11.5929 11.4129 11.6772 11.5689 11.9372C11.7249 12.1973 11.6406 12.5345 11.3806 12.6905C11.0103 12.9127 10.5258 13.0433 10 13.0433C9.4742 13.0433 8.98974 12.9127 8.61945 12.6905C8.35944 12.5345 8.27512 12.1973 8.43113 11.9372Z" fill="white"/>
<path fill-rule="evenodd" clip-rule="evenodd" d="M9.99889 4.53321L10 4.5332C10.6451 4.5332 11.2424 4.71002 11.6934 5.03473C12.1471 5.36142 12.4707 5.85715 12.4707 6.45483C12.4707 7.40991 11.8356 8.37646 10.8236 8.37646C10.5203 8.37646 10.2074 8.30197 9.9523 8.13964C9.69379 7.97514 9.45096 7.68405 9.45096 7.27839C9.45096 6.97517 9.69677 6.72935 10 6.72935C10.282 6.72935 10.5143 6.9419 10.5455 7.21551C10.5937 7.24484 10.691 7.27839 10.8236 7.27839C11.0194 7.27839 11.3726 7.03706 11.3726 6.45483C11.3726 6.28387 11.2843 6.0933 11.0518 5.92586C10.8166 5.7565 10.4533 5.63138 10.0005 5.63128C8.98986 5.63345 8.01084 5.9841 7.2286 6.62412C6.44622 7.26425 5.90859 8.15465 5.70642 9.14512C5.6722 9.31276 5.56178 9.45486 5.40779 9.52944C5.31497 9.5744 5.23668 9.6446 5.1819 9.73199C5.12713 9.81938 5.09807 9.92044 5.09807 10.0236C5.09807 10.1267 5.12713 10.2278 5.1819 10.3152C5.23668 10.4026 5.31497 10.4728 5.40779 10.5177C5.56007 10.5915 5.66984 10.7313 5.70531 10.8967C5.916 11.8794 6.45729 12.7601 7.23886 13.3918C8.02044 14.0236 8.99502 14.3682 10 14.3682C11.005 14.3682 11.9796 14.0236 12.7611 13.3918C13.5427 12.7601 14.084 11.8794 14.2947 10.8967C14.3302 10.7313 14.4399 10.5915 14.5922 10.5177C14.685 10.4728 14.7633 10.4026 14.8181 10.3152C14.8729 10.2278 14.9019 10.1267 14.9019 10.0236C14.9019 9.92044 14.8729 9.81938 14.8181 9.73199C14.7633 9.6446 14.685 9.5744 14.5922 9.52944C14.4365 9.45403 14.3254 9.30963 14.2925 9.13978C14.1576 8.44374 13.8562 7.7907 13.4141 7.23645C13.225 6.99941 13.2638 6.65396 13.5009 6.46487C13.7379 6.27577 14.0834 6.31464 14.2725 6.55167C14.7736 7.17985 15.1301 7.90954 15.3179 8.68878C15.489 8.81247 15.6354 8.96843 15.7485 9.14881C15.9128 9.41099 16 9.71415 16 10.0236C16 10.333 15.9128 10.6362 15.7485 10.8983C15.6342 11.0806 15.4859 11.238 15.3124 11.3623C15.0167 12.4956 14.3656 13.5069 13.4514 14.2458C12.4745 15.0355 11.2562 15.4663 10 15.4663C8.74378 15.4663 7.52555 15.0355 6.54858 14.2458C5.63444 13.5069 4.98327 12.4956 4.68755 11.3623C4.51412 11.238 4.36575 11.0806 4.25149 10.8983C4.08716 10.6362 4 10.333 4 10.0236C4 9.71416 4.08716 9.41099 4.25149 9.14881C4.36516 8.96747 4.51257 8.8108 4.68482 8.6868C4.97149 7.5447 5.61856 6.52264 6.53326 5.77425C7.51124 4.97409 8.73529 4.53576 9.99889 4.53321Z" fill="white"/>
</svg>
