<svg width="16" height="16" viewBox="0 0 16 16" fill="none" xmlns="http://www.w3.org/2000/svg">
<path d="M4.23431 9.83429C4.54673 9.52187 5.05327 9.52187 5.36569 9.83429L7.2 11.6686V2.39998C7.2 1.95815 7.55817 1.59998 8 1.59998C8.44183 1.59998 8.8 1.95815 8.8 2.39998V11.6686L10.6343 9.83429C10.9467 9.52187 11.4533 9.52187 11.7657 9.83429C12.0781 10.1467 12.0781 10.6532 11.7657 10.9657L8.56569 14.1657C8.40948 14.3219 8.20474 14.4 8 14.4C7.89153 14.4 7.7881 14.3784 7.69377 14.3393C7.59942 14.3002 7.51102 14.2424 7.43431 14.1657L4.23431 10.9657C3.9219 10.6532 3.9219 10.1467 4.23431 9.83429Z" fill="#A8AAAE"/>
</svg>
