<svg width="16" height="16" viewBox="0 0 16 16" fill="none" xmlns="http://www.w3.org/2000/svg">
<path d="M6.26676 9.9333C6.46676 9.59997 6.86676 9.5333 7.2001 9.7333C7.6001 9.99997 8.4001 9.99997 8.8001 9.7333C9.13343 9.5333 9.53343 9.66663 9.73343 9.9333C9.93343 10.2666 9.8001 10.6666 9.53343 10.8666C9.13343 11.1333 8.6001 11.2666 8.06676 11.2666C7.53343 11.2666 7.0001 11.1333 6.6001 10.8666C6.2001 10.6666 6.06676 10.2666 6.26676 9.9333ZM6.93343 7.99997C6.93343 7.59997 6.66676 7.3333 6.26676 7.3333C5.86676 7.3333 5.6001 7.59997 5.6001 7.99997C5.6001 8.39997 5.93343 8.66663 6.26676 8.66663C6.6001 8.66663 6.93343 8.3333 6.93343 7.99997ZM10.4001 7.99997C10.4001 7.59997 10.1334 7.3333 9.73343 7.3333C9.33343 7.3333 9.06676 7.59997 9.06676 7.99997C9.06676 8.39997 9.4001 8.66663 9.73343 8.66663C10.0668 8.66663 10.4001 8.3333 10.4001 7.99997ZM14.1334 6.99997C14.0001 6.79997 13.8668 6.66663 13.6668 6.5333C13.4668 5.7333 13.0668 4.9333 12.5334 4.26663C12.2668 3.9333 11.8668 3.9333 11.5334 4.1333C11.2001 4.39997 11.2001 4.79997 11.4001 5.1333C11.8668 5.66663 12.1334 6.3333 12.2668 7.06663C12.3334 7.26663 12.4668 7.46663 12.6668 7.5333C12.7334 7.59997 12.8001 7.59997 12.8668 7.66663C12.9334 7.7333 12.9334 7.79997 12.9334 7.9333C12.9334 8.06663 12.9334 8.1333 12.8668 8.19997C12.8001 8.26663 12.7334 8.3333 12.6668 8.3333C12.4668 8.39997 12.3334 8.59997 12.2668 8.79997C12.0668 9.79997 11.4668 10.6666 10.7334 11.3333C9.93343 12 8.93343 12.3333 7.93343 12.3333C6.93343 12.3333 5.93343 12 5.13343 11.3333C4.33343 10.6666 3.8001 9.79997 3.6001 8.79997C3.53343 8.59997 3.4001 8.39997 3.2001 8.3333C3.13343 8.26663 3.06676 8.26663 3.0001 8.19997C2.93343 8.1333 2.93343 8.06663 2.93343 7.9333C2.93343 7.79997 2.93343 7.7333 3.0001 7.66663C3.06676 7.59997 3.13343 7.5333 3.2001 7.5333C3.4001 7.46663 3.53343 7.26663 3.6001 7.06663C3.8001 6.06663 4.33343 5.1333 5.13343 4.5333C5.93343 3.86663 6.93343 3.5333 7.93343 3.5333C8.73343 3.5333 9.26676 3.9333 9.26676 4.26663C9.26676 4.66663 9.0001 4.99997 8.8001 4.99997C8.73343 4.99997 8.66676 4.99997 8.6001 4.99997C8.53343 4.66663 8.26676 4.46663 7.93343 4.46663C7.53343 4.46663 7.26676 4.79997 7.26676 5.1333C7.26676 5.86663 7.93343 6.39997 8.8001 6.39997C9.86676 6.39997 10.6668 5.46663 10.6668 4.26663C10.6668 3.06663 9.53343 2.1333 7.93343 2.1333C6.6001 2.1333 5.26676 2.59997 4.2001 3.46663C3.33343 4.26663 2.66676 5.3333 2.33343 6.5333C2.13343 6.66663 2.0001 6.79997 1.86676 6.99997C1.66676 7.26663 1.6001 7.66663 1.6001 7.99997C1.6001 8.3333 1.66676 8.66663 1.86676 8.99997C2.0001 9.19997 2.13343 9.3333 2.33343 9.46663C2.66676 10.6666 3.33343 11.7333 4.33343 12.5333C5.4001 13.4 6.66676 13.8666 8.0001 13.8666C9.33343 13.8666 10.6668 13.4 11.6668 12.5333C12.6001 11.7333 13.3334 10.6666 13.6668 9.46663C13.8668 9.3333 14.0001 9.1333 14.1334 8.99997C14.3334 8.7333 14.4001 8.3333 14.4001 7.99997C14.4001 7.66663 14.3334 7.3333 14.1334 6.99997Z" fill="#97999D"/>
</svg>
