<svg width="16" height="16" viewBox="0 0 16 16" fill="none" xmlns="http://www.w3.org/2000/svg">
<path d="M14.0001 14.6C13.2001 14.6 12.6001 14 12.1334 13.4C11.7334 14 11.0667 14.6 10.0667 14.6C9.1334 14.6 8.5334 14.0667 8.1334 13.4667C7.7334 14.0667 7.1334 14.6 6.26673 14.6C5.40006 14.6 4.80007 14 4.40006 13.4C4.00006 14 3.3334 14.6 2.40007 14.6C2.06673 14.6 1.7334 14.3334 1.7334 13.9334C1.7334 13.6 2.00007 13.2667 2.40007 13.2667C3.1334 13.2667 3.7334 12.0667 3.80006 11.8C3.86673 11.5334 4.1334 11.4 4.40006 11.4C4.66673 11.4 4.9334 11.6 5.00007 11.8667C5.1334 12.3334 5.66673 13.3334 6.20007 13.3334C6.7334 13.3334 7.26673 12.3334 7.46673 11.8667C7.5334 11.6 7.80006 11.4667 8.06673 11.4667C8.3334 11.4667 8.60006 11.6667 8.66673 11.9334C8.66673 11.9334 9.1334 13.4 10.0001 13.4C10.9334 13.4 11.4001 12 11.4001 11.9334C11.4667 11.6667 11.6667 11.4667 11.9334 11.4667C12.2001 11.4667 12.4667 11.6 12.5334 11.8C12.8667 12.5334 13.5334 13.3334 13.8667 13.3334C14.2001 13.3334 14.5334 13.6 14.5334 14C14.6667 14.3334 14.4001 14.6 14.0001 14.6ZM11.2667 3.86672C11.5334 3.80005 11.8001 3.86672 12.0001 3.66672C12.3334 3.40005 12.7334 3.20005 13.0667 3.00005C11.8667 2.46672 10.7334 2.73338 10.6667 3.33338C10.6001 2.13338 9.66673 1.80005 8.80007 1.80005C8.3334 1.80005 7.86673 1.93338 7.60006 2.00005C7.60006 2.00005 9.60006 2.33338 9.80007 3.73338C8.26673 1.53338 6.60006 4.20005 6.60006 4.20005C6.9334 4.13338 7.9334 3.86672 8.60006 3.93338C9.06673 4.00005 9.5334 4.40005 9.46673 4.40005C8.80007 4.53338 7.86673 6.40005 7.3334 7.93338C5.60006 8.20005 4.26673 9.26672 3.80006 10.6667C4.00006 10.6 4.20006 10.5334 4.40006 10.5334C4.66673 10.5334 4.9334 10.6 5.1334 10.8C5.46673 10.1334 6.1334 9.60005 7.00006 9.33338C6.9334 9.66672 6.9334 9.86672 7.00006 9.93338C7.26673 10.2667 7.5334 10.1334 7.80007 10C7.80007 9.80005 7.86673 9.53338 7.9334 9.20005C8.00006 9.20005 8.06673 9.20005 8.1334 9.20005C9.5334 9.20005 10.7334 9.93338 11.1334 10.9334C11.3334 10.7334 11.6667 10.6 11.9334 10.6C12.0667 10.6 12.2001 10.6 12.3334 10.6667C11.8001 9.13338 10.1334 8.00005 8.1334 7.93338C8.60006 6.33338 9.26673 4.60005 10.0667 4.80005C10.2001 4.86672 10.2667 4.86672 10.2667 5.00005C10.2667 5.20005 10.1334 5.46672 10.2001 5.66672C10.2667 6.13338 10.3334 6.33338 10.4667 6.46672C10.8001 6.26672 11.1334 5.60005 11.2001 5.26672C11.4667 5.40005 11.9334 5.66672 12.3334 6.80005C12.5334 5.73338 12.2667 4.93338 11.2667 4.60005C11.6667 4.40005 13.4667 5.33338 13.6667 5.80005C14.0001 4.93338 12.5334 3.80005 11.2667 3.86672Z" fill="#97999D"/>
</svg>
