<svg width="16" height="16" viewBox="0 0 16 16" fill="none" xmlns="http://www.w3.org/2000/svg">
<path d="M14.307 7.60555C14.2412 7.47387 14.1753 7.34219 14.0436 7.21051C13.912 7.07884 13.7803 7.013 13.6486 6.94716C13.5169 6.88132 13.3194 6.88132 13.1877 6.88132H12.7927V6.09125H6.20881V7.8689C5.94546 7.8689 5.6821 7.93474 5.41875 8.06642C5.08955 8.19809 4.76036 8.46145 4.49701 8.72481C4.23365 8.98816 4.03613 9.31735 3.83862 9.64655C3.6411 9.97574 3.57526 10.3708 3.57526 10.7658H1.6001V11.2925C1.6001 11.6217 1.66594 11.9509 1.79761 12.2801C1.92929 12.6093 2.12681 12.8726 2.32432 13.0702C2.52184 13.2677 2.7852 13.4652 3.11439 13.5969C3.44358 13.7286 3.70694 13.7944 4.10197 13.7944H6.93304C7.06472 13.9261 7.1964 13.9919 7.39391 14.1236C7.65727 14.2553 7.98646 14.3211 8.31566 14.3211H10.7517C11.015 14.3211 11.2784 14.2553 11.5418 14.1894C11.8051 14.0577 12.0026 13.9261 12.2001 13.7286C12.3977 13.531 12.5293 13.3335 12.661 13.0702C12.7927 12.8068 12.7927 12.5435 12.7927 12.2801V12.0167V11.9509V11.8851H13.1877C13.3852 11.8851 13.5169 11.8851 13.6486 11.8192C13.7803 11.7534 13.912 11.6876 14.0436 11.5559C14.1753 11.4242 14.2412 11.2925 14.307 11.1608C14.3728 11.0292 14.3728 10.8316 14.3728 10.7V8.13226C14.4387 7.93474 14.3728 7.80306 14.307 7.60555ZM4.69452 9.97574C4.76036 9.71239 4.95788 9.51487 5.08955 9.38319C5.22123 9.25152 5.48459 9.054 5.74794 8.98816C5.87962 8.92232 6.0113 8.92232 6.14298 8.85648C6.14298 9.11984 6.14298 9.18568 6.14298 9.58071V9.64655V10.7658H4.56284C4.56284 10.5025 4.62868 10.2391 4.69452 9.97574ZM3.6411 12.6751C3.50942 12.6093 3.37775 12.5435 3.24607 12.4776C3.11439 12.4118 3.04855 12.2801 2.91687 12.1484C2.85104 12.0167 2.71936 11.8851 2.71936 11.7534H6.20881V11.8192V12.2143C6.20881 12.3459 6.20881 12.4776 6.27465 12.6093V12.741H4.10197C3.90446 12.741 3.77278 12.741 3.6411 12.6751ZM13.5828 10.5683C13.5828 10.7 13.5169 10.7658 13.4511 10.8316C13.3852 10.8975 13.2536 10.9633 13.1877 10.9633H12.7927V7.67138H13.1877C13.3194 7.67138 13.3852 7.73722 13.4511 7.80306C13.5169 7.8689 13.5828 8.00058 13.5828 8.06642V10.5683ZM10.0275 4.11609C10.0933 3.85273 10.2908 3.65522 10.4883 3.4577L11.0809 2.86515C11.2784 2.66764 11.3442 2.40428 11.3442 2.14093C11.3442 2.00925 11.4101 1.87757 11.4759 1.81173C11.5418 1.74589 11.6734 1.68005 11.8051 1.68005C11.9368 1.68005 12.0685 1.74589 12.1343 1.81173C12.2001 1.87757 12.266 2.00925 12.266 2.14093C12.266 2.40428 12.2001 2.66764 12.1343 2.86515C12.0685 3.12851 11.871 3.32602 11.6734 3.52354L11.1467 4.18193C11.015 4.37944 10.8834 4.6428 10.8834 4.90615C10.8834 5.03783 10.8175 5.16951 10.7517 5.23535C10.6859 5.30119 10.5542 5.36703 10.4225 5.36703C10.2908 5.36703 10.1591 5.30119 10.0933 5.23535C10.0275 5.16951 9.96163 5.03783 9.96163 4.90615C9.89579 4.6428 9.96163 4.37944 10.0275 4.11609ZM8.11814 5.23535C8.0523 5.16951 7.98646 5.03783 7.98646 4.90615C7.98646 4.6428 8.0523 4.37944 8.11814 4.18193C8.18398 3.91857 8.3815 3.72106 8.57901 3.52354L9.10572 2.86515C9.30324 2.66764 9.36908 2.40428 9.36908 2.14093C9.36908 2.00925 9.43492 1.87757 9.50076 1.81173C9.56659 1.74589 9.69827 1.68005 9.82995 1.68005C9.96163 1.68005 10.0933 1.74589 10.1591 1.81173C10.225 1.87757 10.2908 2.00925 10.2908 2.14093C10.2908 2.40428 10.225 2.66764 10.1591 2.86515C10.0933 3.12851 9.89579 3.32602 9.69827 3.52354L9.2374 4.18193C9.03988 4.37944 8.90821 4.6428 8.90821 4.90615C8.90821 5.03783 8.84237 5.16951 8.77653 5.23535C8.71069 5.30119 8.57901 5.36703 8.44733 5.36703C8.31566 5.36703 8.18398 5.36703 8.11814 5.23535Z" fill="#97999D"/>
</svg>
