<svg width="16" height="16" viewBox="0 0 16 16" fill="none" xmlns="http://www.w3.org/2000/svg">
<path fill-rule="evenodd" clip-rule="evenodd" d="M2.29961 1.59998C2.68621 1.59998 2.99961 1.91338 2.99961 2.29998V13H13.6996C14.0862 13 14.3996 13.3134 14.3996 13.7C14.3996 14.0866 14.0862 14.4 13.6996 14.4H2.29961C1.91301 14.4 1.59961 14.0866 1.59961 13.7V2.29998C1.59961 1.91338 1.91301 1.59998 2.29961 1.59998Z" fill="#A8AAAE"/>
<path fill-rule="evenodd" clip-rule="evenodd" d="M6.09961 5.53331C5.78665 5.53331 5.53294 5.78701 5.53294 6.09998C5.53294 6.41294 5.78665 6.66664 6.09961 6.66664C6.41257 6.66664 6.66628 6.41294 6.66628 6.09998C6.66628 5.78701 6.41257 5.53331 6.09961 5.53331ZM4.13294 6.09998C4.13294 5.01382 5.01345 4.13331 6.09961 4.13331C7.18577 4.13331 8.06628 5.01382 8.06628 6.09998C8.06628 7.18614 7.18577 8.06664 6.09961 8.06664C5.01345 8.06664 4.13294 7.18614 4.13294 6.09998Z" fill="#A8AAAE"/>
<path fill-rule="evenodd" clip-rule="evenodd" d="M12.4329 4.26664C12.12 4.26664 11.8663 4.52035 11.8663 4.83331C11.8663 5.14627 12.12 5.39998 12.4329 5.39998C12.7459 5.39998 12.9996 5.14627 12.9996 4.83331C12.9996 4.52035 12.7459 4.26664 12.4329 4.26664ZM10.4663 4.83331C10.4663 3.74715 11.3468 2.86664 12.4329 2.86664C13.5191 2.86664 14.3996 3.74715 14.3996 4.83331C14.3996 5.91947 13.5191 6.79998 12.4329 6.79998C11.3468 6.79998 10.4663 5.91947 10.4663 4.83331Z" fill="#A8AAAE"/>
<path fill-rule="evenodd" clip-rule="evenodd" d="M9.26628 9.33331C8.95331 9.33331 8.69961 9.58701 8.69961 9.89997C8.69961 10.2129 8.95331 10.4666 9.26628 10.4666C9.57924 10.4666 9.83294 10.2129 9.83294 9.89997C9.83294 9.58701 9.57924 9.33331 9.26628 9.33331ZM7.29961 9.89997C7.29961 8.81382 8.18012 7.93331 9.26628 7.93331C10.3524 7.93331 11.2329 8.81382 11.2329 9.89997C11.2329 10.9861 10.3524 11.8666 9.26628 11.8666C8.18012 11.8666 7.29961 10.9861 7.29961 9.89997Z" fill="#A8AAAE"/>
<path fill-rule="evenodd" clip-rule="evenodd" d="M6.39288 6.58277C6.69293 6.33898 7.13379 6.38459 7.37758 6.68463L8.85958 8.50863C9.10336 8.80868 9.05776 9.24954 8.75771 9.49333C8.45767 9.73712 8.0168 9.69151 7.77302 9.39146L6.29102 7.56746C6.04723 7.26742 6.09284 6.82656 6.39288 6.58277Z" fill="#A8AAAE"/>
<path fill-rule="evenodd" clip-rule="evenodd" d="M12.1204 5.34124C12.4492 5.54463 12.5508 5.97603 12.3474 6.3048L10.5506 9.20927C10.3473 9.53805 9.91586 9.63969 9.58709 9.43631C9.25831 9.23292 9.15666 8.80152 9.36005 8.47274L11.1568 5.56827C11.3602 5.2395 11.7916 5.13785 12.1204 5.34124Z" fill="#A8AAAE"/>
</svg>
