<svg width="16" height="16" viewBox="0 0 16 16" fill="none" xmlns="http://www.w3.org/2000/svg">
<path fill-rule="evenodd" clip-rule="evenodd" d="M7.42541 2.03984C8.8352 1.41118 10.419 1.38646 11.9044 2.42652C13.3895 3.46663 13.9078 4.96352 13.7992 6.50322C13.6934 8.00359 12.9996 9.54747 12.0823 10.8571C11.1651 12.167 9.95163 13.3472 8.57796 13.9599C7.1682 14.5887 5.58434 14.6136 4.09889 13.5735C2.61344 12.5334 2.09515 11.0366 2.20386 9.49673C2.3098 7.99629 3.00375 6.45229 3.92094 5.14239C4.83814 3.83246 6.05168 2.65241 7.42541 2.03984ZM8.01965 3.37245C6.96724 3.84174 5.94112 4.80111 5.11617 5.97928C4.29121 7.15748 3.7405 8.44994 3.65934 9.59949C3.58097 10.7096 3.93314 11.6763 4.93579 12.3783C5.93844 13.0804 6.96721 13.0807 7.98358 12.6273C9.03602 12.1579 10.0622 11.1984 10.8871 10.0202C11.712 8.84236 12.2626 7.55001 12.3437 6.40054C12.422 5.29041 12.0698 4.32375 11.0674 3.62171C10.0648 2.91967 9.03597 2.91925 8.01965 3.37245Z" fill="#97999D"/>
<path d="M10.7892 4.01913C9.94303 4.16856 7.55394 5.46181 7.50413 7.65165C7.45371 9.84089 5.81118 11.6571 5.21406 11.9803C6.30928 12.0058 8.44932 10.5376 8.49913 8.34778C8.54954 6.15855 10.1915 4.34229 10.7892 4.01913Z" fill="#97999D"/>
</svg>
