<svg width="16" height="16" viewBox="0 0 16 16" fill="none" xmlns="http://www.w3.org/2000/svg">
<path fill-rule="evenodd" clip-rule="evenodd" d="M4.64573 3.42857C4.64573 3.04829 4.954 2.74002 5.33428 2.74002H13.7111C14.0913 2.74002 14.3996 3.04829 14.3996 3.42857C14.3996 3.80884 14.0913 4.11711 13.7111 4.11711H5.33428C4.954 4.11711 4.64573 3.80884 4.64573 3.42857Z" fill="#7E8083"/>
<path fill-rule="evenodd" clip-rule="evenodd" d="M4.64573 7.99781C4.64573 7.61754 4.954 7.30927 5.33428 7.30927H13.7111C14.0913 7.30927 14.3996 7.61754 14.3996 7.99781C14.3996 8.37809 14.0913 8.68636 13.7111 8.68636H5.33428C4.954 8.68636 4.64573 8.37809 4.64573 7.99781Z" fill="#7E8083"/>
<path fill-rule="evenodd" clip-rule="evenodd" d="M4.64573 12.567C4.64573 12.1867 4.954 11.8784 5.33428 11.8784H13.7111C14.0913 11.8784 14.3996 12.1867 14.3996 12.567C14.3996 12.9473 14.0913 13.2555 13.7111 13.2555H5.33428C4.954 13.2555 4.64573 12.9473 4.64573 12.567Z" fill="#7E8083"/>
<path fill-rule="evenodd" clip-rule="evenodd" d="M2.28816 2.73999C2.66843 2.73999 2.9767 3.04826 2.9767 3.42854V3.43615C2.9767 3.81643 2.66843 4.1247 2.28816 4.1247C1.90788 4.1247 1.59961 3.81643 1.59961 3.43615V3.42854C1.59961 3.04826 1.90788 2.73999 2.28816 2.73999Z" fill="#7E8083"/>
<path fill-rule="evenodd" clip-rule="evenodd" d="M2.28816 7.30917C2.66843 7.30917 2.9767 7.61744 2.9767 7.99771V8.00533C2.9767 8.3856 2.66843 8.69388 2.28816 8.69388C1.90788 8.69388 1.59961 8.3856 1.59961 8.00533V7.99771C1.59961 7.61744 1.90788 7.30917 2.28816 7.30917Z" fill="#7E8083"/>
<path fill-rule="evenodd" clip-rule="evenodd" d="M2.28816 11.8783C2.66843 11.8783 2.9767 12.1866 2.9767 12.5669V12.5745C2.9767 12.9548 2.66843 13.2631 2.28816 13.2631C1.90788 13.2631 1.59961 12.9548 1.59961 12.5745V12.5669C1.59961 12.1866 1.90788 11.8783 2.28816 11.8783Z" fill="#7E8083"/>
</svg>
