<svg width="24" height="24" viewBox="0 0 24 24" fill="none" xmlns="http://www.w3.org/2000/svg">
<path d="M14.4001 19.1999C14.4001 20.4999 13.3001 21.5999 12.0001 21.5999C10.7001 21.5999 9.6001 20.4999 9.6001 19.1999C9.6001 17.8999 10.7001 16.7999 12.0001 16.7999C13.3001 16.7999 14.4001 17.8999 14.4001 19.1999ZM12.0001 9.5999C10.7001 9.5999 9.6001 10.6999 9.6001 11.9999C9.6001 13.2999 10.7001 14.3999 12.0001 14.3999C13.3001 14.3999 14.4001 13.2999 14.4001 11.9999C14.4001 10.6999 13.3001 9.5999 12.0001 9.5999ZM12.0001 2.3999C10.7001 2.3999 9.6001 3.4999 9.6001 4.7999C9.6001 6.0999 10.7001 7.1999 12.0001 7.1999C13.3001 7.1999 14.4001 6.0999 14.4001 4.7999C14.4001 3.4999 13.3001 2.3999 12.0001 2.3999Z" fill="#97999D"/>
</svg>
