<svg width="16" height="16" viewBox="0 0 16 16" fill="none" xmlns="http://www.w3.org/2000/svg">
<path fill-rule="evenodd" clip-rule="evenodd" d="M5.87128 2.30506C5.87128 1.91565 6.18696 1.59998 6.57637 1.59998H13.695C14.0844 1.59998 14.4001 1.91565 14.4001 2.30506V11.5593C14.4001 13.1282 13.1283 14.4 11.5594 14.4C9.99056 14.4 8.71874 13.1282 8.71874 11.5593C8.71874 9.99043 9.99056 8.71862 11.5594 8.71862C12.081 8.71862 12.5698 8.85921 12.9899 9.10456V5.8576H7.28145V11.5593C7.28145 13.1282 6.00964 14.4 4.44078 14.4C2.87191 14.4 1.6001 13.1282 1.6001 11.5593C1.6001 9.99043 2.87191 8.71862 4.44078 8.71862C4.96239 8.71862 5.45117 8.85921 5.87128 9.10456V2.30506ZM7.28145 4.44743H12.9899V3.01015H7.28145V4.44743ZM11.5594 10.1288C12.3495 10.1288 12.9899 10.7692 12.9899 11.5593C12.9899 12.3493 12.3495 12.9898 11.5594 12.9898C10.7694 12.9898 10.1289 12.3493 10.1289 11.5593C10.1289 10.7692 10.7694 10.1288 11.5594 10.1288ZM4.44078 10.1288C5.23082 10.1288 5.87128 10.7692 5.87128 11.5593C5.87128 12.3493 5.23082 12.9898 4.44078 12.9898C3.65073 12.9898 3.01027 12.3493 3.01027 11.5593C3.01027 10.7692 3.65073 10.1288 4.44078 10.1288Z" fill="#97999D"/>
</svg>
