<svg width="16" height="16" viewBox="0 0 16 16" fill="none" xmlns="http://www.w3.org/2000/svg">
<path d="M12.4188 6.15255L11.1748 1.92798C11.1469 1.83333 11.0891 1.75024 11.0102 1.69112C10.9312 1.632 10.8352 1.60003 10.7365 1.59998H5.26334C5.16467 1.60003 5.06867 1.632 4.98967 1.69112C4.91068 1.75024 4.85293 1.83333 4.82506 1.92798L3.58106 6.15255C3.38588 6.80006 3.37566 7.48926 3.55157 8.14227C3.72747 8.79529 4.08247 9.3861 4.57648 9.84798C5.38916 10.61 6.43326 11.0784 7.54277 11.1788V13.4857H5.7142C5.59296 13.4857 5.47668 13.5339 5.39095 13.6196C5.30522 13.7053 5.25706 13.8216 5.25706 13.9428C5.25706 14.0641 5.30522 14.1804 5.39095 14.2661C5.47668 14.3518 5.59296 14.4 5.7142 14.4H10.2856C10.4069 14.4 10.5231 14.3518 10.6089 14.2661C10.6946 14.1804 10.7428 14.0641 10.7428 13.9428C10.7428 13.8216 10.6946 13.7053 10.6089 13.6196C10.5231 13.5339 10.4069 13.4857 10.2856 13.4857H8.45706V11.1788C9.56659 11.0785 10.6107 10.6101 11.4233 9.84798C11.9172 9.38603 12.2722 8.79521 12.4481 8.14222C12.624 7.48923 12.6138 6.80007 12.4188 6.15255ZM5.60506 2.51426H10.3948L11.5428 6.41083C11.5479 6.42798 11.5525 6.44512 11.5571 6.46226C10.3331 6.90112 8.95477 6.37083 8.20677 5.99198C6.76734 5.2634 5.62448 5.17083 4.78163 5.31026L5.60506 2.51426Z" fill="#97999D"/>
</svg>
