<svg width="16" height="16" viewBox="0 0 16 16" fill="none" xmlns="http://www.w3.org/2000/svg">
<path d="M12.0002 2.86664H11.2669V2.33331C11.2669 1.93331 10.9335 1.59998 10.5335 1.59998C10.1335 1.59998 9.80019 1.93331 9.80019 2.33331V2.86664H6.2002V2.33331C6.2002 1.93331 5.86686 1.59998 5.46686 1.59998C5.06686 1.59998 4.73353 1.93331 4.73353 2.33331V2.86664H4.0002C3.06686 2.86664 2.2002 3.66664 2.2002 4.66664V12.6C2.2002 13.6 3.0002 14.4 4.0002 14.4H12.0002C13.0002 14.4 13.8002 13.6 13.8002 12.6V4.66664C13.8002 3.66664 12.9335 2.86664 12.0002 2.86664ZM4.0002 4.26664H4.73353V4.79998C4.73353 5.19998 5.06686 5.53331 5.46686 5.53331C5.86686 5.53331 6.2002 5.19998 6.2002 4.79998V4.26664H9.86686V4.79998C9.86686 5.19998 10.2002 5.53331 10.6002 5.53331C11.0002 5.53331 11.3335 5.19998 11.3335 4.79998V4.26664H12.0002C12.2002 4.26664 12.4002 4.46664 12.4002 4.66664V6.66664H3.66686V4.66664C3.66686 4.46664 3.8002 4.26664 4.0002 4.26664ZM12.0002 13H4.0002C3.8002 13 3.6002 12.8 3.6002 12.6V8.06664H12.3335V12.6C12.3335 12.8 12.2002 13 12.0002 13ZM4.73353 9.86664C4.73353 9.46664 5.06686 9.13331 5.46686 9.13331H6.73353C7.13353 9.13331 7.46686 9.46664 7.46686 9.86664V11.1333C7.46686 11.5333 7.13353 11.8666 6.73353 11.8666H5.46686C5.06686 11.8666 4.73353 11.5333 4.73353 11.1333V9.86664Z" fill="#7367F0"/>
</svg>
