<svg width="13" height="13" viewBox="0 0 13 13" fill="none" xmlns="http://www.w3.org/2000/svg">
<path fill-rule="evenodd" clip-rule="evenodd" d="M6.4998 2.34005C5.3965 2.34005 4.33839 2.77833 3.55824 3.55848C2.77809 4.33864 2.3398 5.39675 2.3398 6.50005C2.3398 7.04635 2.44741 7.5873 2.65647 8.09201C2.86553 8.59673 3.17195 9.05532 3.55824 9.44161C3.94453 9.8279 4.40313 10.1343 4.90784 10.3434C5.41256 10.5524 5.95351 10.66 6.4998 10.66C7.0461 10.66 7.58705 10.5524 8.09177 10.3434C8.59648 10.1343 9.05508 9.8279 9.44137 9.44161C9.82766 9.05532 10.1341 8.59673 10.3431 8.09201C10.5522 7.5873 10.6598 7.04635 10.6598 6.50005C10.6598 5.39675 10.2215 4.33864 9.44137 3.55848C8.66122 2.77833 7.60311 2.34005 6.4998 2.34005ZM2.82285 2.82309C3.79804 1.8479 5.12068 1.30005 6.4998 1.30005C7.87893 1.30005 9.20157 1.8479 10.1768 2.82309C11.1519 3.79828 11.6998 5.12092 11.6998 6.50005C11.6998 7.18292 11.5653 7.85911 11.304 8.49C11.0427 9.1209 10.6596 9.69414 10.1768 10.177C9.6939 10.6599 9.12065 11.0429 8.48976 11.3042C7.85887 11.5655 7.18268 11.7 6.4998 11.7C5.81693 11.7 5.14074 11.5655 4.50985 11.3042C3.87896 11.0429 3.30571 10.6599 2.82285 10.177C2.33998 9.69414 1.95696 9.1209 1.69563 8.49C1.43431 7.85911 1.2998 7.18292 1.2998 6.50005C1.2998 5.12092 1.84766 3.79828 2.82285 2.82309ZM8.4275 5.09235C8.63057 5.29543 8.63057 5.62467 8.4275 5.82774L6.3475 7.90774C6.14443 8.11082 5.81518 8.11082 5.61211 7.90774L4.57211 6.86774C4.36904 6.66467 4.36904 6.33543 4.57211 6.13235C4.77518 5.92928 5.10443 5.92928 5.3075 6.13235L5.9798 6.80466L7.69211 5.09235C7.89518 4.88928 8.22443 4.88928 8.4275 5.09235Z" fill="#2D3645"/>
</svg>
