<svg width="28" height="28" viewBox="0 0 28 28" fill="none" xmlns="http://www.w3.org/2000/svg">
<path d="M16.8002 22.4001C16.8002 23.9167 15.5169 25.2001 14.0002 25.2001C12.4835 25.2001 11.2002 23.9167 11.2002 22.4001C11.2002 20.8834 12.4835 19.6 14.0002 19.6C15.5169 19.6 16.8002 20.8834 16.8002 22.4001ZM14.0002 11.2C12.4835 11.2 11.2002 12.4834 11.2002 14.0001C11.2002 15.5167 12.4835 16.8 14.0002 16.8C15.5169 16.8 16.8002 15.5167 16.8002 14.0001C16.8002 12.4834 15.5169 11.2 14.0002 11.2ZM14.0002 2.80005C12.4835 2.80005 11.2002 4.08338 11.2002 5.60005C11.2002 7.11672 12.4835 8.40005 14.0002 8.40005C15.5169 8.40005 16.8002 7.11672 16.8002 5.60005C16.8002 4.08338 15.5169 2.80005 14.0002 2.80005Z" fill="#7367F0"/>
</svg>
