<svg width="13" height="13" viewBox="0 0 13 13" fill="none" xmlns="http://www.w3.org/2000/svg">
<path d="M6.5001 1.30005C4.46344 1.30005 2.77344 2.86005 2.77344 4.76672V4.85338C2.77344 5.50338 2.94677 6.11005 3.29344 6.63005L6.5001 11.7L9.70677 6.63005C10.0534 6.06672 10.2268 5.46005 10.2268 4.85338V4.76672C10.2268 2.86005 8.53677 1.30005 6.5001 1.30005ZM6.5001 5.80672C5.67677 5.80672 5.02677 5.20005 5.02677 4.42005C5.02677 3.64005 5.67677 3.03338 6.5001 3.03338C7.32344 3.03338 7.97344 3.64005 7.97344 4.42005C7.97344 5.20005 7.32344 5.80672 6.5001 5.80672Z" fill="black"/>
</svg>
