<svg width="24" height="24" viewBox="0 0 24 24" fill="none" xmlns="http://www.w3.org/2000/svg">
<path d="M23.5 12C23.5 18.3513 18.3513 23.5 12 23.5C5.64873 23.5 0.5 18.3513 0.5 12C0.5 5.64873 5.64873 0.5 12 0.5C18.3513 0.5 23.5 5.64873 23.5 12Z" fill="white" fill-opacity="0.2" stroke="url(#paint0_linear_2121_20346)"/>
<path d="M21.5 12C21.5 17.2467 17.2467 21.5 12 21.5C6.75329 21.5 2.5 17.2467 2.5 12C2.5 6.75329 6.75329 2.5 12 2.5C17.2467 2.5 21.5 6.75329 21.5 12Z" fill="url(#paint1_diamond_2121_20346)" stroke="url(#paint2_linear_2121_20346)"/>
<path d="M16.5 12C16.5 14.4853 14.4853 16.5 12 16.5C9.51472 16.5 7.5 14.4853 7.5 12C7.5 9.51472 9.51472 7.5 12 7.5C14.4853 7.5 16.5 9.51472 16.5 12Z" fill="url(#paint3_diamond_2121_20346)" stroke="url(#paint4_linear_2121_20346)"/>
<defs>
<linearGradient id="paint0_linear_2121_20346" x1="3.52941" y1="2.47059" x2="21.75" y2="24" gradientUnits="userSpaceOnUse">
<stop offset="0.0968749" stop-color="white" stop-opacity="0"/>
<stop offset="0.570833" stop-color="white" stop-opacity="0.484429"/>
<stop offset="1" stop-color="white" stop-opacity="0.73"/>
</linearGradient>
<radialGradient id="paint1_diamond_2121_20346" cx="0" cy="0" r="1" gradientUnits="userSpaceOnUse" gradientTransform="translate(3.471 5.26291) rotate(42.0912) scale(24.9691 71.7667)">
<stop stop-color="#E32900"/>
<stop offset="0.472959" stop-color="#C6E216"/>
<stop offset="1" stop-color="#D808FA"/>
</radialGradient>
<linearGradient id="paint2_linear_2121_20346" x1="-0.5" y1="0.125" x2="20.125" y2="22" gradientUnits="userSpaceOnUse">
<stop offset="0.0968749" stop-color="white" stop-opacity="0"/>
<stop offset="0.570833" stop-color="white" stop-opacity="0.484429"/>
<stop offset="1" stop-color="white" stop-opacity="0.73"/>
</linearGradient>
<radialGradient id="paint3_diamond_2121_20346" cx="0" cy="0" r="1" gradientUnits="userSpaceOnUse" gradientTransform="translate(7.7355 8.63146) rotate(42.0912) scale(12.4845 35.8833)">
<stop stop-color="#E32900"/>
<stop offset="0.472959" stop-color="#C6E216"/>
<stop offset="1" stop-color="#D808FA"/>
</radialGradient>
<linearGradient id="paint4_linear_2121_20346" x1="5.75" y1="6.0625" x2="16.0625" y2="17" gradientUnits="userSpaceOnUse">
<stop offset="0.0968749" stop-color="white" stop-opacity="0"/>
<stop offset="0.570833" stop-color="white" stop-opacity="0.484429"/>
<stop offset="1" stop-color="white" stop-opacity="0.73"/>
</linearGradient>
</defs>
</svg>
