<svg width="16" height="16" viewBox="0 0 16 16" fill="none" xmlns="http://www.w3.org/2000/svg">
<path fill-rule="evenodd" clip-rule="evenodd" d="M4.025 3.4C3.67982 3.4 3.4 3.67982 3.4 4.025V5.35C3.4 5.7366 3.0866 6.05 2.7 6.05C2.3134 6.05 2 5.7366 2 5.35V4.025C2 2.90662 2.90662 2 4.025 2H5.35C5.7366 2 6.05 2.3134 6.05 2.7C6.05 3.0866 5.7366 3.4 5.35 3.4H4.025Z" fill="#A8AAAE"/>
<path fill-rule="evenodd" clip-rule="evenodd" d="M2.7 9.95C3.0866 9.95 3.4 10.2634 3.4 10.65V11.975C3.4 12.3202 3.67982 12.6 4.025 12.6H5.35C5.7366 12.6 6.05 12.9134 6.05 13.3C6.05 13.6866 5.7366 14 5.35 14H4.025C2.90662 14 2 13.0934 2 11.975V10.65C2 10.2634 2.3134 9.95 2.7 9.95Z" fill="#A8AAAE"/>
<path fill-rule="evenodd" clip-rule="evenodd" d="M9.95 2.7C9.95 2.3134 10.2634 2 10.65 2H11.975C13.0934 2 14 2.90662 14 4.025V5.35C14 5.7366 13.6866 6.05 13.3 6.05C12.9134 6.05 12.6 5.7366 12.6 5.35V4.025C12.6 3.67982 12.3202 3.4 11.975 3.4H10.65C10.2634 3.4 9.95 3.0866 9.95 2.7Z" fill="#A8AAAE"/>
<path fill-rule="evenodd" clip-rule="evenodd" d="M13.3 9.95C13.6866 9.95 14 10.2634 14 10.65V11.975C14 13.0934 13.0934 14 11.975 14H10.65C10.2634 14 9.95 13.6866 9.95 13.3C9.95 12.9134 10.2634 12.6 10.65 12.6H11.975C12.3202 12.6 12.6 12.3202 12.6 11.975V10.65C12.6 10.2634 12.9134 9.95 13.3 9.95Z" fill="#A8AAAE"/>
</svg>
