<svg width="13" height="13" viewBox="0 0 13 13" fill="currentColor" xmlns="http://www.w3.org/2000/svg">
<path fill-rule="evenodd" clip-rule="evenodd" d="M6.62205 10.5337C6.47654 10.4535 6.3026 10.4534 6.15702 10.5335L3.71608 11.8761C3.34985 12.0775 2.92181 11.7522 2.99176 11.3255L3.45807 8.48181C3.48587 8.31227 3.43208 8.13929 3.31425 8.0193L1.33709 6.00594C1.04043 5.70385 1.20397 5.17701 1.61369 5.11489L4.34127 4.70135C4.50394 4.67669 4.64458 4.56984 4.71732 4.41564L5.9379 1.82834C6.12101 1.44019 6.65009 1.44019 6.8332 1.82834L8.05377 4.41564C8.12652 4.56984 8.26716 4.67669 8.42983 4.70135L11.1574 5.11489C11.5671 5.17701 11.7307 5.70385 11.434 6.00594L9.45684 8.0193C9.33902 8.13929 9.28523 8.31227 9.31303 8.48181L9.77913 11.3243C9.84912 11.7512 9.42064 12.0765 9.05439 11.8746L6.62205 10.5337Z" fill="currentColor"/>
</svg>
