<svg width="13" height="13" viewBox="0 0 13 13" fill="none" xmlns="http://www.w3.org/2000/svg">
<path d="M6.4998 2.43755C4.27897 2.43755 2.4373 4.27922 2.4373 6.50005C2.4373 8.72088 4.27897 10.5625 6.4998 10.5625C8.72064 10.5625 10.5623 8.72088 10.5623 6.50005C10.5623 4.27922 8.72064 2.43755 6.4998 2.43755ZM1.2998 6.50005C1.2998 3.62922 3.62897 1.30005 6.4998 1.30005C9.37064 1.30005 11.6998 3.62922 11.6998 6.50005C11.6998 9.37088 9.37064 11.7 6.4998 11.7C3.62897 11.7 1.2998 9.37088 1.2998 6.50005ZM6.4998 3.35838C6.82481 3.35838 7.09564 3.62922 7.09564 3.95422V6.28338L8.44981 7.63755C8.66647 7.85422 8.66647 8.23338 8.44981 8.45005C8.23314 8.66672 7.85397 8.66672 7.63731 8.45005L6.12064 6.93338C6.0123 6.82505 5.95814 6.66255 5.95814 6.55422V3.95422C5.90397 3.62922 6.17481 3.35838 6.4998 3.35838Z" fill="#2D3645"/>
</svg>
