<svg width="13" height="13" viewBox="0 0 13 13" fill="none" xmlns="http://www.w3.org/2000/svg">
<path fill-rule="evenodd" clip-rule="evenodd" d="M7.01464 2.43743C7.04456 2.43743 7.06881 2.41318 7.06881 2.38326C7.06881 2.35334 7.04456 2.32909 7.01464 2.32909C6.98473 2.32909 6.96048 2.35334 6.96048 2.38326C6.96048 2.41318 6.98473 2.43743 7.01464 2.43743ZM5.93131 2.38326C5.93131 1.78495 6.41633 1.29993 7.01464 1.29993C7.61295 1.29993 8.09798 1.78495 8.09798 2.38326C8.09798 2.98157 7.61295 3.46659 7.01464 3.46659C6.41633 3.46659 5.93131 2.98157 5.93131 2.38326Z" fill="#2D3645"/>
<path fill-rule="evenodd" clip-rule="evenodd" d="M5.81214 8.61784C6.06343 8.80631 6.11436 9.1628 5.92589 9.41409L4.38214 11.4724C4.19368 11.7237 3.83718 11.7746 3.58589 11.5862C3.3346 11.3977 3.28368 11.0412 3.47214 10.7899L5.01589 8.73159C5.20436 8.4803 5.56085 8.42938 5.81214 8.61784Z" fill="#2D3645"/>
<path fill-rule="evenodd" clip-rule="evenodd" d="M6.59356 3.88058C6.9034 3.93222 7.11271 4.22526 7.06107 4.5351L6.59461 7.33389L7.93139 8.67068C7.97462 8.7139 8.01059 8.76381 8.03793 8.81849L9.0671 10.8768C9.20757 11.1578 9.0937 11.4994 8.81275 11.6399C8.5318 11.7804 8.19016 11.6665 8.04969 11.3855L7.0618 9.40975L5.58331 7.93126C5.45343 7.80138 5.39427 7.61677 5.42447 7.43559L5.93905 4.34809C5.99069 4.03825 6.28372 3.82894 6.59356 3.88058Z" fill="#2D3645"/>
<path fill-rule="evenodd" clip-rule="evenodd" d="M6.36212 3.88983C6.55593 3.84137 6.76096 3.89816 6.90223 4.03943L8.35104 5.48824L9.76741 5.96036C10.0654 6.05969 10.2265 6.38179 10.1271 6.67978C10.0278 6.97777 9.7057 7.13882 9.40771 7.03949L7.86396 6.52491C7.78019 6.49699 7.70408 6.44995 7.64164 6.38751L6.3256 5.07146L4.79299 5.45462L3.88579 6.81541C3.71155 7.07677 3.35843 7.14739 3.09707 6.97316C2.83572 6.79892 2.76509 6.4458 2.93933 6.18444L3.9685 4.64069C4.04698 4.52297 4.16652 4.43872 4.30378 4.40441L6.36212 3.88983Z" fill="#2D3645"/>
</svg>
