<svg width="28" height="28" viewBox="0 0 28 28" fill="none" xmlns="http://www.w3.org/2000/svg">
<path d="M22.0824 17.2167C21.6137 16.8651 21.1449 16.6307 20.559 16.2792C20.4418 13.2324 19.6215 9.95126 16.8091 8.31069C18.3325 6.08419 16.6919 2.92022 13.9967 2.80304C11.3015 2.68586 9.42653 5.96701 10.9499 8.31069C8.1375 9.83408 7.31722 13.3496 7.20003 16.3964C6.7313 16.6307 6.14538 16.9823 5.79382 17.3338C3.8017 18.8572 4.97354 21.904 7.31722 22.2556H10.1296C11.4187 26.2398 16.6919 26.1226 18.0981 22.2556C19.1528 22.2556 20.4418 22.4899 21.3793 22.1384C23.3714 21.4353 23.9573 18.5057 22.0824 17.2167ZM13.9967 23.3102C13.1764 23.3102 12.5905 22.8415 12.2389 22.2556H15.7545C15.4029 22.8415 14.6998 23.3102 13.9967 23.3102ZM13.9967 5.14672C15.5201 5.14672 15.5201 7.4904 13.9967 7.4904C12.4733 7.4904 12.4733 5.14672 13.9967 5.14672ZM20.7934 19.5603C20.559 20.0291 19.3872 19.7947 19.0356 19.7947C17.5122 19.7947 15.9888 19.7947 14.4654 19.7947C12.1218 19.7947 9.77808 19.7947 7.4344 19.7947C7.31722 19.7947 7.20003 19.6775 7.08285 19.5603C7.08285 18.8572 9.07498 18.037 9.66089 17.6854C9.54371 14.873 10.0124 10.0684 13.7623 9.83408C17.7466 9.59971 18.3325 14.7558 18.3325 17.5682C18.6841 17.9198 21.0277 18.9744 20.7934 19.5603Z" fill="#A8AAAE"/>
</svg>
