<svg width="28" height="28" viewBox="0 0 28 28" fill="none" xmlns="http://www.w3.org/2000/svg">
<path d="M25.0812 4.77808C24.8479 3.96141 24.2645 3.37808 23.4479 3.14474C23.3312 3.14474 23.2145 3.02808 23.0979 3.02808H5.01452C4.89785 3.02808 4.89785 3.02808 4.78118 3.02808C4.66452 3.02808 4.66452 3.02808 4.54785 3.14474C3.73119 3.37808 3.14785 3.96141 2.91452 4.77808C2.68118 5.47808 2.79785 6.29474 3.26452 6.99474L3.38118 7.11141L10.0312 14.4614V19.5947C10.0312 19.9447 10.2645 20.2947 10.4979 20.5281L16.0979 24.7281C16.4479 24.9614 16.9145 25.0781 17.3812 24.8447C17.8479 24.6114 18.0812 24.2614 18.0812 23.7947V14.5781L24.7312 7.22808L24.8479 7.11141C25.1979 6.29474 25.3145 5.47808 25.0812 4.77808ZM15.8645 13.1781C15.6312 13.4114 15.5145 13.6447 15.5145 13.9947V21.2281L12.3645 18.8947V13.9947C12.3645 13.6447 12.2479 13.4114 12.0145 13.1781L5.24785 5.59474V5.47808H22.7479V5.59474L15.8645 13.1781Z" fill="black"/>
</svg>
