<svg width="16" height="16" viewBox="0 0 16 16" fill="none" xmlns="http://www.w3.org/2000/svg">
<path fill-rule="evenodd" clip-rule="evenodd" d="M11.0804 12.0833C10.0842 12.8642 8.82898 13.3298 7.46503 13.3298C4.22592 13.3298 1.6001 10.704 1.6001 7.4649C1.6001 4.22579 4.22592 1.59998 7.46503 1.59998C10.7041 1.59998 13.33 4.22579 13.33 7.4649C13.33 8.82886 12.8643 10.0841 12.0834 11.0803L14.1924 13.1892C14.4693 13.4662 14.4693 13.9153 14.1924 14.1923C13.9154 14.4692 13.4663 14.4692 13.1893 14.1923L11.0804 12.0833ZM11.9115 7.4649C11.9115 9.9206 9.92072 11.9113 7.46503 11.9113C5.00933 11.9113 3.01859 9.9206 3.01859 7.4649C3.01859 5.00921 5.00933 3.01847 7.46503 3.01847C9.92072 3.01847 11.9115 5.00921 11.9115 7.4649Z" fill="black" fill-opacity="0.24"/>
</svg>
