<svg width="17" height="16" viewBox="0 0 17 16" fill="none" xmlns="http://www.w3.org/2000/svg">
<path d="M14.6996 11.6334C14.7663 11.5668 14.8329 11.5001 14.8329 11.4334C14.8996 11.3668 14.8996 11.2334 14.8996 11.1668V6.76676C14.8996 6.36676 14.5663 6.03343 14.1663 6.03343C13.7663 6.03343 13.4329 6.36676 13.4329 6.76676V9.5001L9.56628 5.63343C9.43294 5.5001 9.23294 5.43343 9.09961 5.43343C8.89961 5.43343 8.76628 5.5001 8.63294 5.63343L6.63294 7.63343L3.29961 4.3001C3.03294 4.03343 2.56628 4.03343 2.29961 4.3001C2.03294 4.56676 2.03294 5.03343 2.29961 5.3001L6.09961 9.1001C6.23294 9.23343 6.43294 9.3001 6.63294 9.3001C6.83294 9.3001 6.96628 9.23343 7.09961 9.1001L9.09961 7.1001L12.4329 10.4334H9.69961C9.29961 10.4334 8.96628 10.7668 8.96628 11.1668C8.96628 11.5668 9.29961 11.9001 9.69961 11.9001H14.0996C14.1663 11.9001 14.2996 11.9001 14.3663 11.8334C14.5663 11.7668 14.6329 11.7001 14.6996 11.6334Z" fill="#EA5455"/>
</svg>
