<svg width="16" height="16" viewBox="0 0 16 16" fill="none" xmlns="http://www.w3.org/2000/svg">
<path d="M14.3468 4.56767C14.3124 4.4839 14.2611 4.40541 14.1931 4.33737C14.0554 4.1997 13.875 4.13086 13.6945 4.13086C13.6944 4.13086 13.6946 4.13086 13.6945 4.13086H9.26514C8.87574 4.13086 8.56006 4.44654 8.56006 4.83594C8.56006 5.22535 8.87574 5.54103 9.26514 5.54103H11.9923L8.63238 8.90095L6.59987 6.86845C6.46765 6.73622 6.2883 6.66193 6.1013 6.66193C5.9143 6.66193 5.73496 6.73622 5.60273 6.86845L1.80612 10.6651C1.53077 10.9404 1.53077 11.3868 1.80612 11.6622C2.08148 11.9376 2.52791 11.9376 2.80326 11.6622L6.1013 8.36416L8.13381 10.3967C8.26604 10.5289 8.44538 10.6032 8.63238 10.6032C8.81938 10.6032 8.99872 10.5289 9.13095 10.3967L12.9894 6.53817V9.26532C12.9894 9.65473 13.3051 9.97041 13.6945 9.97041C14.0839 9.97041 14.3996 9.65473 14.3996 9.26532V4.83753C14.3996 4.83257 14.3996 4.82761 14.3995 4.82265C14.3978 4.73251 14.3792 4.6465 14.3468 4.56767Z" fill="#28C76F"/>
</svg>
