<svg width="22" height="22" viewBox="0 0 22 22" fill="currentColor" xmlns="http://www.w3.org/2000/svg">
<path fill-rule="evenodd" clip-rule="evenodd" d="M2.2002 6.73749C2.2002 5.19339 3.45193 3.94165 4.99603 3.94165H17.0044C18.5485 3.94165 19.8002 5.19339 19.8002 6.73748V15.2625C19.8002 16.8066 18.5485 18.0583 17.0044 18.0583H4.99603C3.45194 18.0583 2.2002 16.8066 2.2002 15.2625V6.73749ZM4.99603 5.86665C4.51508 5.86665 4.1252 6.25654 4.1252 6.73749V15.2625C4.1252 15.7434 4.51508 16.1333 4.99603 16.1333H17.0044C17.4853 16.1333 17.8752 15.7434 17.8752 15.2625V6.73748C17.8752 6.25654 17.4853 5.86665 17.0044 5.86665H4.99603Z" fill="currentColor"/>
<path fill-rule="evenodd" clip-rule="evenodd" d="M8.3877 9.34998C7.95737 9.34998 7.60853 9.69883 7.60853 10.1292V13.6125C7.60853 14.1441 7.1776 14.575 6.64603 14.575C6.11446 14.575 5.68353 14.1441 5.68353 13.6125V10.1292C5.68353 8.63568 6.89423 7.42498 8.3877 7.42498C9.88117 7.42498 11.0919 8.63568 11.0919 10.1292V13.6125C11.0919 14.1441 10.6609 14.575 10.1294 14.575C9.59779 14.575 9.16686 14.1441 9.16686 13.6125V10.1292C9.16686 9.69883 8.81802 9.34998 8.3877 9.34998Z" fill="currentColor"/>
<path fill-rule="evenodd" clip-rule="evenodd" d="M5.68353 11.8708C5.68353 11.3392 6.11446 10.9083 6.64603 10.9083H10.1294C10.6609 10.9083 11.0919 11.3392 11.0919 11.8708C11.0919 12.4024 10.6609 12.8333 10.1294 12.8333H6.64603C6.11446 12.8333 5.68353 12.4024 5.68353 11.8708Z" fill="currentColor"/>
<path fill-rule="evenodd" clip-rule="evenodd" d="M15.3544 7.42498C15.8859 7.42498 16.3169 7.85591 16.3169 8.38748V13.6125C16.3169 14.1441 15.8859 14.575 15.3544 14.575H14.0481C12.7951 14.575 11.7794 13.5592 11.7794 12.3062C11.7794 11.0532 12.7951 10.0375 14.0481 10.0375C14.165 10.0375 14.2798 10.0463 14.3919 10.0634V8.38748C14.3919 7.85591 14.8228 7.42498 15.3544 7.42498ZM14.3919 12.3062C14.3919 12.1164 14.238 11.9625 14.0481 11.9625C13.8583 11.9625 13.7044 12.1164 13.7044 12.3062C13.7044 12.4961 13.8583 12.65 14.0481 12.65H14.3919V12.3062Z" fill="currentColor"/>
</svg>
