<svg width="22" height="22" viewBox="0 0 22 22" fill="currentColor" xmlns="http://www.w3.org/2000/svg">
<path d="M17.2793 3.02502H4.6293C3.2543 3.02502 2.1543 4.21669 2.1543 5.50002V5.95836C2.1543 7.05836 2.88763 7.97502 3.89596 8.34169V16.225C3.89596 17.6917 5.08763 18.975 6.64596 18.975H15.3543C16.821 18.975 18.1043 17.7834 18.1043 16.225V8.34169C19.1126 8.06669 19.846 7.15002 19.846 5.95836V5.50002C19.7543 4.21669 18.6543 3.02502 17.2793 3.02502ZM4.0793 5.50002C4.0793 5.22502 4.3543 4.95002 4.6293 4.95002H17.2793C17.5543 4.95002 17.8293 5.22502 17.8293 5.50002V5.95836C17.8293 6.23336 17.5543 6.50836 17.2793 6.50836H4.6293C4.3543 6.50836 4.0793 6.23336 4.0793 5.95836V5.50002ZM15.2626 16.9584H6.64596C6.18763 16.9584 5.91263 16.5917 5.91263 16.225V8.52502H16.1793V16.225C16.0876 16.6834 15.721 16.9584 15.2626 16.9584ZM8.2043 11C8.2043 10.45 8.66263 9.99169 9.21263 9.99169H12.696C13.246 9.99169 13.7043 10.45 13.7043 11C13.7043 11.55 13.246 12.0084 12.696 12.0084H9.21263C8.66263 12.0084 8.2043 11.55 8.2043 11Z" fill="currentColor"/>
</svg>
