<svg width="22" height="22" viewBox="0 0 22 22" fill="currentColor" xmlns="http://www.w3.org/2000/svg">
<path d="M8.11131 5.82218C8.54089 6.25176 8.54089 6.94824 8.11131 7.37782L5.58913 9.9H18.3335C18.941 9.9 19.4335 10.3925 19.4335 11C19.4335 11.6075 18.941 12.1 18.3335 12.1H5.58913L8.11131 14.6222C8.54089 15.0518 8.54089 15.7482 8.11131 16.1778C7.68174 16.6074 6.98526 16.6074 6.55568 16.1778L2.15568 11.7778C1.94089 11.563 1.8335 11.2815 1.8335 11C1.8335 10.8509 1.86318 10.7086 1.91696 10.5789C1.97064 10.4492 2.05021 10.3276 2.15568 10.2222L6.55568 5.82218C6.98526 5.39261 7.68174 5.39261 8.11131 5.82218Z" fill="currentColor"/>
</svg>
