<svg width="22" height="22" viewBox="0 0 22 22" fill="currentColor" xmlns="http://www.w3.org/2000/svg">
<path fill-rule="evenodd" clip-rule="evenodd" d="M9.2193 2.20952C9.67844 2.16141 10.1385 2.29598 10.4995 2.5847C10.8662 2.87797 11.1003 3.3059 11.1493 3.77298C11.1528 3.80634 11.1545 3.83986 11.1545 3.8734V10.0468C11.1545 10.489 11.5132 10.8481 11.9564 10.8481H17.9555C18.974 10.8481 19.8002 11.6736 19.8002 12.6925C19.8002 12.7657 19.7919 12.8386 19.7753 12.9099C18.7824 17.1919 14.8113 20.1075 10.4276 19.7741C6.04388 19.4407 2.55969 15.958 2.22613 11.5752C1.89294 7.19724 4.80306 3.23172 9.07799 2.23359C9.09995 2.22817 9.12225 2.22349 9.14485 2.21958C9.16971 2.21523 9.19455 2.21189 9.2193 2.20952ZM9.22952 4.18133C6.03587 5.06944 3.892 8.09717 4.14558 11.4291C4.40695 14.8635 7.13733 17.5933 10.5736 17.8546C13.9071 18.1081 16.9356 15.9648 17.8241 12.7731H11.9564C10.4507 12.7731 9.22952 11.5528 9.22952 10.0468V4.18133Z" fill="currentColor"/>
<path fill-rule="evenodd" clip-rule="evenodd" d="M14.0628 2.53255C14.0053 2.51069 13.9452 2.49419 13.883 2.48364C13.7705 2.46428 13.6578 2.46556 13.5494 2.48527C13.408 2.5107 13.2773 2.56702 13.1646 2.64699C13.0518 2.72672 12.9553 2.83122 12.8844 2.95606C12.8298 3.05178 12.7911 3.15777 12.772 3.27043C12.7614 3.33212 12.7569 3.39388 12.7584 3.45494V7.40115C12.7584 8.4201 13.5846 9.24556 14.6031 9.24556H18.5731C18.8853 9.24556 19.1782 9.09407 19.3586 8.83922C19.539 8.58436 19.5846 8.25781 19.4809 7.96329C18.5877 5.42752 16.596 3.43178 14.0628 2.53255ZM14.6834 4.94418V7.32056H17.0609C16.4742 6.34685 15.6576 5.53062 14.6834 4.94418Z" fill="currentColor"/>
</svg>
