<svg width="22" height="22" viewBox="0 0 22 22" fill="currentColor" xmlns="http://www.w3.org/2000/svg">
<path fill-rule="evenodd" clip-rule="evenodd" d="M19.3354 2.84262C19.624 3.01688 19.8004 3.32945 19.8004 3.6666V15.5833C19.8004 15.9406 19.6024 16.2686 19.2862 16.435L14.0612 19.185C13.7806 19.3327 13.4452 19.3327 13.1646 19.185L8.38789 16.6709L3.61117 19.185C3.31282 19.342 2.95406 19.3315 2.66543 19.1572C2.3768 18.983 2.20039 18.6704 2.20039 18.3333V6.43674C2.19672 6.25442 2.24512 6.07455 2.33879 5.91907C2.43275 5.76376 2.56938 5.63715 2.73243 5.55549L7.93961 2.81487C8.22022 2.66718 8.55556 2.66718 8.83617 2.81487L13.6129 5.32893L18.3896 2.81487C18.688 2.65784 19.0467 2.66837 19.3354 2.84262ZM4.12539 6.99769V16.739L7.93961 14.7315C8.22022 14.5838 8.55556 14.5838 8.83617 14.7315L13.6129 17.2456L17.8754 15.0022V5.26085L14.0612 7.26834C13.7806 7.41602 13.4452 7.41602 13.1646 7.26834L8.38789 4.75427L4.12539 6.99769Z" fill="currentColor"/>
<path fill-rule="evenodd" clip-rule="evenodd" d="M8.38789 2.7041C8.91946 2.7041 9.35039 3.13503 9.35039 3.6666V15.5833C9.35039 16.1148 8.91946 16.5458 8.38789 16.5458C7.85632 16.5458 7.42539 16.1148 7.42539 15.5833V3.6666C7.42539 3.13503 7.85632 2.7041 8.38789 2.7041Z" fill="currentColor"/>
<path fill-rule="evenodd" clip-rule="evenodd" d="M13.6129 5.4541C14.1445 5.4541 14.5754 5.88503 14.5754 6.4166V18.3333C14.5754 18.8648 14.1445 19.2958 13.6129 19.2958C13.0813 19.2958 12.6504 18.8648 12.6504 18.3333V6.4166C12.6504 5.88503 13.0813 5.4541 13.6129 5.4541Z" fill="currentColor"/>
</svg>
