<svg width="22" height="22" viewBox="0 0 22 22" fill="currentColor" xmlns="http://www.w3.org/2000/svg">
<path d="M11.0002 2.19995C6.14186 2.19995 2.2002 6.14162 2.2002 11C2.2002 15.8583 6.14186 19.8 11.0002 19.8C15.8585 19.8 19.8002 15.8583 19.8002 11C19.8002 6.14162 15.8585 2.19995 11.0002 2.19995ZM11.0002 17.875C7.24186 17.875 4.1252 14.7583 4.1252 11C4.1252 7.24162 7.24186 4.12495 11.0002 4.12495C14.7585 4.12495 17.8752 7.24162 17.8752 11C17.8752 14.7583 14.7585 17.875 11.0002 17.875ZM7.4252 8.43328C7.4252 7.88328 7.88353 7.51662 8.34186 7.51662C8.89186 7.51662 9.25853 7.97495 9.25853 8.43328C9.25853 8.89162 8.8002 9.34995 8.34186 9.34995C7.88353 9.34995 7.4252 8.89162 7.4252 8.43328ZM12.6502 8.43328C12.6502 7.88328 13.1085 7.51662 13.5669 7.51662C14.1169 7.51662 14.4835 7.97495 14.4835 8.43328C14.4835 8.89162 14.0252 9.34995 13.5669 9.34995C13.1085 9.34995 12.6502 8.89162 12.6502 8.43328ZM14.4835 10.9083H7.51686C6.96686 10.9083 6.60019 11.3666 6.60019 11.825C6.60019 14.3 8.61686 16.225 11.0002 16.225C13.3835 16.225 15.4919 14.2083 15.4919 11.825C15.4919 11.3666 15.0335 10.9083 14.4835 10.9083ZM11.0002 14.3916C9.99186 14.3916 9.07519 13.75 8.70853 12.8333H13.3835C12.9252 13.75 12.0085 14.3916 11.0002 14.3916Z" fill="currentColor"/>
</svg>
