<svg width="22" height="22" viewBox="0 0 22 22" fill="currentColor" xmlns="http://www.w3.org/2000/svg">
<path d="M11.5502 19.8H10.5419C9.44186 19.8 8.52519 18.9663 8.43353 17.8547C8.34186 17.8547 8.25019 17.7621 8.15853 17.7621C7.88353 17.9473 7.4252 18.3178 6.78353 18.3178C6.23353 18.3178 5.59186 18.1326 5.22519 17.6694L4.49186 16.9284C3.66686 16.0947 3.66686 14.8905 4.30853 14.0568C4.21686 13.9642 4.21686 13.8715 4.1252 13.6863C3.0252 13.5936 2.2002 12.6673 2.2002 11.5557V10.5368C2.2002 9.42521 3.0252 8.4989 4.1252 8.40627C4.1252 8.31364 4.21686 8.221 4.30853 8.03574C3.94186 7.66521 3.85019 7.20206 3.85019 6.64627C3.85019 6.09048 4.03353 5.53469 4.49186 5.16416L5.13353 4.51574C5.5002 4.05258 6.05019 3.77469 6.60019 3.77469C7.15019 3.77469 7.60853 3.95995 7.97519 4.33048C8.06686 4.23785 8.2502 4.14521 8.34186 4.14521C8.43353 3.03364 9.35019 2.19995 10.4502 2.19995H11.4585C12.1002 2.19995 12.6502 2.47785 13.0169 2.84837C13.3835 3.2189 13.5669 3.68206 13.5669 4.23785C13.6585 4.23785 13.7502 4.33048 13.8419 4.33048C14.1169 4.14521 14.5752 3.77469 15.2169 3.77469C15.7669 3.77469 16.4085 3.95995 16.7752 4.42311L17.5085 5.16416C17.8752 5.53469 18.1502 6.09048 18.1502 6.64627C18.1502 7.10943 17.9669 7.57258 17.6919 7.94311C17.7835 8.03574 17.7835 8.221 17.8752 8.31364C18.9752 8.40627 19.8002 9.33258 19.8002 10.4442V11.4631C19.8002 12.5747 18.9752 13.501 17.8752 13.5936C17.8752 13.6863 17.7835 13.7789 17.7835 13.8715C18.5169 14.7052 18.5169 16.0021 17.6919 16.8357L16.9585 17.5768L16.8669 17.6694C16.5919 17.8547 16.1335 18.2252 15.4002 18.2252C14.8502 18.2252 14.3919 18.04 14.0252 17.6694C13.9335 17.6694 13.8419 17.7621 13.7502 17.7621C13.5669 18.9663 12.6502 19.8 11.5502 19.8ZM7.88353 15.5389C8.06686 15.5389 8.2502 15.5389 8.34186 15.6315C8.70853 15.8168 9.07519 16.0021 9.53353 16.0947C9.99186 16.1873 10.2669 16.5578 10.2669 17.021V17.5768C10.2669 17.6694 10.3585 17.7621 10.4502 17.7621H11.4585C11.5502 17.7621 11.6419 17.6694 11.6419 17.5768V17.021C11.6419 16.5578 11.9169 16.1873 12.3752 16.0947C12.7419 16.0021 13.2002 15.8168 13.5669 15.6315C13.9335 15.4463 14.3919 15.4463 14.7585 15.8168L15.1252 16.1873C15.1252 16.1873 15.2169 16.1873 15.3085 16.1873C15.3085 16.1873 15.4002 16.1873 15.4919 16.0947L16.1335 15.4463C16.2252 15.3536 16.2252 15.261 16.1335 15.1684L15.7669 14.7978C15.4919 14.52 15.4002 13.9642 15.5835 13.5936C15.7669 13.2231 15.9502 12.8526 16.0419 12.3894C16.1335 11.9263 16.5002 11.6484 16.9585 11.6484H17.5085C17.6002 11.6484 17.6919 11.5557 17.6919 11.4631V10.4442C17.6919 10.3515 17.6002 10.2589 17.5085 10.2589H16.9585C16.5002 10.2589 16.1335 9.981 16.0419 9.51785C15.9502 9.14732 15.7669 8.77679 15.5835 8.31364C15.4002 8.03574 15.4002 7.57258 15.5835 7.29469L15.8585 6.92416C15.8585 6.83153 15.9502 6.83153 15.9502 6.7389L16.0419 6.64627C16.0419 6.55364 16.0419 6.55364 15.9502 6.55364L15.2169 5.81258C15.2169 5.81258 15.1252 5.81258 15.0335 5.81258C15.0335 5.81258 14.9419 5.81258 14.8502 5.90521L14.6669 6.18311C14.3919 6.461 13.8419 6.55364 13.4752 6.36837C13.1085 6.18311 12.7419 5.99785 12.2835 5.90521C11.8252 5.81258 11.5502 5.44206 11.5502 4.9789V4.33048V4.23785C11.5502 4.14521 11.4585 4.14521 11.3669 4.14521H10.3585C10.2669 4.14521 10.1752 4.23785 10.1752 4.33048V4.88627C10.1752 5.34942 9.9002 5.71995 9.44186 5.81258C9.0752 5.90521 8.70853 6.09048 8.34186 6.27574C7.9752 6.461 7.51686 6.461 7.24186 6.18311L6.8752 5.90521C6.78353 5.81258 6.69186 5.81258 6.69186 5.71995C6.69186 5.71995 6.69186 5.71995 6.60019 5.71995L6.50853 5.81258L5.7752 6.55364L5.68353 6.64627C5.68353 6.7389 5.68353 6.7389 5.7752 6.7389L6.14186 7.10943C6.50853 7.47995 6.50853 7.94311 6.23353 8.40627C6.0502 8.77679 5.86686 9.14732 5.7752 9.51785C5.68353 9.981 5.31686 10.2589 4.85853 10.2589H4.30853C4.21686 10.2589 4.1252 10.3515 4.1252 10.4442V11.4631C4.1252 11.5557 4.21686 11.6484 4.30853 11.6484H4.85853C5.31686 11.6484 5.68353 11.9263 5.7752 12.3894C5.86686 12.76 6.0502 13.2231 6.23353 13.5936C6.41686 13.9642 6.41686 14.4273 6.14186 14.7052L5.7752 15.0757C5.7752 15.0757 5.77519 15.0757 5.68353 15.1684C5.59186 15.261 5.59186 15.3536 5.68353 15.4463L6.41686 16.1873C6.41686 16.1873 6.50853 16.1873 6.60019 16.1873C6.60019 16.1873 6.69186 16.1873 6.78353 16.0947L7.1502 15.7242C7.4252 15.6315 7.7002 15.5389 7.88353 15.5389ZM11.0002 9.79574C11.6419 9.79574 12.2835 10.3515 12.2835 11.0926C12.2835 11.741 11.7335 12.3894 11.0002 12.3894C10.3585 12.3894 9.71686 11.8336 9.71686 11.0926C9.71686 10.3515 10.2669 9.79574 11.0002 9.79574ZM11.0002 7.85048C9.25853 7.85048 7.79186 9.33258 7.79186 11.0926C7.79186 12.8526 9.25853 14.3347 11.0002 14.3347C12.7419 14.3347 14.2085 12.8526 14.2085 11.0926C14.2085 9.33258 12.7419 7.85048 11.0002 7.85048Z" fill="currentColor"/>
</svg>
