<svg width="22" height="22" viewBox="0 0 22 22" fill="currentColor" xmlns="http://www.w3.org/2000/svg">
<path d="M9.26744 9.13052C9.81459 9.13052 10.2706 9.58648 10.2706 10.1336V15.3316C10.2706 15.8787 9.81459 16.3347 9.26744 16.3347C8.72029 16.3347 8.26433 15.8787 8.26433 15.3316V10.1336C8.26433 9.58648 8.72029 9.13052 9.26744 9.13052ZM12.7327 9.13052C13.2799 9.13052 13.7358 9.58648 13.7358 10.1336V15.3316C13.7358 15.8787 13.2799 16.3347 12.7327 16.3347C12.1856 16.3347 11.7296 15.8787 11.7296 15.3316V10.1336C11.7296 9.58648 12.1856 9.13052 12.7327 9.13052ZM17.9307 5.66524H14.5566V4.02379C14.5566 3.02068 13.7358 2.19995 12.7327 2.19995H9.26744C8.26433 2.19995 7.44361 3.02068 7.44361 4.02379V5.66524H4.06952C3.52236 5.66524 3.06641 6.12119 3.06641 6.66834C3.06641 7.2155 3.52236 7.58026 3.97832 7.67145L4.79905 17.1554C4.79905 18.6145 5.98454 19.8 7.5348 19.8H14.4654C15.9244 19.8 17.1099 18.6145 17.2011 17.1554L18.0218 7.67145C18.569 7.67145 18.9338 7.2155 18.9338 6.66834C18.9338 6.12119 18.4778 5.66524 17.9307 5.66524ZM9.35863 4.11498H12.6415V5.66524H9.35863V4.11498ZM15.1949 16.973C15.1949 17.5202 14.8301 17.7937 14.4654 17.7937H7.5348C7.07884 17.7937 6.80527 17.429 6.80527 17.0642V16.973L5.98454 7.58026H16.0156L15.1949 16.973Z" fill="currentColor"/>
</svg>
