<svg width="16" height="16" viewBox="0 0 16 16" fill="none" xmlns="http://www.w3.org/2000/svg">
<path fill-rule="evenodd" clip-rule="evenodd" d="M4.64573 3.42881C4.64573 3.04854 4.954 2.74027 5.33428 2.74027H13.7111C14.0913 2.74027 14.3996 3.04854 14.3996 3.42881C14.3996 3.80909 14.0913 4.11736 13.7111 4.11736H5.33428C4.954 4.11736 4.64573 3.80909 4.64573 3.42881Z" fill="#7367F0"/>
<path fill-rule="evenodd" clip-rule="evenodd" d="M4.64573 7.99806C4.64573 7.61778 4.954 7.30951 5.33428 7.30951H13.7111C14.0913 7.30951 14.3996 7.61778 14.3996 7.99806C14.3996 8.37833 14.0913 8.6866 13.7111 8.6866H5.33428C4.954 8.6866 4.64573 8.37833 4.64573 7.99806Z" fill="#7367F0"/>
<path fill-rule="evenodd" clip-rule="evenodd" d="M4.64573 12.5672C4.64573 12.187 4.954 11.8787 5.33428 11.8787H13.7111C14.0913 11.8787 14.3996 12.187 14.3996 12.5672C14.3996 12.9475 14.0913 13.2558 13.7111 13.2558H5.33428C4.954 13.2558 4.64573 12.9475 4.64573 12.5672Z" fill="#7367F0"/>
<path fill-rule="evenodd" clip-rule="evenodd" d="M2.28816 2.74023C2.66843 2.74023 2.9767 3.04851 2.9767 3.42878V3.4364C2.9767 3.81667 2.66843 4.12494 2.28816 4.12494C1.90788 4.12494 1.59961 3.81667 1.59961 3.4364V3.42878C1.59961 3.04851 1.90788 2.74023 2.28816 2.74023Z" fill="#7367F0"/>
<path fill-rule="evenodd" clip-rule="evenodd" d="M2.28816 7.30941C2.66843 7.30941 2.9767 7.61768 2.9767 7.99796V8.00557C2.9767 8.38585 2.66843 8.69412 2.28816 8.69412C1.90788 8.69412 1.59961 8.38585 1.59961 8.00557V7.99796C1.59961 7.61768 1.90788 7.30941 2.28816 7.30941Z" fill="#7367F0"/>
<path fill-rule="evenodd" clip-rule="evenodd" d="M2.28816 11.8786C2.66843 11.8786 2.9767 12.1869 2.9767 12.5671V12.5748C2.9767 12.955 2.66843 13.2633 2.28816 13.2633C1.90788 13.2633 1.59961 12.955 1.59961 12.5748V12.5671C1.59961 12.1869 1.90788 11.8786 2.28816 11.8786Z" fill="#7367F0"/>
</svg>
