<svg width="16" height="16" viewBox="0 0 16 16" fill="none" xmlns="http://www.w3.org/2000/svg">
<path d="M7.9976 3.00743C9.13687 3.00743 10.0081 3.94565 10.0081 5.0179C10.0081 6.09015 9.06985 7.02837 7.9976 7.02837C6.92535 7.02837 5.98713 6.09015 5.98713 5.0179C5.98713 3.94565 6.85833 3.00743 7.9976 3.00743ZM7.9976 1.6001C6.12116 1.6001 4.5798 3.14146 4.5798 5.0179C4.5798 6.89434 6.12116 8.4357 7.9976 8.4357C9.87404 8.4357 11.4154 6.89434 11.4154 5.0179C11.4154 3.14146 9.87404 1.6001 7.9976 1.6001ZM11.4154 10.7142C12.0185 10.7142 12.5547 11.2504 12.5547 11.8535C12.5547 12.4566 12.0185 12.9928 11.4154 12.9928H4.5798C3.97666 12.9928 3.44053 12.4566 3.44053 11.8535C3.44053 11.2504 3.97666 10.7142 4.5798 10.7142H11.4154ZM11.4154 9.3069H4.5798C3.17247 9.3069 2.0332 10.4462 2.0332 11.8535C2.0332 13.2608 3.17247 14.4001 4.5798 14.4001H11.4154C12.8227 14.4001 13.962 13.2608 13.962 11.8535C14.029 10.5132 12.8227 9.3069 11.4154 9.3069Z" fill="#FF9F43"/>
</svg>
