<svg width="26" height="32" viewBox="0 0 26 32" fill="none" xmlns="http://www.w3.org/2000/svg">
<path d="M25.5331 12.5691C25.5331 5.64124 19.9079 0 13 0C6.0919 0 0.466797 5.64124 0.466797 12.5691V19.233C0.466797 19.2989 0.466797 19.3649 0.466797 19.4309C0.466797 26.3918 6.05901 32 13 32C19.9409 32 25.5331 26.3587 25.5331 19.4309V12.767C25.5331 12.701 25.5331 12.6351 25.5331 12.5691ZM22.3751 16.033C22.2436 16.1649 22.0791 16.2969 21.8817 16.4289C21.8159 16.4619 21.783 16.4949 21.7172 16.5278C21.6185 16.5938 21.5198 16.6598 21.4211 16.6928C21.158 16.8248 20.8619 16.9567 20.5658 17.0887C20.1382 17.2206 19.6448 17.3196 19.1185 17.3196C18.5592 17.3196 18.0987 17.2536 17.7697 17.1876C17.4079 17.0887 17.1448 16.8908 16.9803 16.6268C16.8158 16.3629 16.75 16 16.75 15.5051V12.767C16.75 9.23713 15.8289 6.63092 10.763 6.63092V5.04743C10.4012 6.30103 7.40772 8.24744 7.40772 8.24744C7.40772 8.24744 10.4341 10.1938 10.763 11.4474V9.86394C12.5394 9.86394 13.5921 10.1938 13.5921 12.833V15.8351C13.5921 16.5278 13.6908 17.1216 13.921 17.5835C14.1513 18.0454 14.4474 18.4083 14.875 18.6722C15.2697 18.9361 15.7303 19.134 16.2566 19.266C16.7829 19.3979 17.3092 19.4639 17.9014 19.4639C18.4935 19.4639 19.0198 19.3979 19.4803 19.266C19.5461 19.233 19.6119 19.233 19.6777 19.2C20.0724 19.0681 20.4343 18.9031 20.7304 18.7381C21.0922 18.5072 21.4211 18.2763 21.6514 18.0124C21.8488 17.8144 21.9804 17.6165 22.1119 17.4516C22.1449 17.3856 22.2106 17.3196 22.2436 17.2536C22.2764 17.1876 22.3093 17.1216 22.3422 17.0557V19.4969C22.3422 24.6763 18.1316 28.8989 12.967 28.8989C7.80247 28.8989 3.59185 24.6763 3.59185 19.4969C3.59185 19.4309 3.59185 19.3649 3.59185 19.2989V19.266V15.7031C3.72344 15.6371 3.85502 15.5711 4.05239 15.5051C4.11818 15.4722 4.15108 15.4722 4.21687 15.4392C4.31556 15.4062 4.44713 15.3732 4.57872 15.3402C4.80899 15.2743 5.03926 15.2413 5.26952 15.1752C5.66427 15.1092 6.05901 15.0433 6.48665 15.0433C7.21035 15.0433 7.76957 15.1092 8.16433 15.2413C8.55905 15.3732 8.85515 15.5711 9.01962 15.8351C9.18409 16.0989 9.24986 16.4289 9.24986 16.8248V19.233C9.24986 22.7629 10.1709 25.3691 15.2368 25.3691V26.9526C15.5987 25.6989 18.5922 23.7526 18.5922 23.7526C18.5922 23.7526 15.5657 21.8392 15.2368 20.6186V22.2351C13.4604 22.2351 12.4078 21.9051 12.4078 19.266V15.5051C12.4078 14.9443 12.2762 14.4825 12.0789 14.0866C11.8486 13.6908 11.5526 13.4268 11.1578 13.1959C10.796 12.9649 10.3354 12.8 9.8749 12.701C9.38141 12.6021 8.88799 12.5691 8.36165 12.5691C7.5722 12.5691 6.88139 12.6681 6.28928 12.866C6.25638 12.866 6.22349 12.866 6.22349 12.8989C5.63137 13.0969 5.13794 13.3608 4.7432 13.6578C4.34845 13.9546 4.05239 14.2186 3.82212 14.5154C3.75633 14.6144 3.69055 14.7134 3.62476 14.7794V12.6021C3.62476 12.0413 3.69055 11.4804 3.78923 10.9526C4.57872 6.56495 8.39458 3.2 13.0328 3.2C17.6382 3.2 21.487 6.56495 22.2764 10.9526C22.3751 11.4804 22.4409 12.0413 22.4409 12.6021V16.033H22.3751Z" fill="url(#paint0_radial_4555_16900)"/>
<defs>
<radialGradient id="paint0_radial_4555_16900" cx="0" cy="0" r="1" gradientUnits="userSpaceOnUse" gradientTransform="translate(0.4302 6.28434) rotate(45.6909) scale(35.9368 57.9086)">
<stop stop-color="#E32900"/>
<stop offset="0.601687" stop-color="#C6E216"/>
<stop offset="1" stop-color="#D808FA"/>
</radialGradient>
</defs>
</svg>
