<svg width="19" height="18" viewBox="0 0 19 18" fill="none" xmlns="http://www.w3.org/2000/svg">
<g clip-path="url(#clip0_2121_17258)">
<mask id="mask0_2121_17258" style="mask-type:alpha" maskUnits="userSpaceOnUse" x="0" y="0" width="19" height="18">
<path d="M9.2002 18C14.1708 18 18.2002 13.9706 18.2002 9C18.2002 4.02944 14.1708 0 9.2002 0C4.22963 0 0.200195 4.02944 0.200195 9C0.200195 13.9706 4.22963 18 9.2002 18Z" fill="white"/>
</mask>
<g mask="url(#mask0_2121_17258)">
<path d="M20.3275 0H-1.88613C-2.38319 0 -2.78613 0.402944 -2.78613 0.9V17.1C-2.78613 17.5971 -2.38319 18 -1.88613 18H20.3275C20.8246 18 21.2275 17.5971 21.2275 17.1V0.9C21.2275 0.402944 20.8246 0 20.3275 0Z" fill="black"/>
<mask id="mask1_2121_17258" style="mask-type:alpha" maskUnits="userSpaceOnUse" x="-3" y="0" width="25" height="18">
<path d="M20.3275 0H-1.88613C-2.38319 0 -2.78613 0.402944 -2.78613 0.9V17.1C-2.78613 17.5971 -2.38319 18 -1.88613 18H20.3275C20.8246 18 21.2275 17.5971 21.2275 17.1V0.9C21.2275 0.402944 20.8246 0 20.3275 0Z" fill="white"/>
</mask>
<g mask="url(#mask1_2121_17258)">
<mask id="mask2_2121_17258" style="mask-type:alpha" maskUnits="userSpaceOnUse" x="-3" y="0" width="25" height="18">
<path d="M21.2275 0H-2.78613V18H21.2275V0Z" fill="white"/>
</mask>
<g mask="url(#mask2_2121_17258)">
<path d="M21.2275 0H-2.78613V18H21.2275V0Z" fill="#2E42A5"/>
<mask id="mask3_2121_17258" style="mask-type:alpha" maskUnits="userSpaceOnUse" x="-3" y="0" width="25" height="18">
<path d="M21.2275 0H-2.78613V18H21.2275V0Z" fill="white"/>
</mask>
<g mask="url(#mask3_2121_17258)">
<path d="M10.7215 0H-2.78613V10.5H10.7215V0Z" fill="#2B409A"/>
<mask id="mask4_2121_17258" style="mask-type:alpha" maskUnits="userSpaceOnUse" x="-3" y="0" width="14" height="11">
<path d="M10.7215 0H-2.78613V10.5H10.7215V0Z" fill="white"/>
</mask>
<g mask="url(#mask4_2121_17258)">
<path d="M-4.29004 9.74983L-1.31764 11.0527L10.7891 1.41653L12.357 -0.519622L9.17845 -0.95509L4.24039 3.19743L0.265756 5.99525L-4.29004 9.74983Z" fill="#F7FCFF"/>
<path d="M-3.88281 10.6619L-2.36851 11.418L11.7943 -0.700318H9.66804L-3.88281 10.6619Z" fill="#F50100"/>
<path d="M12.2256 9.74983L9.25319 11.0527L-2.85359 1.41653L-4.42146 -0.519622L-1.24291 -0.95509L3.69516 3.19743L7.66979 5.99525L12.2256 9.74983Z" fill="#F7FCFF"/>
<path d="M12.124 10.4041L10.6097 11.1602L4.57905 5.97169L2.79109 5.39199L-4.57246 -0.513906H-2.44621L4.91321 5.25181L6.86803 5.94693L12.124 10.4041Z" fill="#F50100"/>
<path d="M5.26969 -0.5625L5.26931 3.9375H11.2847V6.5625H5.26931L5.26969 11.0625H2.6432L2.64282 6.5625H-3.34863V3.9375H2.64282L2.6432 -0.5625H5.26969Z" fill="#F50100" stroke="#F7FCFF" stroke-width="1.5"/>
</g>
</g>
<mask id="mask5_2121_17258" style="mask-type:alpha" maskUnits="userSpaceOnUse" x="-3" y="0" width="25" height="18">
<path d="M21.2275 0H-2.78613V18H21.2275V0Z" fill="white"/>
</mask>
<g mask="url(#mask5_2121_17258)">
<path d="M3.9673 15.375L2.9905 16.2772L3.08723 14.9514L1.77246 14.7507L2.86988 13.9997L2.20717 12.8471L3.4789 13.2364L3.9673 12L4.45569 13.2364L5.72742 12.8471L5.06471 13.9997L6.16213 14.7507L4.84736 14.9514L4.94409 16.2772L3.9673 15.375Z" fill="#F7FCFF"/>
<path d="M13.723 9.75L13.0718 10.3515L13.1363 9.46762L12.2598 9.33378L12.9914 8.83311L12.5496 8.06477L13.3974 8.32427L13.723 7.5L14.0486 8.32427L14.8964 8.06477L14.4546 8.83311L15.1862 9.33378L14.3097 9.46762L14.3742 10.3515L13.723 9.75Z" fill="#F7FCFF"/>
<path d="M15.224 3.75L14.5728 4.35145L14.6373 3.46762L13.7607 3.33378L14.4924 2.83311L14.0506 2.06477L14.8984 2.32427L15.224 1.5L15.5496 2.32427L16.3974 2.06477L15.9556 2.83311L16.6872 3.33378L15.8107 3.46762L15.8752 4.35145L15.224 3.75Z" fill="#F7FCFF"/>
<path d="M18.9759 6.75L18.3247 7.35145L18.3892 6.46762L17.5127 6.33378L18.2443 5.83311L17.8025 5.06477L18.6503 5.32427L18.9759 4.5L19.3015 5.32427L20.1493 5.06477L19.7075 5.83311L20.4391 6.33378L19.5626 6.46762L19.6271 7.35145L18.9759 6.75Z" fill="#F7FCFF"/>
<path d="M15.974 16.5L15.3228 17.1015L15.3873 16.2176L14.5107 16.0838L15.2424 15.5831L14.8006 14.8148L15.6484 15.0743L15.974 14.25L16.2996 15.0743L17.1474 14.8148L16.7056 15.5831L17.4372 16.0838L16.5607 16.2176L16.6252 17.1015L15.974 16.5Z" fill="#F7FCFF"/>
<path d="M18.6008 10.6875L17.9392 11.0351L18.0655 10.2988L17.5303 9.77736L18.27 9.66993L18.6008 9L18.9316 9.66993L19.6714 9.77736L19.1361 10.2988L19.2625 11.0351L18.6008 10.6875Z" fill="#F7FCFF"/>
</g>
</g>
</g>
<mask id="mask6_2121_17258" style="mask-type:alpha" maskUnits="userSpaceOnUse" x="-3" y="0" width="25" height="18">
<path d="M20.3275 0H-1.88613C-2.38319 0 -2.78613 0.402944 -2.78613 0.9V17.1C-2.78613 17.5971 -2.38319 18 -1.88613 18H20.3275C20.8246 18 21.2275 17.5971 21.2275 17.1V0.9C21.2275 0.402944 20.8246 0 20.3275 0Z" fill="white"/>
</mask>
<g mask="url(#mask6_2121_17258)">
<path d="M19.9521 0.375H-1.51113C-2.00819 0.375 -2.41113 0.777944 -2.41113 1.275V16.725C-2.41113 17.2221 -2.00819 17.625 -1.51113 17.625H19.9521C20.4491 17.625 20.8521 17.2221 20.8521 16.725V1.275C20.8521 0.777944 20.4491 0.375 19.9521 0.375Z" stroke="black" stroke-opacity="0.1"/>
</g>
</g>
</g>
<defs>
<clipPath id="clip0_2121_17258">
<rect width="18" height="18" fill="white" transform="translate(0.200195)"/>
</clipPath>
</defs>
</svg>
