<svg width="19" height="18" viewBox="0 0 19 18" fill="none" xmlns="http://www.w3.org/2000/svg">
<g clip-path="url(#clip0_2121_16814)">
<mask id="mask0_2121_16814" style="mask-type:alpha" maskUnits="userSpaceOnUse" x="0" y="0" width="19" height="18">
<path d="M9.40039 18C14.371 18 18.4004 13.9706 18.4004 9C18.4004 4.02944 14.371 0 9.40039 0C4.42983 0 0.400391 4.02944 0.400391 9C0.400391 13.9706 4.42983 18 9.40039 18Z" fill="white"/>
</mask>
<g mask="url(#mask0_2121_16814)">
<mask id="mask1_2121_16814" style="mask-type:alpha" maskUnits="userSpaceOnUse" x="-3" y="0" width="25" height="18">
<path d="M21.4004 0H-2.59961V18H21.4004V0Z" fill="white"/>
</mask>
<g mask="url(#mask1_2121_16814)">
<path d="M3.40039 0H21.4004V18H3.40039V0Z" fill="#EF0000"/>
<path d="M-2.59961 0H6.40039V18H-2.59961V0Z" fill="#2F8D00"/>
<mask id="mask2_2121_16814" style="mask-type:alpha" maskUnits="userSpaceOnUse" x="0" y="3" width="13" height="12">
<path d="M6.32868 14.8554C3.13332 14.8554 0.542969 12.2338 0.542969 8.99995C0.542969 5.76609 3.13332 3.14453 6.32868 3.14453C9.52405 3.14453 12.1144 5.76609 12.1144 8.99995C12.1144 12.2338 9.52405 14.8554 6.32868 14.8554Z" fill="white"/>
</mask>
<g mask="url(#mask2_2121_16814)">
<path d="M5.97168 3H6.72168V5.0241H5.97168V3Z" fill="#FFE017"/>
</g>
<mask id="mask3_2121_16814" style="mask-type:alpha" maskUnits="userSpaceOnUse" x="0" y="3" width="13" height="12">
<path d="M6.32868 14.8554C3.13332 14.8554 0.542969 12.2338 0.542969 8.99995C0.542969 5.76609 3.13332 3.14453 6.32868 3.14453C9.52405 3.14453 12.1144 5.76609 12.1144 8.99995C12.1144 12.2338 9.52405 14.8554 6.32868 14.8554Z" fill="white"/>
</mask>
<g mask="url(#mask3_2121_16814)">
<path d="M5.97168 13.1211H6.72168V15.0006H5.97168V13.1211Z" fill="#FFE017"/>
</g>
<mask id="mask4_2121_16814" style="mask-type:alpha" maskUnits="userSpaceOnUse" x="0" y="3" width="13" height="12">
<path d="M6.32868 14.8554C3.13332 14.8554 0.542969 12.2338 0.542969 8.99995C0.542969 5.76609 3.13332 3.14453 6.32868 3.14453C9.52405 3.14453 12.1144 5.76609 12.1144 8.99995C12.1144 12.2338 9.52405 14.8554 6.32868 14.8554Z" fill="white"/>
</mask>
<g mask="url(#mask4_2121_16814)">
<path d="M0.635468 9.30204L0.425781 8.76407C2.73967 7.84031 4.48609 7.24458 5.67108 6.9761C7.40967 6.58219 9.31998 6.29075 11.4021 6.10156L11.4532 6.67756C9.39496 6.86458 7.50915 7.15228 5.79592 7.54044C4.6462 7.80093 2.92404 8.38839 0.635468 9.30204Z" fill="#FFE017"/>
</g>
<mask id="mask5_2121_16814" style="mask-type:alpha" maskUnits="userSpaceOnUse" x="0" y="3" width="13" height="12">
<path d="M6.32868 14.8554C3.13332 14.8554 0.542969 12.2338 0.542969 8.99995C0.542969 5.76609 3.13332 3.14453 6.32868 3.14453C9.52405 3.14453 12.1144 5.76609 12.1144 8.99995C12.1144 12.2338 9.52405 14.8554 6.32868 14.8554Z" fill="white"/>
</mask>
<g mask="url(#mask5_2121_16814)">
<path d="M11.7557 5.74733L11.5855 6.29941C9.8367 5.74732 8.41214 5.51001 7.31712 5.58352L7.2793 5.00647C8.45499 4.92755 9.94533 5.17582 11.7557 5.74733Z" fill="#FFE017"/>
</g>
<mask id="mask6_2121_16814" style="mask-type:alpha" maskUnits="userSpaceOnUse" x="0" y="3" width="13" height="12">
<path d="M6.32868 14.8554C3.13332 14.8554 0.542969 12.2338 0.542969 8.99995C0.542969 5.76609 3.13332 3.14453 6.32868 3.14453C9.52405 3.14453 12.1144 5.76609 12.1144 8.99995C12.1144 12.2338 9.52405 14.8554 6.32868 14.8554Z" fill="white"/>
</mask>
<g mask="url(#mask6_2121_16814)">
<path d="M12.3611 8.83402L12.0378 9.3109C11.1463 8.69195 10.048 8.38105 8.73535 8.38105V7.80273C10.1584 7.80273 11.3695 8.14555 12.3611 8.83402Z" fill="#FFE017"/>
</g>
<mask id="mask7_2121_16814" style="mask-type:alpha" maskUnits="userSpaceOnUse" x="0" y="3" width="13" height="12">
<path d="M6.32868 14.8554C3.13332 14.8554 0.542969 12.2338 0.542969 8.99995C0.542969 5.76609 3.13332 3.14453 6.32868 3.14453C9.52405 3.14453 12.1144 5.76609 12.1144 8.99995C12.1144 12.2338 9.52405 14.8554 6.32868 14.8554Z" fill="white"/>
</mask>
<g mask="url(#mask7_2121_16814)">
<path d="M11.8771 9.00781L12.0248 9.56646C10.1028 10.0871 8.29839 10.3824 6.61131 10.452C4.91259 10.522 2.93269 10.2256 0.669922 9.56496L0.828309 9.00931C3.03608 9.65389 4.95656 9.94142 6.58805 9.87415C8.23116 9.80641 9.99422 9.51782 11.8771 9.00781Z" fill="#FFE017"/>
</g>
<mask id="mask8_2121_16814" style="mask-type:alpha" maskUnits="userSpaceOnUse" x="0" y="3" width="13" height="12">
<path d="M6.32868 14.8554C3.13332 14.8554 0.542969 12.2338 0.542969 8.99995C0.542969 5.76609 3.13332 3.14453 6.32868 3.14453C9.52405 3.14453 12.1144 5.76609 12.1144 8.99995C12.1144 12.2338 9.52405 14.8554 6.32868 14.8554Z" fill="white"/>
</mask>
<g mask="url(#mask8_2121_16814)">
<path d="M11.6593 11.7268L10.7561 12.6528C9.03953 10.9379 7.52833 9.71166 6.23176 8.97488C4.91303 8.22552 3.19328 7.46459 1.0752 6.69516L1.50956 5.47046C3.69011 6.26258 5.47311 7.0515 6.86123 7.84029C8.2715 8.64168 9.86776 9.93693 11.6593 11.7268Z" fill="#FFE017"/>
</g>
<mask id="mask9_2121_16814" style="mask-type:alpha" maskUnits="userSpaceOnUse" x="0" y="3" width="13" height="12">
<path d="M6.32868 14.8554C3.13332 14.8554 0.542969 12.2338 0.542969 8.99995C0.542969 5.76609 3.13332 3.14453 6.32868 3.14453C9.52405 3.14453 12.1144 5.76609 12.1144 8.99995C12.1144 12.2338 9.52405 14.8554 6.32868 14.8554Z" fill="white"/>
</mask>
<g mask="url(#mask9_2121_16814)">
<path d="M1.49424 12.2515L1.15234 11.7881C1.20009 11.7521 1.28528 11.6919 1.40265 11.6156C1.59645 11.4897 1.81166 11.364 2.0432 11.2466C2.68093 10.9231 3.32063 10.7211 3.93077 10.7025C3.96061 10.7016 3.99032 10.7012 4.01991 10.7012V11.2795C3.99607 11.2795 3.97208 11.2799 3.94793 11.2806C3.43376 11.2962 2.8691 11.4745 2.29926 11.7636C2.08686 11.8713 1.88895 11.9869 1.71134 12.1023C1.64952 12.1425 1.59482 12.1796 1.54795 12.2127C1.52062 12.232 1.50248 12.2453 1.49424 12.2515Z" fill="#FFE017"/>
</g>
<mask id="mask10_2121_16814" style="mask-type:alpha" maskUnits="userSpaceOnUse" x="0" y="3" width="13" height="12">
<path d="M6.32868 14.8554C3.13332 14.8554 0.542969 12.2338 0.542969 8.99995C0.542969 5.76609 3.13332 3.14453 6.32868 3.14453C9.52405 3.14453 12.1144 5.76609 12.1144 8.99995C12.1144 12.2338 9.52405 14.8554 6.32868 14.8554Z" fill="white"/>
</mask>
<g mask="url(#mask10_2121_16814)">
<path d="M1.75977 12.4525L1.90367 11.8928C3.80876 12.3946 5.27747 12.6446 6.30249 12.6446C7.32367 12.6446 8.84362 12.3497 10.8524 11.7578L11.0122 12.3131C8.95583 12.9189 7.38923 13.2229 6.30249 13.2229C5.21958 13.2229 3.70778 12.9655 1.75977 12.4525Z" fill="#FFE017"/>
</g>
<mask id="mask11_2121_16814" style="mask-type:alpha" maskUnits="userSpaceOnUse" x="0" y="3" width="13" height="12">
<path d="M6.32868 14.8554C3.13332 14.8554 0.542969 12.2338 0.542969 8.99995C0.542969 5.76609 3.13332 3.14453 6.32868 3.14453C9.52405 3.14453 12.1144 5.76609 12.1144 8.99995C12.1144 12.2338 9.52405 14.8554 6.32868 14.8554Z" fill="white"/>
</mask>
<g mask="url(#mask11_2121_16814)">
<path d="M1.01758 7.27161L1.92289 6.34766L3.24838 7.67789L2.34307 8.60184L1.01758 7.27161Z" fill="#FFE017"/>
</g>
<mask id="mask12_2121_16814" style="mask-type:alpha" maskUnits="userSpaceOnUse" x="0" y="3" width="13" height="12">
<path d="M6.32868 14.8554C3.13332 14.8554 0.542969 12.2338 0.542969 8.99995C0.542969 5.76609 3.13332 3.14453 6.32868 3.14453C9.52405 3.14453 12.1144 5.76609 12.1144 8.99995C12.1144 12.2338 9.52405 14.8554 6.32868 14.8554Z" fill="white"/>
</mask>
<g mask="url(#mask12_2121_16814)">
<path d="M8.52734 11.8858L9.20072 10.7773L11.3034 12.0857L10.6301 13.1942L8.52734 11.8858Z" fill="#FFE017"/>
</g>
<path d="M6.32868 3.14453C9.52405 3.14453 12.1144 5.76609 12.1144 8.99995C12.1144 12.2338 9.52405 14.8554 6.32868 14.8554C3.13332 14.8554 0.542969 12.2338 0.542969 8.99995C0.542969 5.76609 3.13332 3.14453 6.32868 3.14453ZM6.40011 4.012C3.63869 4.012 1.40011 6.27755 1.40011 9.07224C1.40011 11.8669 3.63869 14.1325 6.40011 14.1325C9.16154 14.1325 11.4001 11.8669 11.4001 9.07224C11.4001 6.27755 9.16154 4.012 6.40011 4.012Z" fill="#F9E813"/>
<path d="M3.14258 5.38892V10.0844C3.45168 11.943 4.49303 12.8723 6.26662 12.8723C8.04021 12.8723 9.08156 11.943 9.39066 10.0844V5.38892H3.14258Z" fill="white"/>
<path d="M2.71387 4.95508H9.81909V10.1206L9.81315 10.1563C9.46992 12.2201 8.25315 13.3059 6.26648 13.3059C4.27981 13.3059 3.06304 12.2201 2.71981 10.1563L2.71387 10.1206V4.95508Z" fill="#C51918"/>
<path d="M4.33887 6.5332H8.19366V9.86388C8.00296 11.0105 7.36049 11.5838 6.26626 11.5838C5.17203 11.5838 4.52957 11.0105 4.33887 9.86388V6.5332Z" fill="#F7FCFF"/>
<path d="M3.40039 5.3125H3.94256V5.67395H3.40039V5.3125Z" fill="#F9E813"/>
<path d="M3.11426 5.45703H4.11426V5.63775H3.11426V5.45703Z" fill="#060101"/>
<path d="M3.11426 5.60156H3.65643V5.78229H3.11426V5.60156Z" fill="#F9E813"/>
<path d="M3.68555 5.60156H4.22772V5.78229H3.68555V5.60156Z" fill="#F9E813"/>
<path d="M3.11426 6.0354H3.4757V6.57757H3.11426V6.0354Z" fill="#F9E813"/>
<path d="M3.82812 6.0354H4.18957V6.57757H3.82812V6.0354Z" fill="#F9E813"/>
<path d="M3.54297 6.0354H3.72369V6.57757H3.54297V6.0354Z" fill="#F9E813"/>
<path d="M3.11426 5.89087H4.11426V6.07159H3.11426V5.89087Z" fill="#060101"/>
<path d="M3.11426 6.32422H4.11426V6.50494H3.11426V6.32422Z" fill="#060101"/>
<path d="M3.25684 5.74634H3.43756V5.92706H3.25684V5.74634Z" fill="#F9E813"/>
<path d="M3.82812 5.74634H4.00885V5.92706H3.82812V5.74634Z" fill="#F9E813"/>
<path d="M3.54297 5.60156H3.72369V5.96301H3.54297V5.60156Z" fill="#F9E813"/>
<path d="M6.11426 5.3125H6.65643V5.67395H6.11426V5.3125Z" fill="#F9E813"/>
<path d="M5.82812 5.45703H6.82812V5.63775H5.82812V5.45703Z" fill="#060101"/>
<path d="M5.82812 5.60156H6.37029V5.78229H5.82812V5.60156Z" fill="#F9E813"/>
<path d="M6.39941 5.60156H6.94158V5.78229H6.39941V5.60156Z" fill="#F9E813"/>
<path d="M5.82812 6.0354H6.18957V6.57757H5.82812V6.0354Z" fill="#F9E813"/>
<path d="M6.54199 6.0354H6.90344V6.57757H6.54199V6.0354Z" fill="#F9E813"/>
<path d="M6.25684 6.0354H6.43756V6.57757H6.25684V6.0354Z" fill="#F9E813"/>
<path d="M5.82812 5.89087H6.82812V6.07159H5.82812V5.89087Z" fill="#060101"/>
<path d="M5.82812 6.32422H6.82812V6.50494H5.82812V6.32422Z" fill="#060101"/>
<path d="M5.9707 5.74634H6.15143V5.92706H5.9707V5.74634Z" fill="#F9E813"/>
<path d="M6.54199 5.74634H6.72272V5.92706H6.54199V5.74634Z" fill="#F9E813"/>
<path d="M6.25684 5.60156H6.43756V5.96301H6.25684V5.60156Z" fill="#F9E813"/>
<path d="M8.68652 5.3125H9.22869V5.67395H8.68652V5.3125Z" fill="#F9E813"/>
<path d="M8.40039 5.45703H9.40039V5.63775H8.40039V5.45703Z" fill="#060101"/>
<path d="M8.40039 5.60156H8.94256V5.78229H8.40039V5.60156Z" fill="#F9E813"/>
<path d="M8.97168 5.60156H9.51385V5.78229H8.97168V5.60156Z" fill="#F9E813"/>
<path d="M8.40039 6.0354H8.76184V6.57757H8.40039V6.0354Z" fill="#F9E813"/>
<path d="M9.11426 6.0354H9.4757V6.57757H9.11426V6.0354Z" fill="#F9E813"/>
<path d="M8.8291 6.0354H9.00982V6.57757H8.8291V6.0354Z" fill="#F9E813"/>
<path d="M8.40039 5.89087H9.40039V6.07159H8.40039V5.89087Z" fill="#060101"/>
<path d="M8.40039 6.32422H9.40039V6.50494H8.40039V6.32422Z" fill="#060101"/>
<path d="M8.54297 5.74634H8.72369V5.92706H8.54297V5.74634Z" fill="#F9E813"/>
<path d="M9.11426 5.74634H9.29498V5.92706H9.11426V5.74634Z" fill="#F9E813"/>
<path d="M8.8291 5.60156H9.00982V5.96301H8.8291V5.60156Z" fill="#F9E813"/>
<path d="M8.68652 7.91406H9.22869V8.27551H8.68652V7.91406Z" fill="#F9E813"/>
<path d="M8.40039 8.05859H9.40039V8.23932H8.40039V8.05859Z" fill="#060101"/>
<path d="M8.40039 8.20312H8.94256V8.38385H8.40039V8.20312Z" fill="#F9E813"/>
<path d="M8.97168 8.20312H9.51385V8.38385H8.97168V8.20312Z" fill="#F9E813"/>
<path d="M8.40039 8.63696H8.76184V9.17913H8.40039V8.63696Z" fill="#F9E813"/>
<path d="M9.11426 8.63696H9.4757V9.17913H9.11426V8.63696Z" fill="#F9E813"/>
<path d="M8.8291 8.63696H9.00982V9.17913H8.8291V8.63696Z" fill="#F9E813"/>
<path d="M8.40039 8.49243H9.40039V8.67315H8.40039V8.49243Z" fill="#060101"/>
<path d="M8.40039 8.92578H9.40039V9.1065H8.40039V8.92578Z" fill="#060101"/>
<path d="M8.54297 8.3479H8.72369V8.52862H8.54297V8.3479Z" fill="#F9E813"/>
<path d="M9.11426 8.3479H9.29498V8.52862H9.11426V8.3479Z" fill="#F9E813"/>
<path d="M8.8291 8.20312H9.00982V8.56457H8.8291V8.20312Z" fill="#F9E813"/>
<path d="M3.40039 7.91406H3.94256V8.27551H3.40039V7.91406Z" fill="#F9E813"/>
<path d="M3.11426 8.05859H4.11426V8.23932H3.11426V8.05859Z" fill="#060101"/>
<path d="M3.11426 8.20312H3.65643V8.38385H3.11426V8.20312Z" fill="#F9E813"/>
<path d="M3.68555 8.20312H4.22772V8.38385H3.68555V8.20312Z" fill="#F9E813"/>
<path d="M3.11426 8.63696H3.4757V9.17913H3.11426V8.63696Z" fill="#F9E813"/>
<path d="M3.82812 8.63696H4.18957V9.17913H3.82812V8.63696Z" fill="#F9E813"/>
<path d="M3.54297 8.63696H3.72369V9.17913H3.54297V8.63696Z" fill="#F9E813"/>
<path d="M3.11426 8.49243H4.11426V8.67315H3.11426V8.49243Z" fill="#060101"/>
<path d="M3.11426 8.92578H4.11426V9.1065H3.11426V8.92578Z" fill="#060101"/>
<path d="M3.25684 8.3479H3.43756V8.52862H3.25684V8.3479Z" fill="#F9E813"/>
<path d="M3.82812 8.3479H4.00885V8.52862H3.82812V8.3479Z" fill="#F9E813"/>
<path d="M3.54297 8.20312H3.72369V8.56457H3.54297V8.20312Z" fill="#F9E813"/>
<path d="M3.74707 11.1777L4.09557 10.7624L4.37245 10.9947L4.02395 11.4101L3.74707 11.1777Z" fill="#F9E813"/>
<path d="M3.6748 11.4902L4.31759 10.7242L4.45603 10.8404L3.81325 11.6064L3.6748 11.4902Z" fill="#060101"/>
<path d="M3.78516 11.582L4.13366 11.1667L4.2721 11.2829L3.9236 11.6982L3.78516 11.582Z" fill="#F9E813"/>
<path d="M4.15234 11.1445L4.50084 10.7292L4.63928 10.8454L4.29079 11.2607L4.15234 11.1445Z" fill="#F9E813"/>
<path d="M4.11719 11.8613L4.34952 11.5844L4.76485 11.9329L4.53251 12.2098L4.11719 11.8613Z" fill="#F9E813"/>
<path d="M4.57617 11.3145L4.8085 11.0376L5.22383 11.3861L4.9915 11.663L4.57617 11.3145Z" fill="#F9E813"/>
<path d="M4.39258 11.5332L4.50874 11.3948L4.92407 11.7433L4.8079 11.8817L4.39258 11.5332Z" fill="#F9E813"/>
<path d="M4.00684 11.7676L4.64962 11.0015L4.78807 11.1177L4.14528 11.8837L4.00684 11.7676Z" fill="#060101"/>
<path d="M4.33887 12.0469L4.98165 11.2808L5.1201 11.397L4.47731 12.163L4.33887 12.0469Z" fill="#060101"/>
<path d="M3.98828 11.5664L4.10445 11.428L4.24289 11.5441L4.12672 11.6826L3.98828 11.5664Z" fill="#F9E813"/>
<path d="M4.35547 11.1289L4.47164 10.9905L4.61008 11.1066L4.49391 11.2451L4.35547 11.1289Z" fill="#F9E813"/>
<path d="M4.06055 11.2539L4.17671 11.1155L4.4536 11.3478L4.33743 11.4862L4.06055 11.2539Z" fill="#F9E813"/>
<path d="M8.63379 10.8496L8.98229 11.2649L8.7054 11.4973L8.35691 11.0819L8.63379 10.8496Z" fill="#F9E813"/>
<path d="M8.33984 10.7246L8.98263 11.4907L8.84419 11.6068L8.2014 10.8408L8.33984 10.7246Z" fill="#060101"/>
<path d="M8.22852 10.8164L8.57701 11.2317L8.43857 11.3479L8.09007 10.9326L8.22852 10.8164Z" fill="#F9E813"/>
<path d="M8.59668 11.2539L8.94518 11.6692L8.80674 11.7854L8.45824 11.3701L8.59668 11.2539Z" fill="#F9E813"/>
<path d="M7.89648 11.0957L8.12882 11.3726L7.71349 11.7211L7.48116 11.4442L7.89648 11.0957Z" fill="#F9E813"/>
<path d="M8.35547 11.6426L8.5878 11.9195L8.17248 12.268L7.94014 11.9911L8.35547 11.6426Z" fill="#F9E813"/>
<path d="M8.17188 11.4238L8.28804 11.5623L7.87272 11.9108L7.75655 11.7723L8.17188 11.4238Z" fill="#F9E813"/>
<path d="M8.00781 11.002L8.6506 11.768L8.51216 11.8842L7.86937 11.1181L8.00781 11.002Z" fill="#060101"/>
<path d="M7.6748 11.2812L8.31759 12.0473L8.17915 12.1635L7.53636 11.3974L7.6748 11.2812Z" fill="#060101"/>
<path d="M8.20996 11.0195L8.32613 11.158L8.18769 11.2741L8.07152 11.1357L8.20996 11.0195Z" fill="#F9E813"/>
<path d="M8.57715 11.457L8.69331 11.5955L8.55487 11.7116L8.43871 11.5732L8.57715 11.457Z" fill="#F9E813"/>
<path d="M8.50488 11.1445L8.62105 11.283L8.34417 11.5153L8.228 11.3769L8.50488 11.1445Z" fill="#F9E813"/>
<path d="M6.81837 6.9043V7.6254C6.76939 7.87366 6.60434 7.99778 6.32325 7.99778C6.04216 7.99778 5.87711 7.87366 5.82812 7.6254V6.9043H6.81837ZM6.11384 7.62719C6.03494 7.62719 5.97098 7.69192 5.97098 7.77177C5.97098 7.85161 6.03494 7.91634 6.11384 7.91634C6.19274 7.91634 6.2567 7.85161 6.2567 7.77177C6.2567 7.69192 6.19274 7.62719 6.11384 7.62719ZM6.54241 7.62719C6.46351 7.62719 6.39955 7.69192 6.39955 7.77177C6.39955 7.85161 6.46351 7.91634 6.54241 7.91634C6.62131 7.91634 6.68527 7.85161 6.68527 7.77177C6.68527 7.69192 6.62131 7.62719 6.54241 7.62719ZM6.32812 7.33803C6.24923 7.33803 6.18527 7.40276 6.18527 7.48261C6.18527 7.56246 6.24923 7.62719 6.32812 7.62719C6.40702 7.62719 6.47098 7.56246 6.47098 7.48261C6.47098 7.40276 6.40702 7.33803 6.32812 7.33803ZM6.11384 7.04888C6.03494 7.04888 5.97098 7.11361 5.97098 7.19345C5.97098 7.2733 6.03494 7.33803 6.11384 7.33803C6.19274 7.33803 6.2567 7.2733 6.2567 7.19345C6.2567 7.11361 6.19274 7.04888 6.11384 7.04888ZM6.54241 7.04888C6.46351 7.04888 6.39955 7.11361 6.39955 7.19345C6.39955 7.2733 6.46351 7.33803 6.54241 7.33803C6.62131 7.33803 6.68527 7.2733 6.68527 7.19345C6.68527 7.11361 6.62131 7.04888 6.54241 7.04888Z" fill="#013399"/>
<path d="M6.81837 8.49414V9.21525C6.76939 9.4635 6.60434 9.58763 6.32325 9.58763C6.04216 9.58763 5.87711 9.4635 5.82812 9.21525V8.49414H6.81837ZM6.11384 9.21703C6.03494 9.21703 5.97098 9.28176 5.97098 9.36161C5.97098 9.44146 6.03494 9.50619 6.11384 9.50619C6.19274 9.50619 6.2567 9.44146 6.2567 9.36161C6.2567 9.28176 6.19274 9.21703 6.11384 9.21703ZM6.54241 9.21703C6.46351 9.21703 6.39955 9.28176 6.39955 9.36161C6.39955 9.44146 6.46351 9.50619 6.54241 9.50619C6.62131 9.50619 6.68527 9.44146 6.68527 9.36161C6.68527 9.28176 6.62131 9.21703 6.54241 9.21703ZM6.32812 8.92788C6.24923 8.92788 6.18527 8.99261 6.18527 9.07245C6.18527 9.1523 6.24923 9.21703 6.32812 9.21703C6.40702 9.21703 6.47098 9.1523 6.47098 9.07245C6.47098 8.99261 6.40702 8.92788 6.32812 8.92788ZM6.11384 8.63872C6.03494 8.63872 5.97098 8.70345 5.97098 8.7833C5.97098 8.86315 6.03494 8.92788 6.11384 8.92788C6.19274 8.92788 6.2567 8.86315 6.2567 8.7833C6.2567 8.70345 6.19274 8.63872 6.11384 8.63872ZM6.54241 8.63872C6.46351 8.63872 6.39955 8.70345 6.39955 8.7833C6.39955 8.86315 6.46351 8.92788 6.54241 8.92788C6.62131 8.92788 6.68527 8.86315 6.68527 8.7833C6.68527 8.70345 6.62131 8.63872 6.54241 8.63872Z" fill="#013399"/>
<path d="M8.10451 8.49414V9.21525C8.05552 9.4635 7.89048 9.58763 7.60938 9.58763C7.32829 9.58763 7.16325 9.4635 7.11426 9.21525V8.49414H8.10451ZM7.39997 9.21703C7.32107 9.21703 7.25711 9.28176 7.25711 9.36161C7.25711 9.44146 7.32107 9.50619 7.39997 9.50619C7.47887 9.50619 7.54283 9.44146 7.54283 9.36161C7.54283 9.28176 7.47887 9.21703 7.39997 9.21703ZM7.82854 9.21703C7.74965 9.21703 7.68569 9.28176 7.68569 9.36161C7.68569 9.44146 7.74965 9.50619 7.82854 9.50619C7.90744 9.50619 7.9714 9.44146 7.9714 9.36161C7.9714 9.28176 7.90744 9.21703 7.82854 9.21703ZM7.61426 8.92788C7.53536 8.92788 7.4714 8.99261 7.4714 9.07245C7.4714 9.1523 7.53536 9.21703 7.61426 9.21703C7.69316 9.21703 7.75711 9.1523 7.75711 9.07245C7.75711 8.99261 7.69316 8.92788 7.61426 8.92788ZM7.39997 8.63872C7.32107 8.63872 7.25711 8.70345 7.25711 8.7833C7.25711 8.86315 7.32107 8.92788 7.39997 8.92788C7.47887 8.92788 7.54283 8.86315 7.54283 8.7833C7.54283 8.70345 7.47887 8.63872 7.39997 8.63872ZM7.82854 8.63872C7.74965 8.63872 7.68569 8.70345 7.68569 8.7833C7.68569 8.86315 7.74965 8.92788 7.82854 8.92788C7.90744 8.92788 7.9714 8.86315 7.9714 8.7833C7.9714 8.70345 7.90744 8.63872 7.82854 8.63872Z" fill="#013399"/>
<path d="M5.53322 8.49414V9.21525C5.48423 9.4635 5.31919 9.58763 5.03809 9.58763C4.757 9.58763 4.59196 9.4635 4.54297 9.21525V8.49414H5.53322ZM4.82868 9.21703C4.74979 9.21703 4.68583 9.28176 4.68583 9.36161C4.68583 9.44146 4.74979 9.50619 4.82868 9.50619C4.90758 9.50619 4.97154 9.44146 4.97154 9.36161C4.97154 9.28176 4.90758 9.21703 4.82868 9.21703ZM5.25725 9.21703C5.17836 9.21703 5.1144 9.28176 5.1144 9.36161C5.1144 9.44146 5.17836 9.50619 5.25725 9.50619C5.33615 9.50619 5.40011 9.44146 5.40011 9.36161C5.40011 9.28176 5.33615 9.21703 5.25725 9.21703ZM5.04297 8.92788C4.96407 8.92788 4.90011 8.99261 4.90011 9.07245C4.90011 9.1523 4.96407 9.21703 5.04297 9.21703C5.12187 9.21703 5.18583 9.1523 5.18583 9.07245C5.18583 8.99261 5.12187 8.92788 5.04297 8.92788ZM4.82868 8.63872C4.74979 8.63872 4.68583 8.70345 4.68583 8.7833C4.68583 8.86315 4.74979 8.92788 4.82868 8.92788C4.90758 8.92788 4.97154 8.86315 4.97154 8.7833C4.97154 8.70345 4.90758 8.63872 4.82868 8.63872ZM5.25725 8.63872C5.17836 8.63872 5.1144 8.70345 5.1144 8.7833C5.1144 8.86315 5.17836 8.92788 5.25725 8.92788C5.33615 8.92788 5.40011 8.86315 5.40011 8.7833C5.40011 8.70345 5.33615 8.63872 5.25725 8.63872Z" fill="#013399"/>
<path d="M6.81837 10.0842V10.8053C6.76939 11.0536 6.60434 11.1777 6.32325 11.1777C6.04216 11.1777 5.87711 11.0536 5.82812 10.8053V10.0842H6.81837ZM6.11384 10.8071C6.03494 10.8071 5.97098 10.8718 5.97098 10.9517C5.97098 11.0315 6.03494 11.0963 6.11384 11.0963C6.19274 11.0963 6.2567 11.0315 6.2567 10.9517C6.2567 10.8718 6.19274 10.8071 6.11384 10.8071ZM6.54241 10.8071C6.46351 10.8071 6.39955 10.8718 6.39955 10.9517C6.39955 11.0315 6.46351 11.0963 6.54241 11.0963C6.62131 11.0963 6.68527 11.0315 6.68527 10.9517C6.68527 10.8718 6.62131 10.8071 6.54241 10.8071ZM6.32812 10.518C6.24923 10.518 6.18527 10.5827 6.18527 10.6625C6.18527 10.7424 6.24923 10.8071 6.32812 10.8071C6.40702 10.8071 6.47098 10.7424 6.47098 10.6625C6.47098 10.5827 6.40702 10.518 6.32812 10.518ZM6.11384 10.2288C6.03494 10.2288 5.97098 10.2935 5.97098 10.3734C5.97098 10.4532 6.03494 10.518 6.11384 10.518C6.19274 10.518 6.2567 10.4532 6.2567 10.3734C6.2567 10.2935 6.19274 10.2288 6.11384 10.2288ZM6.54241 10.2288C6.46351 10.2288 6.39955 10.2935 6.39955 10.3734C6.39955 10.4532 6.46351 10.518 6.54241 10.518C6.62131 10.518 6.68527 10.4532 6.68527 10.3734C6.68527 10.2935 6.62131 10.2288 6.54241 10.2288Z" fill="#013399"/>
</g>
</g>
<mask id="mask13_2121_16814" style="mask-type:alpha" maskUnits="userSpaceOnUse" x="0" y="0" width="19" height="18">
<path d="M9.40039 18C14.371 18 18.4004 13.9706 18.4004 9C18.4004 4.02944 14.371 0 9.40039 0C4.42983 0 0.400391 4.02944 0.400391 9C0.400391 13.9706 4.42983 18 9.40039 18Z" fill="white"/>
</mask>
<g mask="url(#mask13_2121_16814)">
<path d="M20.5004 0H-1.69961C-2.19667 0 -2.59961 0.402944 -2.59961 0.9V17.1C-2.59961 17.5971 -2.19667 18 -1.69961 18H20.5004C20.9974 18 21.4004 17.5971 21.4004 17.1V0.9C21.4004 0.402944 20.9974 0 20.5004 0Z" fill="black"/>
<mask id="mask14_2121_16814" style="mask-type:alpha" maskUnits="userSpaceOnUse" x="-3" y="0" width="25" height="18">
<path d="M20.5004 0H-1.69961C-2.19667 0 -2.59961 0.402944 -2.59961 0.9V17.1C-2.59961 17.5971 -2.19667 18 -1.69961 18H20.5004C20.9974 18 21.4004 17.5971 21.4004 17.1V0.9C21.4004 0.402944 20.9974 0 20.5004 0Z" fill="white"/>
</mask>
<g mask="url(#mask14_2121_16814)">
<mask id="mask15_2121_16814" style="mask-type:alpha" maskUnits="userSpaceOnUse" x="-3" y="0" width="25" height="18">
<path d="M21.4004 0H-2.59961V18H21.4004V0Z" fill="white"/>
</mask>
<g mask="url(#mask15_2121_16814)">
<path d="M21.4004 0H-2.59961V18H21.4004V0Z" fill="#009933"/>
<mask id="mask16_2121_16814" style="mask-type:alpha" maskUnits="userSpaceOnUse" x="-3" y="0" width="25" height="18">
<path d="M21.4004 0H-2.59961V18H21.4004V0Z" fill="white"/>
</mask>
<g mask="url(#mask16_2121_16814)">
<path d="M9.3462 2.77734L18.4976 9.15494L9.22172 15.1278L0.257812 9.03132L9.3462 2.77734Z" fill="black"/>
<path fill-rule="evenodd" clip-rule="evenodd" d="M9.3462 2.77734L18.4976 9.15494L9.22172 15.1278L0.257812 9.03132L9.3462 2.77734Z" fill="#FFD221"/>
<path fill-rule="evenodd" clip-rule="evenodd" d="M9.3462 2.77734L18.4976 9.15494L9.22172 15.1278L0.257812 9.03132L9.3462 2.77734Z" fill="url(#paint0_linear_2121_16814)"/>
<path d="M9.40039 12.8984C11.4715 12.8984 13.1504 11.2195 13.1504 9.14844C13.1504 7.07737 11.4715 5.39844 9.40039 5.39844C7.32932 5.39844 5.65039 7.07737 5.65039 9.14844C5.65039 11.2195 7.32932 12.8984 9.40039 12.8984Z" fill="#2E42A5"/>
<mask id="mask17_2121_16814" style="mask-type:alpha" maskUnits="userSpaceOnUse" x="5" y="5" width="9" height="8">
<path d="M9.40039 12.8984C11.4715 12.8984 13.1504 11.2195 13.1504 9.14844C13.1504 7.07737 11.4715 5.39844 9.40039 5.39844C7.32932 5.39844 5.65039 7.07737 5.65039 9.14844C5.65039 11.2195 7.32932 12.8984 9.40039 12.8984Z" fill="white"/>
</mask>
<g mask="url(#mask17_2121_16814)">
<path d="M8.18511 10.9255L8.01759 11.0136L8.04959 10.8271L7.91406 10.695L8.10135 10.6678L8.18511 10.498L8.26887 10.6678L8.45616 10.695L8.32064 10.8271L8.35263 11.0136L8.18511 10.9255Z" fill="#F7FCFF"/>
</g>
<mask id="mask18_2121_16814" style="mask-type:alpha" maskUnits="userSpaceOnUse" x="5" y="5" width="9" height="8">
<path d="M9.40039 12.8984C11.4715 12.8984 13.1504 11.2195 13.1504 9.14844C13.1504 7.07737 11.4715 5.39844 9.40039 5.39844C7.32932 5.39844 5.65039 7.07737 5.65039 9.14844C5.65039 11.2195 7.32932 12.8984 9.40039 12.8984Z" fill="white"/>
</mask>
<g mask="url(#mask18_2121_16814)">
<path d="M9.68511 10.9255L9.51759 11.0136L9.54959 10.8271L9.41406 10.695L9.60135 10.6678L9.68511 10.498L9.76887 10.6678L9.95616 10.695L9.82064 10.8271L9.85263 11.0136L9.68511 10.9255Z" fill="#F7FCFF"/>
</g>
<mask id="mask19_2121_16814" style="mask-type:alpha" maskUnits="userSpaceOnUse" x="5" y="5" width="9" height="8">
<path d="M9.40039 12.8984C11.4715 12.8984 13.1504 11.2195 13.1504 9.14844C13.1504 7.07737 11.4715 5.39844 9.40039 5.39844C7.32932 5.39844 5.65039 7.07737 5.65039 9.14844C5.65039 11.2195 7.32932 12.8984 9.40039 12.8984Z" fill="white"/>
</mask>
<g mask="url(#mask19_2121_16814)">
<path d="M9.68511 11.8259L9.51759 11.914L9.54959 11.7275L9.41406 11.5954L9.60135 11.5682L9.68511 11.3984L9.76887 11.5682L9.95616 11.5954L9.82064 11.7275L9.85263 11.914L9.68511 11.8259Z" fill="#F7FCFF"/>
</g>
<mask id="mask20_2121_16814" style="mask-type:alpha" maskUnits="userSpaceOnUse" x="5" y="5" width="9" height="8">
<path d="M9.40039 12.8984C11.4715 12.8984 13.1504 11.2195 13.1504 9.14844C13.1504 7.07737 11.4715 5.39844 9.40039 5.39844C7.32932 5.39844 5.65039 7.07737 5.65039 9.14844C5.65039 11.2195 7.32932 12.8984 9.40039 12.8984Z" fill="white"/>
</mask>
<g mask="url(#mask20_2121_16814)">
<path d="M8.93511 8.67555L8.76759 8.76362L8.79959 8.57708L8.66406 8.44498L8.85135 8.41776L8.93511 8.24805L9.01887 8.41776L9.20616 8.44498L9.07064 8.57708L9.10263 8.76362L8.93511 8.67555Z" fill="#F7FCFF"/>
</g>
<mask id="mask21_2121_16814" style="mask-type:alpha" maskUnits="userSpaceOnUse" x="5" y="5" width="9" height="8">
<path d="M9.40039 12.8984C11.4715 12.8984 13.1504 11.2195 13.1504 9.14844C13.1504 7.07737 11.4715 5.39844 9.40039 5.39844C7.32932 5.39844 5.65039 7.07737 5.65039 9.14844C5.65039 11.2195 7.32932 12.8984 9.40039 12.8984Z" fill="white"/>
</mask>
<g mask="url(#mask21_2121_16814)">
<path d="M8.93511 10.1755L8.76759 10.2636L8.79959 10.0771L8.66406 9.94498L8.85135 9.91776L8.93511 9.74805L9.01887 9.91776L9.20616 9.94498L9.07064 10.0771L9.10263 10.2636L8.93511 10.1755Z" fill="#F7FCFF"/>
</g>
<mask id="mask22_2121_16814" style="mask-type:alpha" maskUnits="userSpaceOnUse" x="5" y="5" width="9" height="8">
<path d="M9.40039 12.8984C11.4715 12.8984 13.1504 11.2195 13.1504 9.14844C13.1504 7.07737 11.4715 5.39844 9.40039 5.39844C7.32932 5.39844 5.65039 7.07737 5.65039 9.14844C5.65039 11.2195 7.32932 12.8984 9.40039 12.8984Z" fill="white"/>
</mask>
<g mask="url(#mask22_2121_16814)">
<path d="M7.88531 9.42555L7.71779 9.51362L7.74978 9.32708L7.61426 9.19498L7.80155 9.16776L7.88531 8.99805L7.96907 9.16776L8.15636 9.19498L8.02083 9.32708L8.05283 9.51362L7.88531 9.42555Z" fill="#F7FCFF"/>
</g>
<mask id="mask23_2121_16814" style="mask-type:alpha" maskUnits="userSpaceOnUse" x="5" y="5" width="9" height="8">
<path d="M9.40039 12.8984C11.4715 12.8984 13.1504 11.2195 13.1504 9.14844C13.1504 7.07737 11.4715 5.39844 9.40039 5.39844C7.32932 5.39844 5.65039 7.07737 5.65039 9.14844C5.65039 11.2195 7.32932 12.8984 9.40039 12.8984Z" fill="white"/>
</mask>
<g mask="url(#mask23_2121_16814)">
<path d="M6.8355 10.0252L6.66799 10.1132L6.69998 9.92669L6.56445 9.79459L6.75174 9.76737L6.8355 9.59766L6.91926 9.76737L7.10656 9.79459L6.97103 9.92669L7.00302 10.1132L6.8355 10.0252Z" fill="#F7FCFF"/>
</g>
<mask id="mask24_2121_16814" style="mask-type:alpha" maskUnits="userSpaceOnUse" x="5" y="5" width="9" height="8">
<path d="M9.40039 12.8984C11.4715 12.8984 13.1504 11.2195 13.1504 9.14844C13.1504 7.07737 11.4715 5.39844 9.40039 5.39844C7.32932 5.39844 5.65039 7.07737 5.65039 9.14844C5.65039 11.2195 7.32932 12.8984 9.40039 12.8984Z" fill="white"/>
</mask>
<g mask="url(#mask24_2121_16814)">
<path d="M10.2847 7.47633L10.1172 7.5644L10.1492 7.37786L10.0137 7.24576L10.201 7.21854L10.2847 7.04883L10.3685 7.21854L10.5558 7.24576L10.4202 7.37786L10.4522 7.5644L10.2847 7.47633Z" fill="#F7FCFF"/>
</g>
<mask id="mask25_2121_16814" style="mask-type:alpha" maskUnits="userSpaceOnUse" x="5" y="5" width="9" height="8">
<path d="M9.40039 12.8984C11.4715 12.8984 13.1504 11.2195 13.1504 9.14844C13.1504 7.07737 11.4715 5.39844 9.40039 5.39844C7.32932 5.39844 5.65039 7.07737 5.65039 9.14844C5.65039 11.2195 7.32932 12.8984 9.40039 12.8984Z" fill="white"/>
</mask>
<g mask="url(#mask25_2121_16814)">
<path d="M4.84375 8.24575L4.95654 6.75C8.55499 7.02134 11.3952 8.20452 13.4413 10.3092L12.3658 11.3548C10.5924 9.53062 8.09693 8.49106 4.84375 8.24575Z" fill="#F7FCFF"/>
</g>
<mask id="mask26_2121_16814" style="mask-type:alpha" maskUnits="userSpaceOnUse" x="5" y="5" width="9" height="8">
<path d="M9.40039 12.8984C11.4715 12.8984 13.1504 11.2195 13.1504 9.14844C13.1504 7.07737 11.4715 5.39844 9.40039 5.39844C7.32932 5.39844 5.65039 7.07737 5.65039 9.14844C5.65039 11.2195 7.32932 12.8984 9.40039 12.8984Z" fill="white"/>
</mask>
<g mask="url(#mask26_2121_16814)">
<path d="M6.61719 7.95113L6.65583 7.57812C8.97555 7.81841 10.9652 8.70693 12.6189 10.2418L12.3638 10.5166C10.7703 9.03763 8.85676 8.18312 6.61719 7.95113Z" fill="#009933"/>
</g>
</g>
</g>
</g>
<mask id="mask27_2121_16814" style="mask-type:alpha" maskUnits="userSpaceOnUse" x="-3" y="0" width="25" height="18">
<path d="M20.5004 0H-1.69961C-2.19667 0 -2.59961 0.402944 -2.59961 0.9V17.1C-2.59961 17.5971 -2.19667 18 -1.69961 18H20.5004C20.9974 18 21.4004 17.5971 21.4004 17.1V0.9C21.4004 0.402944 20.9974 0 20.5004 0Z" fill="white"/>
</mask>
<g mask="url(#mask27_2121_16814)">
<path d="M20.1254 0.375H-1.32461C-1.82167 0.375 -2.22461 0.777944 -2.22461 1.275V16.725C-2.22461 17.2221 -1.82167 17.625 -1.32461 17.625H20.1254C20.6224 17.625 21.0254 17.2221 21.0254 16.725V1.275C21.0254 0.777944 20.6224 0.375 20.1254 0.375Z" stroke="black" stroke-opacity="0.1"/>
</g>
</g>
</g>
<defs>
<linearGradient id="paint0_linear_2121_16814" x1="9.3777" y1="15.1278" x2="9.3777" y2="2.77734" gradientUnits="userSpaceOnUse">
<stop stop-color="#FFC600"/>
<stop offset="1" stop-color="#FFDE42"/>
</linearGradient>
<clipPath id="clip0_2121_16814">
<rect width="18" height="18" fill="white" transform="translate(0.400391)"/>
</clipPath>
</defs>
</svg>
