<svg width="19" height="18" viewBox="0 0 19 18" fill="none" xmlns="http://www.w3.org/2000/svg">
<g clip-path="url(#clip0_2121_17339)">
<mask id="mask0_2121_17339" style="mask-type:alpha" maskUnits="userSpaceOnUse" x="0" y="0" width="19" height="18">
<path d="M9.5 18C14.4706 18 18.5 13.9706 18.5 9C18.5 4.02944 14.4706 0 9.5 0C4.52944 0 0.5 4.02944 0.5 9C0.5 13.9706 4.52944 18 9.5 18Z" fill="white"/>
</mask>
<g mask="url(#mask0_2121_17339)">
<path d="M20.6273 0H-1.58633C-2.08338 0 -2.48633 0.402944 -2.48633 0.9V17.1C-2.48633 17.5971 -2.08338 18 -1.58633 18H20.6273C21.1244 18 21.5273 17.5971 21.5273 17.1V0.9C21.5273 0.402944 21.1244 0 20.6273 0Z" fill="black"/>
<mask id="mask1_2121_17339" style="mask-type:alpha" maskUnits="userSpaceOnUse" x="-3" y="0" width="25" height="18">
<path d="M20.6273 0H-1.58633C-2.08338 0 -2.48633 0.402944 -2.48633 0.9V17.1C-2.48633 17.5971 -2.08338 18 -1.58633 18H20.6273C21.1244 18 21.5273 17.5971 21.5273 17.1V0.9C21.5273 0.402944 21.1244 0 20.6273 0Z" fill="white"/>
</mask>
<g mask="url(#mask1_2121_17339)">
<mask id="mask2_2121_17339" style="mask-type:alpha" maskUnits="userSpaceOnUse" x="-3" y="0" width="25" height="18">
<path d="M21.5273 0H-2.48633V18H21.5273V0Z" fill="white"/>
</mask>
<g mask="url(#mask2_2121_17339)">
<path d="M-2.48633 0H21.5273V18H-2.48633V0Z" fill="#E31D1C"/>
<path d="M8.78185 3.41208L8.02379 3.86945L8.1967 2.97693L7.56543 2.30897L8.42021 2.27285L8.78185 1.43945L9.14349 2.27285H9.99681L9.36699 2.97693L9.5566 3.86945L8.78185 3.41208Z" fill="#FECA00"/>
<path d="M2.77959 7.20625L0.617736 8.36945L1.11084 6.09958L-0.689453 4.40081L1.74825 4.30895L2.77959 2.18945L3.81093 4.30895H6.24448L4.44834 6.09958L4.98908 8.36945L2.77959 7.20625Z" fill="#FECA00"/>
<path d="M10.2828 6.41208L9.52477 6.86945L9.69768 5.97693L9.06641 5.30897L9.92118 5.27285L10.2828 4.43945L10.6445 5.27285H11.4978L10.868 5.97693L11.0576 6.86945L10.2828 6.41208Z" fill="#FECA00"/>
<path d="M9.53185 9.41208L8.77379 9.86945L8.9467 8.97693L8.31543 8.30897L9.17021 8.27285L9.53185 7.43945L9.89349 8.27285H10.7468L10.117 8.97693L10.3066 9.86945L9.53185 9.41208Z" fill="#FECA00"/>
<path d="M7.28087 11.6621L6.52282 12.1195L6.69573 11.2269L6.06445 10.559L6.91923 10.5228L7.28087 9.68945L7.64251 10.5228H8.49583L7.86602 11.2269L8.05563 12.1195L7.28087 11.6621Z" fill="#FECA00"/>
</g>
</g>
<mask id="mask3_2121_17339" style="mask-type:alpha" maskUnits="userSpaceOnUse" x="-3" y="0" width="25" height="18">
<path d="M20.6273 0H-1.58633C-2.08338 0 -2.48633 0.402944 -2.48633 0.9V17.1C-2.48633 17.5971 -2.08338 18 -1.58633 18H20.6273C21.1244 18 21.5273 17.5971 21.5273 17.1V0.9C21.5273 0.402944 21.1244 0 20.6273 0Z" fill="white"/>
</mask>
<g mask="url(#mask3_2121_17339)">
<path d="M20.2519 0.375H-1.21133C-1.70838 0.375 -2.11133 0.777944 -2.11133 1.275V16.725C-2.11133 17.2221 -1.70838 17.625 -1.21133 17.625H20.2519C20.7489 17.625 21.1519 17.2221 21.1519 16.725V1.275C21.1519 0.777944 20.7489 0.375 20.2519 0.375Z" stroke="black" stroke-opacity="0.1"/>
</g>
</g>
</g>
<defs>
<clipPath id="clip0_2121_17339">
<rect width="18" height="18" fill="white" transform="translate(0.5)"/>
</clipPath>
</defs>
</svg>
