<svg width="19" height="18" viewBox="0 0 19 18" fill="none" xmlns="http://www.w3.org/2000/svg">
<g clip-path="url(#clip0_2121_17318)">
<mask id="mask0_2121_17318" style="mask-type:alpha" maskUnits="userSpaceOnUse" x="0" y="0" width="19" height="18">
<path d="M9.59961 18C14.5702 18 18.5996 13.9706 18.5996 9C18.5996 4.02944 14.5702 0 9.59961 0C4.62905 0 0.599609 4.02944 0.599609 9C0.599609 13.9706 4.62905 18 9.59961 18Z" fill="white"/>
</mask>
<g mask="url(#mask0_2121_17318)">
<mask id="mask1_2121_17318" style="mask-type:alpha" maskUnits="userSpaceOnUse" x="-3" y="0" width="25" height="18">
<path d="M21.5996 0H-2.40039V18H21.5996V0Z" fill="white"/>
</mask>
<g mask="url(#mask1_2121_17318)">
<path d="M14.0996 0H21.5996V18H14.0996V0Z" fill="#F50100"/>
<path d="M-2.40039 0H6.59961V18H-2.40039V0Z" fill="#2E42A5"/>
<path d="M5.09961 0H14.0996V18H5.09961V0Z" fill="#F7FCFF"/>
</g>
</g>
</g>
<defs>
<clipPath id="clip0_2121_17318">
<rect width="18" height="18" fill="white" transform="translate(0.599609)"/>
</clipPath>
</defs>
</svg>
