<svg width="19" height="18" viewBox="0 0 19 18" fill="none" xmlns="http://www.w3.org/2000/svg">
<g clip-path="url(#clip0_2121_17055)">
<mask id="mask0_2121_17055" style="mask-type:alpha" maskUnits="userSpaceOnUse" x="0" y="0" width="19" height="18">
<path d="M9.2998 18C14.2704 18 18.2998 13.9706 18.2998 9C18.2998 4.02944 14.2704 0 9.2998 0C4.32924 0 0.299805 4.02944 0.299805 9C0.299805 13.9706 4.32924 18 9.2998 18Z" fill="white"/>
</mask>
<g mask="url(#mask0_2121_17055)">
<mask id="mask1_2121_17055" style="mask-type:alpha" maskUnits="userSpaceOnUse" x="-3" y="0" width="25" height="18">
<path d="M21.2998 0H-2.7002V18H21.2998V0Z" fill="white"/>
</mask>
<g mask="url(#mask1_2121_17055)">
<path d="M3.2998 0H21.2998V18H3.2998V0Z" fill="#EF0000"/>
<path d="M-2.7002 0H6.2998V18H-2.7002V0Z" fill="#2F8D00"/>
<mask id="mask2_2121_17055" style="mask-type:alpha" maskUnits="userSpaceOnUse" x="0" y="3" width="13" height="12">
<path d="M6.2281 14.8554C3.03274 14.8554 0.442383 12.2338 0.442383 8.99995C0.442383 5.76609 3.03274 3.14453 6.2281 3.14453C9.42346 3.14453 12.0138 5.76609 12.0138 8.99995C12.0138 12.2338 9.42346 14.8554 6.2281 14.8554Z" fill="white"/>
</mask>
<g mask="url(#mask2_2121_17055)">
<path d="M5.87109 3H6.62109V5.0241H5.87109V3Z" fill="#FFE017"/>
</g>
<mask id="mask3_2121_17055" style="mask-type:alpha" maskUnits="userSpaceOnUse" x="0" y="3" width="13" height="12">
<path d="M6.2281 14.8554C3.03274 14.8554 0.442383 12.2338 0.442383 8.99995C0.442383 5.76609 3.03274 3.14453 6.2281 3.14453C9.42346 3.14453 12.0138 5.76609 12.0138 8.99995C12.0138 12.2338 9.42346 14.8554 6.2281 14.8554Z" fill="white"/>
</mask>
<g mask="url(#mask3_2121_17055)">
<path d="M5.87109 13.1211H6.62109V15.0006H5.87109V13.1211Z" fill="#FFE017"/>
</g>
<mask id="mask4_2121_17055" style="mask-type:alpha" maskUnits="userSpaceOnUse" x="0" y="3" width="13" height="12">
<path d="M6.2281 14.8554C3.03274 14.8554 0.442383 12.2338 0.442383 8.99995C0.442383 5.76609 3.03274 3.14453 6.2281 3.14453C9.42346 3.14453 12.0138 5.76609 12.0138 8.99995C12.0138 12.2338 9.42346 14.8554 6.2281 14.8554Z" fill="white"/>
</mask>
<g mask="url(#mask4_2121_17055)">
<path d="M0.535859 9.30204L0.326172 8.76407C2.64006 7.84031 4.38648 7.24458 5.57147 6.9761C7.31007 6.58219 9.22037 6.29075 11.3025 6.10156L11.3536 6.67756C9.29536 6.86458 7.40954 7.15228 5.69631 7.54044C4.54659 7.80093 2.82443 8.38839 0.535859 9.30204Z" fill="#FFE017"/>
</g>
<mask id="mask5_2121_17055" style="mask-type:alpha" maskUnits="userSpaceOnUse" x="0" y="3" width="13" height="12">
<path d="M6.2281 14.8554C3.03274 14.8554 0.442383 12.2338 0.442383 8.99995C0.442383 5.76609 3.03274 3.14453 6.2281 3.14453C9.42346 3.14453 12.0138 5.76609 12.0138 8.99995C12.0138 12.2338 9.42346 14.8554 6.2281 14.8554Z" fill="white"/>
</mask>
<g mask="url(#mask5_2121_17055)">
<path d="M11.6551 5.74733L11.4849 6.29941C9.73612 5.74732 8.31155 5.51001 7.21653 5.58352L7.17871 5.00647C8.3544 4.92755 9.84475 5.17582 11.6551 5.74733Z" fill="#FFE017"/>
</g>
<mask id="mask6_2121_17055" style="mask-type:alpha" maskUnits="userSpaceOnUse" x="0" y="3" width="13" height="12">
<path d="M6.2281 14.8554C3.03274 14.8554 0.442383 12.2338 0.442383 8.99995C0.442383 5.76609 3.03274 3.14453 6.2281 3.14453C9.42346 3.14453 12.0138 5.76609 12.0138 8.99995C12.0138 12.2338 9.42346 14.8554 6.2281 14.8554Z" fill="white"/>
</mask>
<g mask="url(#mask6_2121_17055)">
<path d="M12.2605 8.83402L11.9372 9.3109C11.0457 8.69195 9.94741 8.38105 8.63477 8.38105V7.80273C10.0578 7.80273 11.2689 8.14555 12.2605 8.83402Z" fill="#FFE017"/>
</g>
<mask id="mask7_2121_17055" style="mask-type:alpha" maskUnits="userSpaceOnUse" x="0" y="3" width="13" height="12">
<path d="M6.2281 14.8554C3.03274 14.8554 0.442383 12.2338 0.442383 8.99995C0.442383 5.76609 3.03274 3.14453 6.2281 3.14453C9.42346 3.14453 12.0138 5.76609 12.0138 8.99995C12.0138 12.2338 9.42346 14.8554 6.2281 14.8554Z" fill="white"/>
</mask>
<g mask="url(#mask7_2121_17055)">
<path d="M11.7765 9.00781L11.9242 9.56646C10.0023 10.0871 8.19781 10.3824 6.51072 10.452C4.812 10.522 2.8321 10.2256 0.569336 9.56496L0.727723 9.00931C2.9355 9.65389 4.85598 9.94142 6.48746 9.87415C8.13058 9.80641 9.89364 9.51782 11.7765 9.00781Z" fill="#FFE017"/>
</g>
<mask id="mask8_2121_17055" style="mask-type:alpha" maskUnits="userSpaceOnUse" x="0" y="3" width="13" height="12">
<path d="M6.2281 14.8554C3.03274 14.8554 0.442383 12.2338 0.442383 8.99995C0.442383 5.76609 3.03274 3.14453 6.2281 3.14453C9.42346 3.14453 12.0138 5.76609 12.0138 8.99995C12.0138 12.2338 9.42346 14.8554 6.2281 14.8554Z" fill="white"/>
</mask>
<g mask="url(#mask8_2121_17055)">
<path d="M11.5587 11.7268L10.6555 12.6528C8.93894 10.9379 7.42775 9.71166 6.13117 8.97488C4.81244 8.22552 3.0927 7.46459 0.974609 6.69516L1.40897 5.47046C3.58952 6.26258 5.37253 7.0515 6.76064 7.84029C8.17091 8.64168 9.76718 9.93693 11.5587 11.7268Z" fill="#FFE017"/>
</g>
<mask id="mask9_2121_17055" style="mask-type:alpha" maskUnits="userSpaceOnUse" x="0" y="3" width="13" height="12">
<path d="M6.2281 14.8554C3.03274 14.8554 0.442383 12.2338 0.442383 8.99995C0.442383 5.76609 3.03274 3.14453 6.2281 3.14453C9.42346 3.14453 12.0138 5.76609 12.0138 8.99995C12.0138 12.2338 9.42346 14.8554 6.2281 14.8554Z" fill="white"/>
</mask>
<g mask="url(#mask9_2121_17055)">
<path d="M1.39365 12.2515L1.05176 11.7881C1.0995 11.7521 1.18469 11.6919 1.30207 11.6156C1.49587 11.4897 1.71107 11.364 1.94261 11.2466C2.58034 10.9231 3.22004 10.7211 3.83018 10.7025C3.86002 10.7016 3.88974 10.7012 3.91932 10.7012V11.2795C3.89549 11.2795 3.8715 11.2799 3.84735 11.2806C3.33317 11.2962 2.76852 11.4745 2.19867 11.7636C1.98627 11.8713 1.78837 11.9869 1.61076 12.1023C1.54893 12.1425 1.49423 12.1796 1.44736 12.2127C1.42003 12.232 1.4019 12.2453 1.39365 12.2515Z" fill="#FFE017"/>
</g>
<mask id="mask10_2121_17055" style="mask-type:alpha" maskUnits="userSpaceOnUse" x="0" y="3" width="13" height="12">
<path d="M6.2281 14.8554C3.03274 14.8554 0.442383 12.2338 0.442383 8.99995C0.442383 5.76609 3.03274 3.14453 6.2281 3.14453C9.42346 3.14453 12.0138 5.76609 12.0138 8.99995C12.0138 12.2338 9.42346 14.8554 6.2281 14.8554Z" fill="white"/>
</mask>
<g mask="url(#mask10_2121_17055)">
<path d="M1.6582 12.4525L1.80211 11.8928C3.7072 12.3946 5.17591 12.6446 6.20092 12.6446C7.22211 12.6446 8.74206 12.3497 10.7509 11.7578L10.9106 12.3131C8.85427 12.9189 7.28766 13.2229 6.20092 13.2229C5.11802 13.2229 3.60622 12.9655 1.6582 12.4525Z" fill="#FFE017"/>
</g>
<mask id="mask11_2121_17055" style="mask-type:alpha" maskUnits="userSpaceOnUse" x="0" y="3" width="13" height="12">
<path d="M6.2281 14.8554C3.03274 14.8554 0.442383 12.2338 0.442383 8.99995C0.442383 5.76609 3.03274 3.14453 6.2281 3.14453C9.42346 3.14453 12.0138 5.76609 12.0138 8.99995C12.0138 12.2338 9.42346 14.8554 6.2281 14.8554Z" fill="white"/>
</mask>
<g mask="url(#mask11_2121_17055)">
<path d="M0.916016 7.27161L1.82132 6.34766L3.14681 7.67789L2.24151 8.60184L0.916016 7.27161Z" fill="#FFE017"/>
</g>
<mask id="mask12_2121_17055" style="mask-type:alpha" maskUnits="userSpaceOnUse" x="0" y="3" width="13" height="12">
<path d="M6.2281 14.8554C3.03274 14.8554 0.442383 12.2338 0.442383 8.99995C0.442383 5.76609 3.03274 3.14453 6.2281 3.14453C9.42346 3.14453 12.0138 5.76609 12.0138 8.99995C12.0138 12.2338 9.42346 14.8554 6.2281 14.8554Z" fill="white"/>
</mask>
<g mask="url(#mask12_2121_17055)">
<path d="M8.42676 11.8858L9.10014 10.7773L11.2029 12.0857L10.5295 13.1942L8.42676 11.8858Z" fill="#FFE017"/>
</g>
<path d="M6.2281 3.14453C9.42346 3.14453 12.0138 5.76609 12.0138 8.99995C12.0138 12.2338 9.42346 14.8554 6.2281 14.8554C3.03274 14.8554 0.442383 12.2338 0.442383 8.99995C0.442383 5.76609 3.03274 3.14453 6.2281 3.14453ZM6.29953 4.012C3.5381 4.012 1.29953 6.27755 1.29953 9.07224C1.29953 11.8669 3.5381 14.1325 6.29953 14.1325C9.06095 14.1325 11.2995 11.8669 11.2995 9.07224C11.2995 6.27755 9.06095 4.012 6.29953 4.012Z" fill="#F9E813"/>
<path d="M3.04199 5.38892V10.0844C3.35109 11.943 4.39244 12.8723 6.16603 12.8723C7.93963 12.8723 8.98097 11.943 9.29007 10.0844V5.38892H3.04199Z" fill="white"/>
<path d="M2.61328 4.95508H9.71851V10.1206L9.71256 10.1563C9.36933 12.2201 8.15256 13.3059 6.16589 13.3059C4.17923 13.3059 2.96245 12.2201 2.61923 10.1563L2.61328 10.1206V4.95508Z" fill="#C51918"/>
<path d="M4.23828 6.5332H8.09307V9.86388C7.90237 11.0105 7.25991 11.5839 6.16568 11.5839C5.07145 11.5839 4.42898 11.0105 4.23828 9.86388V6.5332Z" fill="#F7FCFF"/>
<path d="M3.2998 5.3125H3.84197V5.67395H3.2998V5.3125Z" fill="#F9E813"/>
<path d="M3.01367 5.45703H4.01367V5.63775H3.01367V5.45703Z" fill="#060101"/>
<path d="M3.01367 5.60156H3.55584V5.78229H3.01367V5.60156Z" fill="#F9E813"/>
<path d="M3.58496 5.60156H4.12713V5.78229H3.58496V5.60156Z" fill="#F9E813"/>
<path d="M3.01367 6.0354H3.37512V6.57757H3.01367V6.0354Z" fill="#F9E813"/>
<path d="M3.72754 6.0354H4.08898V6.57757H3.72754V6.0354Z" fill="#F9E813"/>
<path d="M3.44238 6.0354H3.62311V6.57757H3.44238V6.0354Z" fill="#F9E813"/>
<path d="M3.01367 5.89087H4.01367V6.07159H3.01367V5.89087Z" fill="#060101"/>
<path d="M3.01367 6.32422H4.01367V6.50494H3.01367V6.32422Z" fill="#060101"/>
<path d="M3.15625 5.74634H3.33697V5.92706H3.15625V5.74634Z" fill="#F9E813"/>
<path d="M3.72754 5.74634H3.90826V5.92706H3.72754V5.74634Z" fill="#F9E813"/>
<path d="M3.44238 5.60156H3.62311V5.96301H3.44238V5.60156Z" fill="#F9E813"/>
<path d="M6.01367 5.3125H6.55584V5.67395H6.01367V5.3125Z" fill="#F9E813"/>
<path d="M5.72754 5.45703H6.72754V5.63775H5.72754V5.45703Z" fill="#060101"/>
<path d="M5.72754 5.60156H6.26971V5.78229H5.72754V5.60156Z" fill="#F9E813"/>
<path d="M6.29883 5.60156H6.841V5.78229H6.29883V5.60156Z" fill="#F9E813"/>
<path d="M5.72754 6.0354H6.08898V6.57757H5.72754V6.0354Z" fill="#F9E813"/>
<path d="M6.44141 6.0354H6.80285V6.57757H6.44141V6.0354Z" fill="#F9E813"/>
<path d="M6.15625 6.0354H6.33697V6.57757H6.15625V6.0354Z" fill="#F9E813"/>
<path d="M5.72754 5.89087H6.72754V6.07159H5.72754V5.89087Z" fill="#060101"/>
<path d="M5.72754 6.32422H6.72754V6.50494H5.72754V6.32422Z" fill="#060101"/>
<path d="M5.87012 5.74634H6.05084V5.92706H5.87012V5.74634Z" fill="#F9E813"/>
<path d="M6.44141 5.74634H6.62213V5.92706H6.44141V5.74634Z" fill="#F9E813"/>
<path d="M6.15625 5.60156H6.33697V5.96301H6.15625V5.60156Z" fill="#F9E813"/>
<path d="M8.58594 5.3125H9.12811V5.67395H8.58594V5.3125Z" fill="#F9E813"/>
<path d="M8.2998 5.45703H9.2998V5.63775H8.2998V5.45703Z" fill="#060101"/>
<path d="M8.2998 5.60156H8.84197V5.78229H8.2998V5.60156Z" fill="#F9E813"/>
<path d="M8.87109 5.60156H9.41326V5.78229H8.87109V5.60156Z" fill="#F9E813"/>
<path d="M8.2998 6.0354H8.66125V6.57757H8.2998V6.0354Z" fill="#F9E813"/>
<path d="M9.01367 6.0354H9.37512V6.57757H9.01367V6.0354Z" fill="#F9E813"/>
<path d="M8.72852 6.0354H8.90924V6.57757H8.72852V6.0354Z" fill="#F9E813"/>
<path d="M8.2998 5.89087H9.2998V6.07159H8.2998V5.89087Z" fill="#060101"/>
<path d="M8.2998 6.32422H9.2998V6.50494H8.2998V6.32422Z" fill="#060101"/>
<path d="M8.44238 5.74634H8.62311V5.92706H8.44238V5.74634Z" fill="#F9E813"/>
<path d="M9.01367 5.74634H9.19439V5.92706H9.01367V5.74634Z" fill="#F9E813"/>
<path d="M8.72852 5.60156H8.90924V5.96301H8.72852V5.60156Z" fill="#F9E813"/>
<path d="M8.58496 7.91406H9.12713V8.27551H8.58496V7.91406Z" fill="#F9E813"/>
<path d="M8.29883 8.05859H9.29883V8.23932H8.29883V8.05859Z" fill="#060101"/>
<path d="M8.29883 8.20312H8.841V8.38385H8.29883V8.20312Z" fill="#F9E813"/>
<path d="M8.87012 8.20312H9.41229V8.38385H8.87012V8.20312Z" fill="#F9E813"/>
<path d="M8.29883 8.63696H8.66027V9.17913H8.29883V8.63696Z" fill="#F9E813"/>
<path d="M9.0127 8.63696H9.37414V9.17913H9.0127V8.63696Z" fill="#F9E813"/>
<path d="M8.72754 8.63696H8.90826V9.17913H8.72754V8.63696Z" fill="#F9E813"/>
<path d="M8.29883 8.49243H9.29883V8.67315H8.29883V8.49243Z" fill="#060101"/>
<path d="M8.29883 8.92578H9.29883V9.1065H8.29883V8.92578Z" fill="#060101"/>
<path d="M8.44141 8.3479H8.62213V8.52862H8.44141V8.3479Z" fill="#F9E813"/>
<path d="M9.0127 8.3479H9.19342V8.52862H9.0127V8.3479Z" fill="#F9E813"/>
<path d="M8.72754 8.20312H8.90826V8.56457H8.72754V8.20312Z" fill="#F9E813"/>
<path d="M3.2998 7.91406H3.84197V8.27551H3.2998V7.91406Z" fill="#F9E813"/>
<path d="M3.01367 8.05859H4.01367V8.23932H3.01367V8.05859Z" fill="#060101"/>
<path d="M3.01367 8.20312H3.55584V8.38385H3.01367V8.20312Z" fill="#F9E813"/>
<path d="M3.58496 8.20312H4.12713V8.38385H3.58496V8.20312Z" fill="#F9E813"/>
<path d="M3.01367 8.63696H3.37512V9.17913H3.01367V8.63696Z" fill="#F9E813"/>
<path d="M3.72754 8.63696H4.08898V9.17913H3.72754V8.63696Z" fill="#F9E813"/>
<path d="M3.44238 8.63696H3.62311V9.17913H3.44238V8.63696Z" fill="#F9E813"/>
<path d="M3.01367 8.49243H4.01367V8.67315H3.01367V8.49243Z" fill="#060101"/>
<path d="M3.01367 8.92578H4.01367V9.1065H3.01367V8.92578Z" fill="#060101"/>
<path d="M3.15625 8.3479H3.33697V8.52862H3.15625V8.3479Z" fill="#F9E813"/>
<path d="M3.72754 8.3479H3.90826V8.52862H3.72754V8.3479Z" fill="#F9E813"/>
<path d="M3.44238 8.20312H3.62311V8.56457H3.44238V8.20312Z" fill="#F9E813"/>
<path d="M3.64648 11.1777L3.99498 10.7624L4.27187 10.9947L3.92337 11.4101L3.64648 11.1777Z" fill="#F9E813"/>
<path d="M3.57422 11.4902L4.21701 10.7242L4.35545 10.8404L3.71266 11.6064L3.57422 11.4902Z" fill="#060101"/>
<path d="M3.68457 11.582L4.03307 11.1667L4.17151 11.2829L3.82301 11.6982L3.68457 11.582Z" fill="#F9E813"/>
<path d="M4.05176 11.1445L4.40026 10.7292L4.5387 10.8454L4.1902 11.2607L4.05176 11.1445Z" fill="#F9E813"/>
<path d="M4.0166 11.8613L4.24893 11.5844L4.66426 11.9329L4.43193 12.2098L4.0166 11.8613Z" fill="#F9E813"/>
<path d="M4.47559 11.3145L4.70792 11.0376L5.12324 11.3861L4.89091 11.663L4.47559 11.3145Z" fill="#F9E813"/>
<path d="M4.29199 11.5332L4.40816 11.3948L4.82348 11.7433L4.70732 11.8817L4.29199 11.5332Z" fill="#F9E813"/>
<path d="M3.90625 11.7676L4.54904 11.0015L4.68748 11.1177L4.04469 11.8837L3.90625 11.7676Z" fill="#060101"/>
<path d="M4.23828 12.0469L4.88107 11.2808L5.01951 11.397L4.37672 12.163L4.23828 12.0469Z" fill="#060101"/>
<path d="M3.8877 11.5664L4.00386 11.428L4.1423 11.5441L4.02614 11.6826L3.8877 11.5664Z" fill="#F9E813"/>
<path d="M4.25488 11.1289L4.37105 10.9905L4.50949 11.1066L4.39332 11.2451L4.25488 11.1289Z" fill="#F9E813"/>
<path d="M3.95996 11.2539L4.07613 11.1155L4.35301 11.3478L4.23684 11.4862L3.95996 11.2539Z" fill="#F9E813"/>
<path d="M8.5332 10.8496L8.8817 11.2649L8.60482 11.4973L8.25632 11.0819L8.5332 10.8496Z" fill="#F9E813"/>
<path d="M8.23926 10.7246L8.88205 11.4907L8.7436 11.6068L8.10082 10.8408L8.23926 10.7246Z" fill="#060101"/>
<path d="M8.12793 10.8164L8.47643 11.2317L8.33799 11.3479L7.98949 10.9326L8.12793 10.8164Z" fill="#F9E813"/>
<path d="M8.49609 11.2539L8.84459 11.6692L8.70615 11.7854L8.35765 11.3701L8.49609 11.2539Z" fill="#F9E813"/>
<path d="M7.7959 11.0957L8.02823 11.3726L7.61291 11.7211L7.38057 11.4442L7.7959 11.0957Z" fill="#F9E813"/>
<path d="M8.25488 11.6426L8.48722 11.9195L8.07189 12.268L7.83956 11.9911L8.25488 11.6426Z" fill="#F9E813"/>
<path d="M8.07129 11.4238L8.18746 11.5623L7.77213 11.9108L7.65596 11.7723L8.07129 11.4238Z" fill="#F9E813"/>
<path d="M7.90723 11.002L8.55001 11.768L8.41157 11.8842L7.76878 11.1181L7.90723 11.002Z" fill="#060101"/>
<path d="M7.57422 11.2812L8.21701 12.0473L8.07856 12.1635L7.43578 11.3974L7.57422 11.2812Z" fill="#060101"/>
<path d="M8.10938 11.0195L8.22554 11.158L8.0871 11.2741L7.97093 11.1357L8.10938 11.0195Z" fill="#F9E813"/>
<path d="M8.47656 11.457L8.59273 11.5955L8.45429 11.7116L8.33812 11.5732L8.47656 11.457Z" fill="#F9E813"/>
<path d="M8.4043 11.1445L8.52046 11.283L8.24358 11.5153L8.12741 11.3769L8.4043 11.1445Z" fill="#F9E813"/>
<path d="M6.71876 6.9043V7.6254C6.66978 7.87366 6.50473 7.99778 6.22364 7.99778C5.94255 7.99778 5.7775 7.87366 5.72852 7.6254V6.9043H6.71876ZM6.01423 7.62719C5.93533 7.62719 5.87137 7.69192 5.87137 7.77177C5.87137 7.85162 5.93533 7.91635 6.01423 7.91635C6.09313 7.91635 6.15709 7.85162 6.15709 7.77177C6.15709 7.69192 6.09313 7.62719 6.01423 7.62719ZM6.4428 7.62719C6.3639 7.62719 6.29994 7.69192 6.29994 7.77177C6.29994 7.85162 6.3639 7.91635 6.4428 7.91635C6.5217 7.91635 6.58566 7.85162 6.58566 7.77177C6.58566 7.69192 6.5217 7.62719 6.4428 7.62719ZM6.22852 7.33803C6.14962 7.33803 6.08566 7.40276 6.08566 7.48261C6.08566 7.56246 6.14962 7.62719 6.22852 7.62719C6.30741 7.62719 6.37137 7.56246 6.37137 7.48261C6.37137 7.40276 6.30741 7.33803 6.22852 7.33803ZM6.01423 7.04888C5.93533 7.04888 5.87137 7.11361 5.87137 7.19345C5.87137 7.2733 5.93533 7.33803 6.01423 7.33803C6.09313 7.33803 6.15709 7.2733 6.15709 7.19345C6.15709 7.11361 6.09313 7.04888 6.01423 7.04888ZM6.4428 7.04888C6.3639 7.04888 6.29994 7.11361 6.29994 7.19345C6.29994 7.2733 6.3639 7.33803 6.4428 7.33803C6.5217 7.33803 6.58566 7.2733 6.58566 7.19345C6.58566 7.11361 6.5217 7.04888 6.4428 7.04888Z" fill="#013399"/>
<path d="M6.71876 8.49414V9.21525C6.66978 9.4635 6.50473 9.58763 6.22364 9.58763C5.94255 9.58763 5.7775 9.4635 5.72852 9.21525V8.49414H6.71876ZM6.01423 9.21703C5.93533 9.21703 5.87137 9.28176 5.87137 9.36161C5.87137 9.44146 5.93533 9.50619 6.01423 9.50619C6.09313 9.50619 6.15709 9.44146 6.15709 9.36161C6.15709 9.28176 6.09313 9.21703 6.01423 9.21703ZM6.4428 9.21703C6.3639 9.21703 6.29994 9.28176 6.29994 9.36161C6.29994 9.44146 6.3639 9.50619 6.4428 9.50619C6.5217 9.50619 6.58566 9.44146 6.58566 9.36161C6.58566 9.28176 6.5217 9.21703 6.4428 9.21703ZM6.22852 8.92788C6.14962 8.92788 6.08566 8.99261 6.08566 9.07245C6.08566 9.1523 6.14962 9.21703 6.22852 9.21703C6.30741 9.21703 6.37137 9.1523 6.37137 9.07245C6.37137 8.99261 6.30741 8.92788 6.22852 8.92788ZM6.01423 8.63872C5.93533 8.63872 5.87137 8.70345 5.87137 8.7833C5.87137 8.86315 5.93533 8.92788 6.01423 8.92788C6.09313 8.92788 6.15709 8.86315 6.15709 8.7833C6.15709 8.70345 6.09313 8.63872 6.01423 8.63872ZM6.4428 8.63872C6.3639 8.63872 6.29994 8.70345 6.29994 8.7833C6.29994 8.86315 6.3639 8.92788 6.4428 8.92788C6.5217 8.92788 6.58566 8.86315 6.58566 8.7833C6.58566 8.70345 6.5217 8.63872 6.4428 8.63872Z" fill="#013399"/>
<path d="M8.00392 8.49414V9.21525C7.95493 9.4635 7.78989 9.58763 7.5088 9.58763C7.2277 9.58763 7.06266 9.4635 7.01367 9.21525V8.49414H8.00392ZM7.29939 9.21703C7.22049 9.21703 7.15653 9.28176 7.15653 9.36161C7.15653 9.44146 7.22049 9.50619 7.29939 9.50619C7.37828 9.50619 7.44224 9.44146 7.44224 9.36161C7.44224 9.28176 7.37828 9.21703 7.29939 9.21703ZM7.72796 9.21703C7.64906 9.21703 7.5851 9.28176 7.5851 9.36161C7.5851 9.44146 7.64906 9.50619 7.72796 9.50619C7.80686 9.50619 7.87081 9.44146 7.87081 9.36161C7.87081 9.28176 7.80686 9.21703 7.72796 9.21703ZM7.51367 8.92788C7.43477 8.92788 7.37081 8.99261 7.37081 9.07245C7.37081 9.1523 7.43477 9.21703 7.51367 9.21703C7.59257 9.21703 7.65653 9.1523 7.65653 9.07245C7.65653 8.99261 7.59257 8.92788 7.51367 8.92788ZM7.29939 8.63872C7.22049 8.63872 7.15653 8.70345 7.15653 8.7833C7.15653 8.86315 7.22049 8.92788 7.29939 8.92788C7.37828 8.92788 7.44224 8.86315 7.44224 8.7833C7.44224 8.70345 7.37828 8.63872 7.29939 8.63872ZM7.72796 8.63872C7.64906 8.63872 7.5851 8.70345 7.5851 8.7833C7.5851 8.86315 7.64906 8.92788 7.72796 8.92788C7.80686 8.92788 7.87081 8.86315 7.87081 8.7833C7.87081 8.70345 7.80686 8.63872 7.72796 8.63872Z" fill="#013399"/>
<path d="M5.43263 8.49414V9.21525C5.38364 9.4635 5.2186 9.58763 4.93751 9.58763C4.65641 9.58763 4.49137 9.4635 4.44238 9.21525V8.49414H5.43263ZM4.7281 9.21703C4.6492 9.21703 4.58524 9.28176 4.58524 9.36161C4.58524 9.44146 4.6492 9.50619 4.7281 9.50619C4.80699 9.50619 4.87095 9.44146 4.87095 9.36161C4.87095 9.28176 4.80699 9.21703 4.7281 9.21703ZM5.15667 9.21703C5.07777 9.21703 5.01381 9.28176 5.01381 9.36161C5.01381 9.44146 5.07777 9.50619 5.15667 9.50619C5.23557 9.50619 5.29953 9.44146 5.29953 9.36161C5.29953 9.28176 5.23557 9.21703 5.15667 9.21703ZM4.94238 8.92788C4.86349 8.92788 4.79953 8.99261 4.79953 9.07245C4.79953 9.1523 4.86349 9.21703 4.94238 9.21703C5.02128 9.21703 5.08524 9.1523 5.08524 9.07245C5.08524 8.99261 5.02128 8.92788 4.94238 8.92788ZM4.7281 8.63872C4.6492 8.63872 4.58524 8.70345 4.58524 8.7833C4.58524 8.86315 4.6492 8.92788 4.7281 8.92788C4.80699 8.92788 4.87095 8.86315 4.87095 8.7833C4.87095 8.70345 4.80699 8.63872 4.7281 8.63872ZM5.15667 8.63872C5.07777 8.63872 5.01381 8.70345 5.01381 8.7833C5.01381 8.86315 5.07777 8.92788 5.15667 8.92788C5.23557 8.92788 5.29953 8.86315 5.29953 8.7833C5.29953 8.70345 5.23557 8.63872 5.15667 8.63872Z" fill="#013399"/>
<path d="M6.71779 10.0842V10.8053C6.6688 11.0536 6.50376 11.1777 6.22266 11.1777C5.94157 11.1777 5.77653 11.0536 5.72754 10.8053V10.0842H6.71779ZM6.01325 10.8071C5.93436 10.8071 5.8704 10.8718 5.8704 10.9517C5.8704 11.0315 5.93436 11.0963 6.01325 11.0963C6.09215 11.0963 6.15611 11.0315 6.15611 10.9517C6.15611 10.8718 6.09215 10.8071 6.01325 10.8071ZM6.44182 10.8071C6.36293 10.8071 6.29897 10.8718 6.29897 10.9517C6.29897 11.0315 6.36293 11.0963 6.44182 11.0963C6.52072 11.0963 6.58468 11.0315 6.58468 10.9517C6.58468 10.8718 6.52072 10.8071 6.44182 10.8071ZM6.22754 10.518C6.14864 10.518 6.08468 10.5827 6.08468 10.6625C6.08468 10.7424 6.14864 10.8071 6.22754 10.8071C6.30644 10.8071 6.3704 10.7424 6.3704 10.6625C6.3704 10.5827 6.30644 10.518 6.22754 10.518ZM6.01325 10.2288C5.93436 10.2288 5.8704 10.2935 5.8704 10.3734C5.8704 10.4532 5.93436 10.518 6.01325 10.518C6.09215 10.518 6.15611 10.4532 6.15611 10.3734C6.15611 10.2935 6.09215 10.2288 6.01325 10.2288ZM6.44182 10.2288C6.36293 10.2288 6.29897 10.2935 6.29897 10.3734C6.29897 10.4532 6.36293 10.518 6.44182 10.518C6.52072 10.518 6.58468 10.4532 6.58468 10.3734C6.58468 10.2935 6.52072 10.2288 6.44182 10.2288Z" fill="#013399"/>
</g>
</g>
<mask id="mask13_2121_17055" style="mask-type:alpha" maskUnits="userSpaceOnUse" x="0" y="0" width="19" height="18">
<path d="M9.2998 18C14.2704 18 18.2998 13.9706 18.2998 9C18.2998 4.02944 14.2704 0 9.2998 0C4.32924 0 0.299805 4.02944 0.299805 9C0.299805 13.9706 4.32924 18 9.2998 18Z" fill="white"/>
</mask>
<g mask="url(#mask13_2121_17055)">
<path d="M20.3998 0H-1.8002C-2.29725 0 -2.7002 0.402944 -2.7002 0.9V17.1C-2.7002 17.5971 -2.29725 18 -1.8002 18H20.3998C20.8969 18 21.2998 17.5971 21.2998 17.1V0.9C21.2998 0.402944 20.8969 0 20.3998 0Z" fill="black"/>
<mask id="mask14_2121_17055" style="mask-type:alpha" maskUnits="userSpaceOnUse" x="-3" y="0" width="25" height="18">
<path d="M20.3998 0H-1.8002C-2.29725 0 -2.7002 0.402944 -2.7002 0.9V17.1C-2.7002 17.5971 -2.29725 18 -1.8002 18H20.3998C20.8969 18 21.2998 17.5971 21.2998 17.1V0.9C21.2998 0.402944 20.8969 0 20.3998 0Z" fill="white"/>
</mask>
<g mask="url(#mask14_2121_17055)">
<mask id="mask15_2121_17055" style="mask-type:alpha" maskUnits="userSpaceOnUse" x="-3" y="0" width="25" height="18">
<path d="M21.2998 0H-2.7002V18H21.2998V0Z" fill="white"/>
</mask>
<g mask="url(#mask15_2121_17055)">
<path d="M21.2998 0H-2.7002V18H21.2998V0Z" fill="#F7FCFF"/>
<mask id="mask16_2121_17055" style="mask-type:alpha" maskUnits="userSpaceOnUse" x="-3" y="0" width="25" height="18">
<path d="M21.2998 0H-2.7002V18H21.2998V0Z" fill="white"/>
</mask>
<g mask="url(#mask16_2121_17055)">
<path d="M21.2998 0H-2.7002V6H21.2998V0Z" fill="#FF8C1A"/>
</g>
<mask id="mask17_2121_17055" style="mask-type:alpha" maskUnits="userSpaceOnUse" x="-3" y="0" width="25" height="18">
<path d="M21.2998 0H-2.7002V18H21.2998V0Z" fill="white"/>
</mask>
<g mask="url(#mask17_2121_17055)">
<path d="M21.2998 12H-2.7002V18H21.2998V12Z" fill="#5EAA22"/>
</g>
<mask id="mask18_2121_17055" style="mask-type:alpha" maskUnits="userSpaceOnUse" x="-3" y="0" width="25" height="18">
<path d="M21.2998 0H-2.7002V18H21.2998V0Z" fill="white"/>
</mask>
<g mask="url(#mask18_2121_17055)">
<path d="M9.2998 11.25C10.5424 11.25 11.5498 10.2426 11.5498 9C11.5498 7.75736 10.5424 6.75 9.2998 6.75C8.05716 6.75 7.0498 7.75736 7.0498 9C7.0498 10.2426 8.05716 11.25 9.2998 11.25ZM9.2998 12C7.64295 12 6.2998 10.6569 6.2998 9C6.2998 7.34315 7.64295 6 9.2998 6C10.9567 6 12.2998 7.34315 12.2998 9C12.2998 10.6569 10.9567 12 9.2998 12Z" fill="#3D58DB"/>
<path d="M9.29539 9.64616L8.86727 11.9866L9.11586 9.62035L8.04571 11.7453L8.95087 9.545L7.32539 11.2824L8.8138 9.42622L6.76466 10.6353L8.71573 9.27364L6.40897 9.85645L8.66463 9.0996L6.28711 9.00891L8.66463 8.91823L6.40897 8.16138L8.71573 8.74419L6.76466 7.38251L8.8138 8.59161L7.32539 6.7354L8.95087 8.47283L8.04571 6.27248L9.11586 8.39748L8.86727 6.03125L9.29539 8.37167L9.72352 6.03125L9.47493 8.39748L10.5451 6.27248L9.63992 8.47283L11.2654 6.7354L9.77699 8.59161L11.8261 7.38251L9.87505 8.74419L12.1818 8.16138L9.92615 8.91823L12.3037 9.00891L9.92615 9.0996L12.1818 9.85645L9.87505 9.27364L11.8261 10.6353L9.77699 9.42622L11.2654 11.2824L9.63992 9.545L10.5451 11.7453L9.47493 9.62035L9.72352 11.9866L9.29539 9.64616Z" fill="#3D58DB"/>
</g>
</g>
</g>
<mask id="mask19_2121_17055" style="mask-type:alpha" maskUnits="userSpaceOnUse" x="-3" y="0" width="25" height="18">
<path d="M20.3998 0H-1.8002C-2.29725 0 -2.7002 0.402944 -2.7002 0.9V17.1C-2.7002 17.5971 -2.29725 18 -1.8002 18H20.3998C20.8969 18 21.2998 17.5971 21.2998 17.1V0.9C21.2998 0.402944 20.8969 0 20.3998 0Z" fill="white"/>
</mask>
<g mask="url(#mask19_2121_17055)">
<path d="M20.0248 0.375H-1.4252C-1.92225 0.375 -2.3252 0.777944 -2.3252 1.275V16.725C-2.3252 17.2221 -1.92225 17.625 -1.4252 17.625H20.0248C20.5219 17.625 20.9248 17.2221 20.9248 16.725V1.275C20.9248 0.777944 20.5219 0.375 20.0248 0.375Z" stroke="black" stroke-opacity="0.1"/>
</g>
</g>
</g>
<defs>
<clipPath id="clip0_2121_17055">
<rect width="18" height="18" fill="white" transform="translate(0.299805)"/>
</clipPath>
</defs>
</svg>
