<svg width="18" height="18" viewBox="0 0 18 18" fill="none" xmlns="http://www.w3.org/2000/svg">
<g clip-path="url(#clip0_2121_16791)">
<mask id="mask0_2121_16791" style="mask-type:alpha" maskUnits="userSpaceOnUse" x="0" y="0" width="18" height="18">
<path d="M9 18C13.9706 18 18 13.9706 18 9C18 4.02944 13.9706 0 9 0C4.02944 0 0 4.02944 0 9C0 13.9706 4.02944 18 9 18Z" fill="white"/>
</mask>
<g mask="url(#mask0_2121_16791)">
<mask id="mask1_2121_16791" style="mask-type:alpha" maskUnits="userSpaceOnUse" x="-4" y="0" width="25" height="18">
<path d="M20.6996 0H-3.15039V18H20.6996V0Z" fill="white"/>
</mask>
<g mask="url(#mask1_2121_16791)">
<path fill-rule="evenodd" clip-rule="evenodd" d="M-3.15039 0H20.6996V18H-3.15039V0Z" fill="#F7FCFF"/>
<path d="M20.6996 11H-3.15039V12.5H20.6996V11Z" fill="#E31D1C"/>
<path d="M20.6996 13.75H-3.15039V15.25H20.6996V13.75Z" fill="#E31D1C"/>
<path d="M20.6996 5.5H-3.15039V7H20.6996V5.5Z" fill="#E31D1C"/>
<path d="M20.6996 16.5H-3.15039V18H20.6996V16.5Z" fill="#E31D1C"/>
<path d="M20.6996 8.25H-3.15039V9.75H20.6996V8.25Z" fill="#E31D1C"/>
<path d="M20.6996 0H-3.15039V1.5H20.6996V0Z" fill="#E31D1C"/>
<path d="M20.6996 2.75H-3.15039V4.25H20.6996V2.75Z" fill="#E31D1C"/>
<path d="M11.7559 0H-3.15039V9.75H11.7559V0Z" fill="#2E42A5"/>
<path fill-rule="evenodd" clip-rule="evenodd" d="M-1.86794 6.92163L-1.62111 7.47593H-1.08609L-1.50647 7.90637L-1.34372 8.58557L-1.86718 8.20391L-2.40819 8.58557L-2.22554 7.90637L-2.70605 7.47593H-2.07844L-1.86794 6.92163ZM1.11331 6.92163L1.36014 7.47593H1.89516L1.47478 7.90637L1.63753 8.58557L1.11407 8.20391L0.573061 8.58557L0.75571 7.90637L0.275195 7.47593H0.902813L1.11331 6.92163ZM4.09456 6.92163L4.34139 7.47593H4.87641L4.45603 7.90637L4.61878 8.58557L4.09532 8.20391L3.55431 8.58557L3.73696 7.90637L3.25644 7.47593H3.88406L4.09456 6.92163ZM7.07581 6.92163L7.32264 7.47593H7.85766L7.43728 7.90637L7.60003 8.58557L7.07657 8.20391L6.53556 8.58557L6.71821 7.90637L6.23769 7.47593H6.86531L7.07581 6.92163ZM10.0571 6.92163L10.3039 7.47593H10.8389L10.4185 7.90637L10.5813 8.58557L10.0578 8.20391L9.51681 8.58557L9.69946 7.90637L9.21894 7.47593H9.84656L10.0571 6.92163ZM-0.377313 5.42163L-0.130487 5.97593H0.40454L-0.0158436 6.40637L0.146904 7.08557L-0.376557 6.70391L-0.917564 7.08557L-0.734915 6.40637L-1.21543 5.97593H-0.587811L-0.377313 5.42163ZM2.60394 5.42163L2.85076 5.97593H3.38579L2.96541 6.40637L3.12815 7.08557L2.60469 6.70391L2.06369 7.08557L2.24634 6.40637L1.76582 5.97593H2.39344L2.60394 5.42163ZM5.58519 5.42163L5.83201 5.97593H6.36704L5.94666 6.40637L6.1094 7.08557L5.58594 6.70391L5.04494 7.08557L5.22759 6.40637L4.74707 5.97593H5.37469L5.58519 5.42163ZM8.56644 5.42163L8.81326 5.97593H9.34829L8.92791 6.40637L9.09065 7.08557L8.56719 6.70391L8.02619 7.08557L8.20884 6.40637L7.72832 5.97593H8.35594L8.56644 5.42163ZM4.09456 3.92163L4.34139 4.47593H4.87641L4.45603 4.90637L4.61878 5.58557L4.09532 5.20391L3.55431 5.58557L3.73696 4.90637L3.25644 4.47593H3.88406L4.09456 3.92163ZM7.07581 3.92163L7.32264 4.47593H7.85766L7.43728 4.90637L7.60003 5.58557L7.07657 5.20391L6.53556 5.58557L6.71821 4.90637L6.23769 4.47593H6.86531L7.07581 3.92163ZM-1.86794 3.92163L-1.62111 4.47593H-1.08609L-1.50647 4.90637L-1.34372 5.58557L-1.86718 5.20391L-2.40819 5.58557L-2.22554 4.90637L-2.70605 4.47593H-2.07844L-1.86794 3.92163ZM1.11331 3.92163L1.36014 4.47593H1.89516L1.47478 4.90637L1.63753 5.58557L1.11407 5.20391L0.573061 5.58557L0.75571 4.90637L0.275195 4.47593H0.902813L1.11331 3.92163ZM10.0571 3.92163L10.3039 4.47593H10.8389L10.4185 4.90637L10.5813 5.58557L10.0578 5.20391L9.51681 5.58557L9.69946 4.90637L9.21894 4.47593H9.84656L10.0571 3.92163ZM-0.377313 2.42163L-0.130487 2.97593H0.40454L-0.0158436 3.40637L0.146904 4.08557L-0.376557 3.70391L-0.917564 4.08557L-0.734915 3.40637L-1.21543 2.97593H-0.587811L-0.377313 2.42163ZM2.60394 2.42163L2.85076 2.97593H3.38579L2.96541 3.40637L3.12815 4.08557L2.60469 3.70391L2.06369 4.08557L2.24634 3.40637L1.76582 2.97593H2.39344L2.60394 2.42163ZM5.58519 2.42163L5.83201 2.97593H6.36704L5.94666 3.40637L6.1094 4.08557L5.58594 3.70391L5.04494 4.08557L5.22759 3.40637L4.74707 2.97593H5.37469L5.58519 2.42163ZM8.56644 2.42163L8.81326 2.97593H9.34829L8.92791 3.40637L9.09065 4.08557L8.56719 3.70391L8.02619 4.08557L8.20884 3.40637L7.72832 2.97593H8.35594L8.56644 2.42163ZM-1.86794 0.921631L-1.62111 1.47593H-1.08609L-1.50647 1.90637L-1.34372 2.58557L-1.86718 2.20391L-2.40819 2.58557L-2.22554 1.90637L-2.70605 1.47593H-2.07844L-1.86794 0.921631ZM1.11331 0.921631L1.36014 1.47593H1.89516L1.47478 1.90637L1.63753 2.58557L1.11407 2.20391L0.573061 2.58557L0.75571 1.90637L0.275195 1.47593H0.902813L1.11331 0.921631ZM4.09456 0.921631L4.34139 1.47593H4.87641L4.45603 1.90637L4.61878 2.58557L4.09532 2.20391L3.55431 2.58557L3.73696 1.90637L3.25644 1.47593H3.88406L4.09456 0.921631ZM7.07581 0.921631L7.32264 1.47593H7.85766L7.43728 1.90637L7.60003 2.58557L7.07657 2.20391L6.53556 2.58557L6.71821 1.90637L6.23769 1.47593H6.86531L7.07581 0.921631ZM10.0571 0.921631L10.3039 1.47593H10.8389L10.4185 1.90637L10.5813 2.58557L10.0578 2.20391L9.51681 2.58557L9.69946 1.90637L9.21894 1.47593H9.84656L10.0571 0.921631Z" fill="#F7FCFF"/>
</g>
</g>
</g>
<defs>
<clipPath id="clip0_2121_16791">
<rect width="18" height="18" fill="white"/>
</clipPath>
</defs>
</svg>
