<svg width="16" height="16" viewBox="0 0 16 16" fill="none" xmlns="http://www.w3.org/2000/svg">
<path d="M8.70486 2.30506C8.70486 1.91565 8.38918 1.59998 7.99978 1.59998C7.61037 1.59998 7.29469 1.91565 7.29469 2.30506V3.49828H6.73425C5.29644 3.49828 4.13086 4.66386 4.13086 6.10167C4.13086 7.53948 5.29644 8.70506 6.73425 8.70506H9.26532C9.92432 8.70506 10.4585 9.23928 10.4585 9.89828C10.4585 10.5573 9.92432 11.0915 9.26532 11.0915H6.75121C6.27004 11.0653 5.85124 10.752 5.69077 10.2967C5.56133 9.92941 5.15867 9.73662 4.7914 9.86606C4.42414 9.9955 4.23134 10.3982 4.36078 10.7654C4.71417 11.7681 5.6417 12.4552 6.70383 12.501C6.71397 12.5015 6.72411 12.5017 6.73425 12.5017H7.29469V13.6949C7.29469 14.0843 7.61037 14.4 7.99978 14.4C8.38918 14.4 8.70486 14.0843 8.70486 13.6949V12.5017H9.26532C10.7031 12.5017 11.8687 11.3361 11.8687 9.89828C11.8687 8.46047 10.7031 7.29489 9.26532 7.29489H6.73425C6.07525 7.29489 5.54103 6.76067 5.54103 6.10167C5.54103 5.44267 6.07525 4.90845 6.73425 4.90845H9.24836C9.72954 4.93463 10.1483 5.24796 10.3088 5.70327C10.4382 6.07054 10.8409 6.26333 11.2082 6.13389C11.5754 6.00445 11.7682 5.6018 11.6388 5.23453C11.2854 4.23186 10.3579 3.5448 9.29574 3.49894C9.28561 3.4985 9.27547 3.49828 9.26532 3.49828H8.70486V2.30506Z" fill="#FFD643"/>
</svg>
