<svg width="16" height="16" viewBox="0 0 16 16" fill="none" xmlns="http://www.w3.org/2000/svg">
<path d="M8.00023 11.4909C8.88421 11.4909 9.60084 12.2075 9.60084 13.0915C9.60084 13.9755 8.88421 14.6921 8.00023 14.6921C7.11626 14.6921 6.39962 13.9755 6.39962 13.0915C6.39962 12.2075 7.11626 11.4909 8.00023 11.4909ZM7.99959 1.89209C9.3693 1.89209 10.4797 3.00246 10.4797 4.37217C10.4797 6.18548 9.84613 8.56646 9.4971 9.74642C9.29897 10.4161 8.68224 10.8525 8.00062 10.8525C7.31752 10.8525 6.70013 10.4142 6.50269 9.74335L6.36033 9.24596C6.00529 7.9698 5.51953 5.94218 5.51953 4.37217C5.51953 3.00246 6.6299 1.89209 7.99959 1.89209Z" fill="#FF9F43"/>
</svg>
