<svg width="16" height="16" viewBox="0 0 16 16" fill="none" xmlns="http://www.w3.org/2000/svg">
<path fill-rule="evenodd" clip-rule="evenodd" d="M8.15007 12.9646C7.97098 12.8659 7.7569 12.8658 7.57772 12.9643L4.57349 14.6167C4.12275 14.8646 3.59592 14.4642 3.68202 13.9391L4.25593 10.4391C4.29015 10.2305 4.22394 10.0176 4.07893 9.8699L1.64551 7.39192C1.28038 7.02011 1.48166 6.3717 1.98593 6.29524L5.34295 5.78627C5.54316 5.75592 5.71625 5.62441 5.80578 5.43463L7.30803 2.25026C7.5334 1.77254 8.18457 1.77254 8.40994 2.25026L9.91219 5.43463C10.0017 5.62441 10.1748 5.75592 10.375 5.78627L13.732 6.29524C14.2363 6.3717 14.4376 7.02011 14.0725 7.39192L11.639 9.8699C11.494 10.0176 11.4278 10.2305 11.462 10.4391L12.0357 13.9376C12.1218 14.463 11.5945 14.8634 11.1437 14.6149L8.15007 12.9646Z" fill="#7367F0"/>
</svg>
